<?xml version="1.0" encoding="utf-8"?>
<!-- Generator: Adobe Illustrator 15.1.0, SVG Export Plug-In  -->
<!DOCTYPE svg PUBLIC "-//W3C//DTD SVG 1.1//EN" "http://www.w3.org/Graphics/SVG/1.1/DTD/svg11.dtd" [
	<!ENTITY ns_flows "http://ns.adobe.com/Flows/1.0/">
]>
<svg version="1.1"
	 xmlns="http://www.w3.org/2000/svg" xmlns:xlink="http://www.w3.org/1999/xlink" xmlns:a="http://ns.adobe.com/AdobeSVGViewerExtensions/3.0/"
	 x="0px" y="0px" width="335px" height="133px" viewBox="0 0 335 133" enable-background="new 0 0 335 133" xml:space="preserve">
<defs>
</defs>
<polygon fill="#8C8D90" points="239.029,86.101 239.029,110.352 244.961,111.629 244.111,86.101 "/>
<polygon fill="#5C5D5F" points="244.961,111.629 246.458,111.629 245.71,86.739 244.11,86.102 "/>
<polygon fill="#8C8D90" points="65.308,58 65.308,82.25 71.24,83.527 70.39,58 "/>
<polygon fill="#5C5D5F" points="71.24,83.527 72.738,83.527 71.99,58.638 70.39,58 "/>
<polygon fill="#D38542" points="0,53.761 237.749,92.663 238.122,80.022 0.372,44.953 "/>
<polygon fill="#9B6238" points="237.75,92.662 304.259,87.594 304.259,75.67 238.122,80.022 "/>
<polygon fill="#E8954B" points="238.122,80.022 304.258,75.671 50.703,47.508 0.372,44.953 "/>
<g>
	<defs>
		<rect id="SVGID_1_" y="0" width="334.661" height="133.152"/>
	</defs>
	<clipPath id="SVGID_2_">
		<use xlink:href="#SVGID_1_"  overflow="visible"/>
	</clipPath>
	<path clip-path="url(#SVGID_2_)" fill="#C27432" d="M214.05,63.764c-1.294,2.788-4.09,1.819-5.95,1.245
		c-4.496-1.336-6.664-1.9-10.925-0.708c-4.104,1.398-4.916-0.055-8.864,1.338c-1.822,0.69-3.47,2.011-1.408,4.058
		c2.542,2.666,6.063,2.303,8.983,2.421c2.762-0.086,4.449-0.141,7.086,0.621c3.406,0.947,6.663,1.939,10.065,2.677
		c5.724,1.297,11.7,0.896,17.415,1.982c4.477,0.701,9.572,1.596,13.8-0.65c3.022-1.575,1.312-7.108-1.472-7.652
		c-2.16-0.354-5.713-1.048-7.87-1.191c-4.301-0.075-6.471-0.678-10.079-3.099c-2.354-1.615-4.133,0.437-6.733,0.73L214.05,63.764z"
		/>
	<polygon clip-path="url(#SVGID_2_)" fill="#C27432" points="57.017,51.75 107.227,60.075 180.066,61.876 127.718,56.061 	"/>
	<polygon clip-path="url(#SVGID_2_)" fill="#FFB533" points="71.068,53.028 105.476,58 108.781,19.017 70.142,15.521 	"/>
	<polygon clip-path="url(#SVGID_2_)" fill="#FFA226" points="105.476,58 134.861,58 142.624,16.989 108.781,19.016 	"/>
	<polygon clip-path="url(#SVGID_2_)" fill="#FFA226" points="70.142,19.399 108.651,23.257 108.403,24.788 70.339,23.515 	"/>
	<polygon clip-path="url(#SVGID_2_)" fill="#ED921C" points="108.403,24.789 140.616,27.591 141.236,24.109 108.584,21.115 	"/>
	<polygon clip-path="url(#SVGID_2_)" fill="#FFAD26" points="109.882,2.703 108.651,23.258 142.625,25.403 145.507,7.078 	"/>
	<polygon clip-path="url(#SVGID_2_)" fill="#FFBF33" points="68.307,4.71 68.307,20.822 108.651,23.258 109.882,2.703 	"/>
	<polygon clip-path="url(#SVGID_2_)" fill="#FFA226" points="89.051,33.63 94.5,30.699 90.513,36.853 93.26,41.361 88.574,39.672 
		84.208,44.689 85.062,37.688 79.856,36.083 85.707,34.362 86.217,27.437 	"/>
	<polygon clip-path="url(#SVGID_2_)" fill="#ED921C" points="127.58,40.36 123.492,38.161 126.481,42.777 124.423,46.158 
		127.936,44.892 131.212,48.655 130.572,43.404 134.476,42.2 130.089,40.909 129.705,35.714 	"/>
	<polygon clip-path="url(#SVGID_2_)" fill="#ED921C" points="113.831,33.635 110.818,34.643 114.521,35.316 115.241,37.928 
		116.257,35.582 119.67,35.714 116.751,33.571 117.982,31.059 115.28,32.642 112.511,30.398 	"/>
	<path clip-path="url(#SVGID_2_)" fill="#5C5D5F" d="M69.225,78.225c0,0.705-0.571,1.277-1.277,1.277s-1.278-0.572-1.278-1.277
		s0.572-1.276,1.278-1.276S69.225,77.52,69.225,78.225"/>
	<path clip-path="url(#SVGID_2_)" fill="#5C5D5F" d="M242.946,106.326c0,0.705-0.571,1.277-1.277,1.277s-1.278-0.572-1.278-1.277
		s0.572-1.275,1.278-1.275S242.946,105.621,242.946,106.326"/>
	<path clip-path="url(#SVGID_2_)" fill="#5C5D5F" d="M69.225,69.283c0,0.705-0.571,1.276-1.277,1.276s-1.278-0.571-1.278-1.276
		s0.572-1.277,1.278-1.277S69.225,68.578,69.225,69.283"/>
	<path clip-path="url(#SVGID_2_)" fill="#5C5D5F" d="M242.946,96.107c0,0.705-0.571,1.277-1.277,1.277s-1.278-0.572-1.278-1.277
		s0.572-1.276,1.278-1.276S242.946,95.402,242.946,96.107"/>
	<path clip-path="url(#SVGID_2_)" fill="#9D4828" d="M217.042,61.154c0,0-8.697,1.499-13.668,1.391
		c-4.972-0.108-3.642-5.365-8.255-5.754c-4.612-0.39-9.564,5.351-7.685,9.147c1.879,3.796,4.7,7.064,10.186,6.329
		c5.484-0.734,24.321-5.897,24.321-5.897L217.042,61.154z"/>
	<path clip-path="url(#SVGID_2_)" fill="#C0957D" d="M196.709,63.563c-0.437,2.188-1.429,5.009-3.335,4.629
		c-1.906-0.379-4.004-3.814-3.569-6.002s2.335-3.652,4.241-3.272C195.951,59.295,197.146,61.376,196.709,63.563"/>
	<path clip-path="url(#SVGID_2_)" fill="#B45833" d="M218.594,36.274c-7.613-3.499-19.692,11.978-16.825,19.176
		c3.61,8.498,8.054-1.277,8.955-5.376c1.127-4.699,2.44-6.599,5.934-9.4L218.594,36.274z"/>
	<path clip-path="url(#SVGID_2_)" fill="#B45833" d="M216.227,33.547c8.258-9.838,22.049-2.836,26.991,8.527
		c3.175,7.299,4.444,22.984-2.45,28.247c-9.64,7.358-17.416,2.126-24.786-1.521C215.981,68.801,195.237,58.554,216.227,33.547"/>
	<path clip-path="url(#SVGID_2_)" fill="#9D4828" d="M241.639,39.058c-3.187-5.163-8.203-8.977-13.327-9.949
		c-2.854-0.087-5.846,0.311-8.773,1.525c-1.171,0.727-2.283,1.69-3.312,2.913c-1.835,2.189-3.35,4.261-4.587,6.227
		c0.474,3.787,2.288,9.825,8.975,11.167C228.599,52.543,236.853,45.892,241.639,39.058"/>
	<path clip-path="url(#SVGID_2_)" fill="#B45833" d="M212.737,36.403c3.678,11.689,18.391,10.566,26.902,2.36
		c5.465-5.269,10.121-15.408,5.974-22.568c-5.803-10.01-12.372-11.46-20.198-10.943C225.415,5.252,203.39,6.694,212.737,36.403"/>
	<path clip-path="url(#SVGID_2_)" fill="#2E2221" d="M222.357,16.972c-0.045,0.676-0.629,1.189-1.306,1.145
		c-0.674-0.044-1.188-0.626-1.145-1.304c0.044-0.676,0.629-1.188,1.304-1.145C221.886,15.711,222.401,16.295,222.357,16.972"/>
	<path clip-path="url(#SVGID_2_)" fill="#2E2221" d="M231.111,18.166c-0.052,0.795-0.738,1.396-1.532,1.346
		c-0.795-0.052-1.398-0.739-1.345-1.533c0.05-0.795,0.736-1.398,1.529-1.347C230.56,16.684,231.163,17.369,231.111,18.166"/>
	<path clip-path="url(#SVGID_2_)" fill="#C0957D" d="M224.049,19.343c0,0-10.014,0.429-9.403,9.092
		c0.61,8.662,8.168,9.945,8.168,9.945s9.579,2.493,11.966-7.937C237.168,20.014,224.049,19.343,224.049,19.343"/>
	<path clip-path="url(#SVGID_2_)" fill="#B45833" d="M237.439,7.62c0,0,4.754-6.629,11-0.874c7.275,6.704,0.295,13.146-5.104,12.977
		L237.439,7.62z"/>
	<path clip-path="url(#SVGID_2_)" fill="#B45833" d="M224.869,5.797c0,0-4.313-8.426-11.789-4.961
		c-7.413,3.438-0.918,14.613-0.918,14.613L224.869,5.797z"/>
	<path clip-path="url(#SVGID_2_)" fill="#C0957D" d="M239.801,8.716c0,0,4.868,3.509,6.104,7.396c0,0,4.045-1.554,0.742-6.632
		C243.343,4.403,239.801,8.716,239.801,8.716"/>
	<path clip-path="url(#SVGID_2_)" fill="#C0957D" d="M220.483,6.191c0,0-4.923,1.526-6.688,5.38c0,0-3.744-5.455,0.865-7.97
		C219.267,1.086,220.483,6.191,220.483,6.191"/>
	<path clip-path="url(#SVGID_2_)" fill="#211917" d="M217.515,28.923c0,0,2.603,5.683,8.374,1.84
		C225.889,30.763,220.394,36.263,217.515,28.923"/>
	<path clip-path="url(#SVGID_2_)" fill="#B45833" d="M221.939,23.414c0,0-0.601,3.377-0.396,6.087c0,0-0.073-3.954,2.56-6.174
		L221.939,23.414z"/>
	<path clip-path="url(#SVGID_2_)" fill="#041518" d="M220.697,21.48l1.601,3.604c0,0,0.829-2.083,4.783-2.785
		C227.081,22.299,225.3,18.936,220.697,21.48"/>
	<path clip-path="url(#SVGID_2_)" fill="#9D4828" d="M238.217,42.858c0,0,6.828,7.325,6.632,14.015c0,0-2.109,7.025,2.397,7.848
		c4.507,0.824,7.721-5.113,7.097-9.517c-0.627-4.402-6.553-12.837-11.945-15.492C242.397,39.712,238.721,36.867,238.217,42.858"/>
	<path clip-path="url(#SVGID_2_)" fill="#9D4828" d="M239.219,66.852c0,0-1.703,1.171-5.761,0.227
		c-4.49-1.044-3.302-5.296-7.575-5.62c-4.276-0.322-8.957,5.474-7.267,9.231c1.691,3.758,4.201,6.324,9.366,6.166
		C239.919,76.493,239.219,66.852,239.219,66.852"/>
	<path clip-path="url(#SVGID_2_)" fill="#C0957D" d="M228.32,69.497c-1.011,1.987-2.77,4.416-4.689,3.438
		c-1.92-0.975-3.271-4.984-2.262-6.973c1.011-1.988,3.387-2.807,5.305-1.831C228.594,65.108,229.333,67.51,228.32,69.497"/>
	<polygon clip-path="url(#SVGID_2_)" fill="#C27432" points="128.984,60.613 155.447,64.799 180.066,61.876 139.959,57.6 	"/>
	<polygon clip-path="url(#SVGID_2_)" fill="#F2A199" points="134.476,33.531 134.476,60.075 155.447,63.541 157.682,32.476 	"/>
	<polygon clip-path="url(#SVGID_2_)" fill="#ED8177" points="157.682,32.476 176.203,34.52 170.455,61.876 155.447,63.541 	"/>
	<polygon clip-path="url(#SVGID_2_)" fill="#FBE0DD" points="138.743,37.494 153.594,37.494 151.039,58.794 138.743,56.813 	"/>
	<polygon clip-path="url(#SVGID_2_)" fill="#F6C0BB" points="160.556,37.981 172.052,38.547 168.539,58.763 159.199,59.297 	"/>
	<polygon clip-path="url(#SVGID_2_)" fill="#E96255" points="166.931,49.812 167.653,53.007 165.223,51.393 162.75,53.461 
		163.542,50.126 161.294,48.21 164.214,47.763 165.296,44.51 166.309,47.568 169.227,47.474 	"/>
	<polygon clip-path="url(#SVGID_2_)" fill="#E96255" points="145.507,43.31 141.236,50.016 148.261,51.75 	"/>
</g>
<rect y="0" fill="none" width="334.661" height="133.152"/>
</svg>
