<?xml version="1.0" encoding="utf-8"?>
<!-- Generator: Adobe Illustrator 15.1.0, SVG Export Plug-In  -->
<!DOCTYPE svg PUBLIC "-//W3C//DTD SVG 1.1//EN" "http://www.w3.org/Graphics/SVG/1.1/DTD/svg11.dtd" [
	<!ENTITY ns_flows "http://ns.adobe.com/Flows/1.0/">
]>
<svg version="1.1"
	 xmlns="http://www.w3.org/2000/svg" xmlns:xlink="http://www.w3.org/1999/xlink" xmlns:a="http://ns.adobe.com/AdobeSVGViewerExtensions/3.0/"
	 x="0px" y="0px" width="217px" height="85px" viewBox="-2.876 -3.071 217 85" enable-background="new -2.876 -3.071 217 85"
	 xml:space="preserve">
<defs>
</defs>
<path fill="#cdebed" d="M105.677,77.992c6.267,0,11.973-2.351,16.332-6.19h89.239c0-12.58-10.198-22.779-22.778-22.779h-4.676
	c0-8.358-6.777-15.135-15.136-15.135s-15.138,6.777-15.138,15.135h-23.498c-1.877-10.86-10.811-19.294-21.924-20.376
	C104.743,12.297,90.275,0,72.933,0c-14.99,0-27.83,9.19-33.204,22.242c-1.641-0.432-3.354-0.683-5.132-0.683
	c-11.142,0-20.176,9.033-20.176,20.177c0,2.945,0.646,5.736,1.781,8.259C6.831,52.818,0,61.509,0,71.802h72.904h0.028h0.029h16.383
	C93.703,75.642,99.409,77.992,105.677,77.992"/>
</svg>
