<?xml version="1.0" encoding="utf-8"?>
<!-- Generator: Adobe Illustrator 15.1.0, SVG Export Plug-In  -->
<!DOCTYPE svg PUBLIC "-//W3C//DTD SVG 1.1//EN" "http://www.w3.org/Graphics/SVG/1.1/DTD/svg11.dtd" [
	<!ENTITY ns_flows "http://ns.adobe.com/Flows/1.0/">
]>
<svg version="1.1"
	 xmlns="http://www.w3.org/2000/svg" xmlns:xlink="http://www.w3.org/1999/xlink" xmlns:a="http://ns.adobe.com/AdobeSVGViewerExtensions/3.0/"
	 x="0px" y="0px" width="222px" height="88px" viewBox="-5.935 -5.12 222 88" enable-background="new -5.935 -5.12 222 88"
	 xml:space="preserve">
<defs>
</defs>
<path fill="#cdebed" d="M138.314,71.799h0.029h72.904c0-10.293-6.831-18.981-16.203-21.806c1.137-2.524,1.782-5.313,1.782-8.26
	c0-11.144-9.034-20.177-20.177-20.177c-1.777,0-3.489,0.254-5.131,0.683C166.144,9.188,153.305,0,138.314,0
	c-17.342,0-31.811,12.295-35.165,28.645c-11.112,1.08-20.046,9.517-21.924,20.375H57.727c0-8.361-6.778-15.136-15.137-15.136
	c-8.359,0-15.136,6.774-15.136,15.136h-4.677C10.198,49.021,0,59.218,0,71.799h89.24c4.359,3.841,10.065,6.19,16.332,6.19
	c6.268,0,11.973-2.35,16.331-6.19h16.384H138.314z"/>
</svg>
