<?xml version="1.0" encoding="utf-8"?>
<!-- Generator: Adobe Illustrator 15.1.0, SVG Export Plug-In  -->
<!DOCTYPE svg PUBLIC "-//W3C//DTD SVG 1.1//EN" "http://www.w3.org/Graphics/SVG/1.1/DTD/svg11.dtd" [
	<!ENTITY ns_flows "http://ns.adobe.com/Flows/1.0/">
]>
<svg version="1.1"
	 xmlns="http://www.w3.org/2000/svg" xmlns:xlink="http://www.w3.org/1999/xlink" xmlns:a="http://ns.adobe.com/AdobeSVGViewerExtensions/3.0/"
	 x="0px" y="0px" width="964px" height="485px" viewBox="2 -1 964 485" enable-background="new 2 -1 964 485" xml:space="preserve">
<defs>
</defs>
<g>
	<defs>
		<rect id="SVGID_1_" x="0" width="968" height="484"/>
	</defs>
	<clipPath id="SVGID_2_">
		<use xlink:href="#SVGID_1_"  overflow="visible"/>
	</clipPath>
	<path clip-path="url(#SVGID_2_)" fill="#F9FCFC" d="M853.962,293.702h-3.434c0-0.731-0.977-4.602-20.242-8.938l-2.004-0.451
		l0.802-1.892c0.772-1.827,1.163-3.769,1.163-5.771c0-8.169-6.645-14.816-14.815-14.816c-7.333,0-13.48,5.262-14.616,12.509
		l-0.636,4.053l-2.439-3.298c-1.842-2.485-4.66-3.912-7.73-3.912c-1.494,0-2.938,0.344-4.293,1.021l-2.639,1.319l0.183-3.352
		c0.017-0.229,0.034-0.464,0.034-0.701c0-11.695-9.517-21.209-21.209-21.209c-1.893,0-3.818,0.27-5.721,0.804l-1.646,0.461
		l-0.469-1.642c-4.231-14.802-17.931-25.14-33.317-25.14c-17.91,0-33.076,13.98-34.532,31.83l-0.21,2.588l-2.3-1.21
		c-3.713-1.951-7.979-1.851-11.599,0.24l-1.287,0.743l-0.921-1.169c-3.756-4.771-9.373-7.507-15.415-7.507
		c-10.819,0-19.621,8.803-19.621,19.622c0,1.278,0.129,2.575,0.383,3.855l0.771,3.878l-3.359-2.085
		c-2.348-1.457-5.335-2.26-8.406-2.26c-3.711,0-7.258,1.176-9.736,3.229l-1.465,1.211l-1.056-1.579
		c-1.899-2.839-5.066-4.534-8.472-4.534c-4.604,0-8.647,3.112-9.831,7.568l-0.378,1.424l-1.731-0.192
		c-0.1-0.012-0.199-0.03-0.3-0.03c-3.002,0-5.441,2.343-5.441,5.225c0,0.447,0.082,0.92,0.261,1.489l0.507,1.629l-1.626,0.519
		c-10.425,3.316-10.954,5.974-10.954,6.472h-3.433c0-3.541,3.779-6.498,11.863-9.256c-0.034-0.288-0.051-0.572-0.051-0.853
		c0-4.617,3.724-8.402,8.396-8.646c1.986-5.232,7.032-8.781,12.718-8.781c3.953,0,7.664,1.707,10.233,4.636
		c2.936-1.921,6.595-2.964,10.495-2.964c2.507,0,4.982,0.453,7.214,1.3c-0.023-0.419-0.036-0.838-0.036-1.255
		c0-12.714,10.344-23.056,23.056-23.056c6.623,0,12.814,2.796,17.194,7.722c3.585-1.67,7.667-1.889,11.383-0.606
		c2.682-18.479,18.796-32.631,37.687-32.631c16.356,0,30.981,10.631,36.129,26.05c1.673-0.353,3.358-0.532,5.024-0.532
		c13.156,0,23.936,10.361,24.607,23.353c3.935-1.044,8.341-0.076,11.508,2.48c2.489-7.266,9.295-12.262,17.23-12.262
		c10.063,0,18.249,8.187,18.249,18.249c0,1.779-0.252,3.523-0.751,5.202C851.733,286.328,853.962,290.739,853.962,293.702"/>
	<path clip-path="url(#SVGID_2_)" fill="#F9FCFC" d="M896.341,201.695c-0.004-0.015-0.524-1.59-7.592-3.485l-2.117-0.569
		l1.059-1.917c0.189-0.345,0.286-0.688,0.286-1.02c0-1.387-1.369-2.514-3.052-2.514l-0.236,0.027l-2.229,0.157l0.423-2.193
		c0.129-0.661,0.188-1.279,0.188-1.888c0-5.697-4.852-10.334-10.818-10.334c-5.037,0-9.364,3.273-10.52,7.958l-0.91,3.695
		l-2.167-3.129c-1.214-1.75-3.061-2.756-5.072-2.756c-0.556,0-1.137,0.104-1.829,0.327l-2.29,0.742l0.058-2.679
		c0.007-10.109-7.386-18.245-16.471-18.245c-7.029,0-13.285,4.927-15.571,12.257l-0.535,1.717l-1.689-0.613
		c-1.045-0.379-2.118-0.57-3.186-0.57c-5.39,0-9.777,4.609-9.777,10.276c0,1.702,0.388,3.325,1.149,4.827l1.16,2.285l-2.555,0.205
		c-3.618,0.287-7.067,0.626-10.25,1.008l-1.623,0.195l-0.273-1.61c-0.368-2.151-3.136-3.837-6.303-3.837
		c-3.456,0-6.377,1.973-6.377,4.308c0,0.36,0.1,0.755,0.301,1.207l0.852,1.879l-2.003,0.495c-8.201,2.028-8.786,3.778-8.789,3.795
		l-3.434-0.014c0-2.748,3.004-4.829,9.684-6.667c-0.028-0.231-0.044-0.463-0.044-0.695c0-4.268,4.401-7.741,9.811-7.741
		c4.248,0,7.851,2.072,9.205,5.112c2.124-0.241,4.354-0.462,6.661-0.666c-0.398-1.319-0.604-2.7-0.604-4.086
		c0-7.56,5.926-13.711,13.21-13.711c0.901,0,1.801,0.099,2.69,0.294c3.112-7.89,10.278-13.083,18.291-13.083
		c10.456,0,19.052,8.774,19.85,19.884c2.388-0.209,4.659,0.563,6.508,2.006c2.324-4.707,7.255-7.804,12.844-7.804
		c7.859,0,14.253,6.175,14.253,13.767c0,0.213-0.008,0.424-0.018,0.637c2.823,0.644,4.922,2.988,4.922,5.773
		c0,0.229-0.015,0.456-0.046,0.682c5.727,1.744,8.409,3.762,8.409,6.295h-3.434C896.339,201.688,896.341,201.693,896.341,201.695"/>
	<path clip-path="url(#SVGID_2_)" fill="#F9FCFC" d="M118.03,187.864h3.434c0-0.731,0.977-4.603,20.242-8.938l2.003-0.451
		l-0.8-1.892c-0.772-1.827-1.165-3.768-1.165-5.771c0-8.168,6.646-14.816,14.817-14.816c7.333,0,13.48,5.26,14.615,12.509
		l0.636,4.053l2.439-3.298c1.843-2.485,4.661-3.912,7.731-3.912c1.494,0,2.938,0.343,4.292,1.02l2.639,1.319l-0.183-3.351
		c-0.017-0.23-0.033-0.464-0.033-0.702c0-11.694,9.516-21.209,21.208-21.209c1.893,0,3.819,0.271,5.721,0.805l1.646,0.461
		l0.469-1.641c4.232-14.803,17.931-25.141,33.316-25.141c17.91,0,33.076,13.979,34.533,31.83l0.21,2.588l2.299-1.21
		c3.714-1.951,7.98-1.851,11.599,0.24l1.288,0.743l0.921-1.168c3.756-4.771,9.372-7.507,15.415-7.507
		c10.82,0,19.622,8.803,19.622,19.622c0,1.279-0.13,2.575-0.383,3.856l-0.771,3.876l3.358-2.084
		c2.349-1.457,5.337-2.259,8.408-2.259c3.711,0,7.257,1.176,9.736,3.229l1.463,1.211l1.057-1.58
		c1.899-2.838,5.065-4.534,8.472-4.534c4.602,0,8.646,3.112,9.83,7.568l0.378,1.424l1.73-0.192c0.099-0.012,0.2-0.03,0.3-0.03
		c3.001,0,5.441,2.342,5.441,5.224c0,0.448-0.083,0.92-0.261,1.489l-0.507,1.629l1.626,0.518
		c10.426,3.317,10.954,5.975,10.954,6.473h3.433c0-3.542-3.779-6.499-11.863-9.256c0.035-0.29,0.051-0.573,0.051-0.853
		c0-4.618-3.724-8.402-8.397-8.646c-1.986-5.232-7.031-8.781-12.716-8.781c-3.954,0-7.665,1.707-10.234,4.636
		c-2.935-1.92-6.595-2.964-10.495-2.964c-2.508,0-4.983,0.453-7.214,1.3c0.023-0.419,0.036-0.838,0.036-1.255
		c0-12.713-10.343-23.056-23.055-23.056c-6.623,0-12.814,2.797-17.195,7.722c-3.585-1.669-7.667-1.888-11.382-0.605
		c-2.681-18.479-18.797-32.631-37.688-32.631c-16.355,0-30.98,10.631-36.128,26.049c-1.674-0.352-3.359-0.532-5.025-0.532
		c-13.155,0-23.935,10.362-24.607,23.353c-3.934-1.044-8.341-0.077-11.509,2.48c-2.488-7.265-9.294-12.262-17.229-12.262
		c-10.064,0-18.25,8.187-18.25,18.249c0,1.779,0.251,3.524,0.752,5.203C120.259,180.49,118.03,184.901,118.03,187.864"/>
	<path clip-path="url(#SVGID_2_)" fill="#F9FCFC" d="M75.651,95.857c0.004-0.015,0.524-1.59,7.592-3.486l2.117-0.568l-1.058-1.918
		c-0.189-0.345-0.286-0.688-0.286-1.02c0-1.387,1.368-2.515,3.052-2.515l0.237,0.027l2.228,0.157l-0.422-2.193
		c-0.128-0.66-0.189-1.278-0.189-1.887c0-5.698,4.852-10.334,10.819-10.334c5.037,0,9.364,3.273,10.52,7.957l0.911,3.695
		l2.167-3.129c1.214-1.75,3.062-2.756,5.072-2.756c0.555,0,1.137,0.104,1.829,0.328l2.29,0.742l-0.057-2.679
		c-0.007-10.109,7.385-18.244,16.47-18.244c7.03,0,13.286,4.926,15.572,12.257l0.534,1.717l1.69-0.613
		c1.046-0.379,2.119-0.571,3.187-0.571c5.39,0,9.776,4.609,9.776,10.277c0,1.701-0.387,3.325-1.148,4.827l-1.162,2.285l2.555,0.205
		c3.619,0.287,7.068,0.626,10.251,1.008l1.622,0.195l0.275-1.611c0.367-2.151,3.134-3.836,6.301-3.836
		c3.456,0,6.378,1.973,6.378,4.308c0,0.361-0.1,0.755-0.302,1.207l-0.852,1.879l2.005,0.495c8.201,2.028,8.785,3.778,8.789,3.795
		l3.434-0.014c0-2.747-3.003-4.829-9.683-6.667c0.028-0.231,0.043-0.463,0.043-0.695c0-4.268-4.401-7.741-9.811-7.741
		c-4.248,0-7.85,2.073-9.205,5.112c-2.124-0.241-4.354-0.462-6.661-0.665c0.398-1.32,0.605-2.7,0.605-4.086
		c0-7.561-5.926-13.712-13.21-13.712c-0.902,0-1.802,0.099-2.691,0.294c-3.112-7.89-10.278-13.082-18.291-13.082
		c-10.455,0-19.052,8.774-19.849,19.884c-2.388-0.209-4.66,0.563-6.507,2.006c-2.325-4.707-7.255-7.804-12.845-7.804
		c-7.859,0-14.252,6.175-14.252,13.767c0,0.213,0.007,0.425,0.017,0.637c-2.823,0.644-4.922,2.989-4.922,5.773
		c0,0.229,0.015,0.456,0.046,0.682c-5.727,1.744-8.409,3.762-8.409,6.296h3.433C75.653,95.85,75.651,95.855,75.651,95.857"/>
	<path clip-path="url(#SVGID_2_)" fill="#FFFFFF" d="M454.396,274.784c2.533-1.827,4.04-4.107,4.04-6.585
		c0-6.021-8.902-10.903-19.885-10.903c-10.267,0-18.715,4.269-19.774,9.742c-3.797-0.406-7.993-0.635-12.407-0.635
		c-16.244,0-29.553,3.061-30.822,6.944c-9.026,0.023-16.324,2.59-16.324,5.756c0,0.559,0.238,1.095,0.661,1.606
		c-11.072,0.399-19.567,2.666-19.567,5.41c0,2.748,8.495,5.013,19.566,5.411c-4.111,1.813-6.602,4.036-6.803,6.446
		c-13.14,0.878-22.714,3.589-22.714,6.799c0,3.734,12.949,6.791,29.394,7.076c-0.346,0.421-0.53,0.864-0.53,1.321
		c0,2.856,7.164,5.171,16.001,5.171c8.838,0,16.002-2.314,16.002-5.171c0-1.358-1.64-2.589-4.294-3.512
		c0.349,0.004,0.697,0.009,1.046,0.009c8.487,0,16.265-0.986,22.318-2.626c2.928,0.603,6.519,0.961,10.405,0.961
		c9.853,0,17.842-2.287,17.842-5.102c0-0.131-0.024-0.261-0.057-0.387c10.208-1.772,16.702-4.431,16.702-7.405
		c0-0.011-0.005-0.021-0.005-0.033c21.646-0.396,38.703-4.782,38.703-10.139C493.894,279.518,476.418,275.087,454.396,274.784"/>
	<path clip-path="url(#SVGID_2_)" fill="#FFFFFF" d="M375.44,264.97c0-2.784-9.366-5.104-21.753-5.608
		c0.445-0.663,0.683-1.354,0.683-2.07c0-4.624-9.933-8.375-22.188-8.375c-12.255,0-22.191,3.751-22.191,8.375
		c0,3.216,4.806,6.008,11.849,7.411c-0.019,0.089-0.031,0.178-0.031,0.268c0,3.153,12.005,5.711,26.815,5.711
		C363.434,270.681,375.44,268.123,375.44,264.97"/>
	<path clip-path="url(#SVGID_2_)" fill="#FFFFFF" d="M271.876,65.955c0-2.787-9.366-5.104-21.753-5.609
		c0.446-0.663,0.683-1.354,0.683-2.07c0-4.625-9.933-8.375-22.188-8.375c-12.256,0-22.191,3.75-22.191,8.375
		c0,3.217,4.806,6.007,11.85,7.41c-0.019,0.088-0.031,0.18-0.031,0.27c0,3.152,12.004,5.711,26.815,5.711
		C259.871,71.666,271.876,69.107,271.876,65.955"/>
	<path clip-path="url(#SVGID_2_)" fill="#FFFFFF" d="M670.887,213.188c0-2.785-9.365-5.104-21.753-5.609
		c0.446-0.662,0.684-1.353,0.684-2.069c0-4.625-9.934-8.375-22.188-8.375s-22.19,3.75-22.19,8.375c0,3.215,4.807,6.007,11.85,7.41
		c-0.02,0.088-0.031,0.179-0.031,0.268c0,3.154,12.005,5.711,26.815,5.711C658.882,218.899,670.887,216.342,670.887,213.188"/>
	<path clip-path="url(#SVGID_2_)" fill="#FFFFFF" d="M510.618,243.973c0.158-0.352,0.249-0.715,0.249-1.094
		c0-2.605-4.019-4.718-8.979-4.718c-4.403,0-8.061,1.668-8.824,3.866h-0.155c-13.188,0-23.879,2.646-23.879,5.907
		c0,3.264,10.691,5.907,23.879,5.907c13.189,0,23.882-2.644,23.882-5.907C516.791,246.409,514.453,245.019,510.618,243.973"/>
	<path clip-path="url(#SVGID_2_)" fill="#FFFFFF" d="M300.447,279.105c-9.05,0-16.388,2.06-16.388,4.604
		c0,2.54,7.337,4.602,16.388,4.602s16.387-2.062,16.387-4.602C316.833,281.165,309.497,279.105,300.447,279.105"/>
	<path clip-path="url(#SVGID_2_)" fill="#FFFFFF" d="M589.282,68.163c-3.81-2.748-6.075-6.178-6.075-9.902
		c0-9.055,13.388-16.396,29.902-16.396c15.438,0,28.143,6.418,29.735,14.65c5.712-0.612,12.021-0.955,18.658-0.955
		c24.428,0,44.441,4.603,46.35,10.443c13.572,0.035,24.547,3.895,24.547,8.654c0,0.839-0.359,1.647-0.994,2.417
		c16.649,0.603,29.424,4.009,29.424,8.136c0,4.131-12.774,7.538-29.422,8.139c6.181,2.725,9.926,6.066,10.229,9.691
		c19.758,1.32,34.156,5.398,34.156,10.225c0,5.613-19.471,10.209-44.202,10.641c0.52,0.632,0.798,1.298,0.798,1.987
		c0,4.295-10.772,7.775-24.063,7.775c-13.291,0-24.063-3.48-24.063-7.775c0-2.044,2.464-3.894,6.456-5.282
		c-0.523,0.006-1.047,0.013-1.574,0.013c-12.761,0-24.458-1.481-33.559-3.949c-4.404,0.907-9.804,1.445-15.648,1.445
		c-14.815,0-26.829-3.438-26.829-7.671c0-0.196,0.036-0.391,0.085-0.581c-15.349-2.665-25.114-6.663-25.114-11.136
		c0-0.015,0.006-0.031,0.006-0.049c-32.548-0.596-58.198-7.192-58.198-15.246C529.887,75.281,556.167,68.619,589.282,68.163"/>
	<path clip-path="url(#SVGID_2_)" fill="#FFFFFF" d="M708.013,53.405c0-4.189,14.084-7.675,32.711-8.436
		c-0.67-0.996-1.028-2.035-1.028-3.112c0-6.954,14.938-12.594,33.366-12.594c18.43,0,33.37,5.64,33.37,12.594
		c0,4.836-7.229,9.035-17.819,11.144c0.03,0.132,0.047,0.269,0.047,0.404c0,4.741-18.053,8.587-40.323,8.587
		S708.013,58.146,708.013,53.405"/>
	<path clip-path="url(#SVGID_2_)" fill="#FFFFFF" d="M504.738,21.83c-0.236-0.529-0.375-1.077-0.375-1.644
		c0-3.918,6.044-7.096,13.502-7.096c6.622,0,12.12,2.51,13.271,5.813h0.232c19.832,0,35.909,3.979,35.909,8.882
		c0,4.909-16.077,8.884-35.909,8.884c-19.834,0-35.911-3.975-35.911-8.884C495.457,25.494,498.971,23.402,504.738,21.83"/>
	<path clip-path="url(#SVGID_2_)" fill="#FFFFFF" d="M820.785,74.661c13.609,0,24.644,3.099,24.644,6.922
		c0,3.82-11.034,6.921-24.644,6.921s-24.641-3.101-24.641-6.921C796.144,77.759,807.175,74.661,820.785,74.661"/>
	<path clip-path="url(#SVGID_2_)" fill="#FFFFFF" d="M89.354,309.627c13.609,0,24.643,3.098,24.643,6.922
		c0,3.819-11.033,6.92-24.643,6.92c-13.61,0-24.641-3.101-24.641-6.92C64.713,312.725,75.745,309.627,89.354,309.627"/>
	<path clip-path="url(#SVGID_2_)" fill="#FFFFFF" d="M263.51,30.393c8.481,0,15.356,1.931,15.356,4.313
		c0,2.38-6.875,4.313-15.356,4.313c-8.48,0-15.354-1.933-15.354-4.313C248.156,32.324,255.03,30.393,263.51,30.393"/>
	<path clip-path="url(#SVGID_2_)" fill="#F29496" d="M362.78,323.56c0.019-0.045,0.039-0.089,0.059-0.136
		c0.044-0.1,0.088-0.199,0.133-0.297c0.022-0.051,0.046-0.101,0.069-0.149c0.043-0.095,0.085-0.188,0.129-0.279
		c0.02-0.045,0.042-0.092,0.063-0.135c0.051-0.108,0.103-0.217,0.155-0.321c0.01-0.022,0.022-0.049,0.034-0.071
		c0.063-0.126,0.124-0.248,0.186-0.368c0.018-0.035,0.036-0.067,0.054-0.102c0.043-0.085,0.086-0.167,0.128-0.245
		c0.022-0.042,0.043-0.082,0.064-0.121c0.041-0.072,0.078-0.142,0.118-0.21c0.021-0.038,0.041-0.076,0.062-0.11
		c0.042-0.074,0.083-0.144,0.122-0.211c0.018-0.027,0.034-0.057,0.049-0.083c0.038-0.062,0.074-0.118,0.109-0.176
		c-0.577-2.332-2.516-8.75-6.034-7.14c0,0-10.945,4.74,2.226,9.225c-2.337-0.199-5.273-0.024-5.999,1.948
		c0,0-1.272,4.609,7.965-0.287c0.04-0.097,0.077-0.19,0.117-0.286C362.652,323.854,362.716,323.705,362.78,323.56"/>
	<path clip-path="url(#SVGID_2_)" fill="#F4A7AA" d="M374.54,320.229c-1.315-3.641-7.252-0.526-9.32,0.695
		c-0.017,0.065-0.032,0.131-0.049,0.2c-0.008,0.031-0.019,0.063-0.025,0.095c-0.02,0.075-0.042,0.153-0.065,0.233
		c-0.01,0.04-0.021,0.081-0.035,0.123c-0.021,0.076-0.045,0.151-0.068,0.229c-0.013,0.044-0.027,0.088-0.041,0.135
		c-0.027,0.084-0.056,0.172-0.084,0.262c-0.011,0.036-0.023,0.073-0.035,0.111c-0.042,0.127-0.087,0.256-0.134,0.389
		c-0.008,0.024-0.016,0.049-0.026,0.074c-0.039,0.11-0.078,0.222-0.12,0.336c-0.017,0.046-0.035,0.093-0.053,0.141
		c-0.034,0.095-0.071,0.189-0.108,0.286c-0.019,0.052-0.038,0.103-0.058,0.154c-0.041,0.1-0.079,0.2-0.121,0.304
		c-0.018,0.046-0.036,0.09-0.055,0.137c-0.059,0.148-0.12,0.297-0.183,0.449c-0.04,0.094-0.082,0.188-0.121,0.282
		c2.976,10.022,5.373,5.884,5.373,5.884c0.898-1.899-1.033-4.115-2.811-5.645C378.827,331.357,374.54,320.229,374.54,320.229"/>
	<path clip-path="url(#SVGID_2_)" fill="#9B7C50" d="M368.411,316.495c-0.272-0.116-0.587,0.014-0.701,0.286
		c-0.032,0.076-0.043,0.157-0.039,0.235c-0.911,0.361-1.734,1.39-2.257,2.175c0.194-0.924,0.351-2.23-0.029-3.134
		c0.058-0.053,0.107-0.115,0.14-0.193c0.115-0.271-0.015-0.586-0.287-0.701c-0.272-0.114-0.586,0.015-0.701,0.287
		c-0.114,0.273,0.015,0.587,0.286,0.701c0.088,0.037,0.178,0.046,0.267,0.035c0.426,1.01,0.091,2.665-0.125,3.497
		c-0.036,0.031-0.073,0.072-0.114,0.117c-0.017,0.017-0.033,0.036-0.049,0.056c-0.026,0.031-0.056,0.063-0.083,0.1
		c-0.02,0.025-0.038,0.049-0.057,0.075c-0.029,0.038-0.058,0.078-0.086,0.12c-0.019,0.025-0.039,0.052-0.059,0.082
		c-0.035,0.051-0.072,0.106-0.107,0.161c-0.016,0.024-0.031,0.045-0.046,0.068c-0.016,0.026-0.034,0.057-0.05,0.082
		c-0.036,0.058-0.071,0.114-0.109,0.176c-0.017,0.026-0.032,0.056-0.049,0.083c-0.04,0.067-0.081,0.137-0.122,0.211
		c-0.022,0.034-0.042,0.072-0.063,0.11c-0.039,0.068-0.077,0.138-0.116,0.21c-0.021,0.039-0.043,0.079-0.065,0.121
		c-0.042,0.078-0.085,0.16-0.129,0.245c-0.018,0.034-0.035,0.066-0.053,0.102c-0.063,0.12-0.124,0.242-0.187,0.368
		c-0.011,0.022-0.022,0.049-0.033,0.071c-0.052,0.104-0.104,0.213-0.155,0.321c-0.021,0.043-0.043,0.09-0.063,0.135
		c-0.044,0.092-0.086,0.185-0.13,0.279c-0.022,0.049-0.045,0.099-0.068,0.149c-0.044,0.098-0.089,0.197-0.134,0.297
		c-0.019,0.047-0.04,0.091-0.059,0.136c-0.064,0.146-0.127,0.294-0.19,0.445c-0.04,0.096-0.078,0.189-0.117,0.286
		c-1.022,2.492-1.551,4.589-1.187,4.743c0.364,0.152,1.489-1.694,2.553-4.171c0.04-0.094,0.082-0.188,0.122-0.282
		c0.063-0.152,0.125-0.301,0.183-0.449c0.019-0.045,0.037-0.091,0.056-0.137c0.041-0.104,0.08-0.204,0.12-0.304
		c0.021-0.052,0.04-0.103,0.059-0.154c0.038-0.097,0.074-0.191,0.108-0.286c0.018-0.048,0.035-0.095,0.053-0.141
		c0.042-0.114,0.08-0.226,0.12-0.336c0.01-0.025,0.018-0.05,0.026-0.074c0.046-0.133,0.091-0.262,0.134-0.389
		c0.011-0.038,0.023-0.075,0.035-0.111c0.028-0.09,0.057-0.178,0.084-0.262c0.015-0.047,0.028-0.091,0.041-0.135
		c0.022-0.077,0.046-0.152,0.068-0.229c0.013-0.042,0.025-0.083,0.035-0.123c0.023-0.08,0.045-0.158,0.065-0.233
		c0.007-0.031,0.017-0.063,0.025-0.095c0.018-0.069,0.033-0.135,0.049-0.2c0.007-0.029,0.015-0.063,0.021-0.092
		c0.006-0.028,0.012-0.053,0.018-0.08c0.015-0.066,0.027-0.131,0.04-0.191c0.005-0.033,0.012-0.066,0.017-0.099
		c0.01-0.052,0.018-0.101,0.025-0.147c0.005-0.03,0.008-0.062,0.013-0.092c0.005-0.046,0.009-0.088,0.014-0.129
		c0.001-0.026,0.004-0.052,0.005-0.074c0.004-0.06,0.005-0.115,0.004-0.164c0.442-0.736,1.388-2.136,2.407-2.538
		c0.055,0.07,0.125,0.128,0.211,0.165c0.273,0.114,0.588-0.013,0.703-0.286C368.813,316.923,368.683,316.608,368.411,316.495"/>
	<path clip-path="url(#SVGID_2_)" fill="#ED9806" d="M347.835,336.082c-0.013-0.025-0.028-0.051-0.041-0.077
		c-0.032-0.057-0.063-0.114-0.093-0.17c-0.015-0.029-0.03-0.058-0.045-0.085c-0.029-0.055-0.059-0.108-0.084-0.163
		c-0.014-0.026-0.027-0.053-0.041-0.078c-0.033-0.064-0.063-0.126-0.095-0.188c-0.006-0.015-0.015-0.029-0.02-0.043
		c-0.037-0.072-0.072-0.147-0.106-0.22c-0.011-0.021-0.019-0.042-0.03-0.062c-0.024-0.051-0.046-0.101-0.067-0.148
		c-0.012-0.026-0.023-0.052-0.034-0.075c-0.02-0.044-0.038-0.088-0.057-0.13c-0.01-0.023-0.02-0.048-0.029-0.07
		c-0.019-0.047-0.038-0.091-0.054-0.134c-0.007-0.017-0.016-0.035-0.021-0.052c-0.017-0.041-0.03-0.077-0.044-0.115
		c-1.306-0.57-5.024-1.977-5.537,0.26c0,0-1.724,6.861,5.143,2.284c-0.937,1.027-1.916,2.473-1.25,3.526
		c0,0,1.708,2.263,2.741-3.851c-0.03-0.054-0.061-0.104-0.093-0.159C347.927,336.247,347.88,336.165,347.835,336.082"/>
	<path clip-path="url(#SVGID_2_)" fill="#F9B356" d="M350.516,329.347c-2.188-0.696-2.867,3.222-3.04,4.637
		c0.026,0.03,0.051,0.063,0.077,0.095c0.012,0.014,0.023,0.03,0.034,0.045c0.03,0.038,0.059,0.076,0.088,0.115
		c0.015,0.021,0.03,0.041,0.044,0.061c0.027,0.038,0.055,0.076,0.084,0.116c0.015,0.022,0.031,0.044,0.047,0.066
		c0.031,0.044,0.063,0.089,0.093,0.134c0.014,0.02,0.026,0.038,0.04,0.058c0.045,0.066,0.089,0.133,0.136,0.203
		c0.008,0.013,0.016,0.027,0.026,0.04c0.037,0.059,0.076,0.116,0.114,0.177c0.016,0.025,0.032,0.05,0.047,0.075
		c0.032,0.051,0.064,0.103,0.096,0.154c0.018,0.028,0.034,0.055,0.052,0.083c0.033,0.056,0.065,0.11,0.099,0.166
		c0.015,0.026,0.03,0.05,0.044,0.075c0.049,0.082,0.097,0.165,0.144,0.249c0.031,0.053,0.061,0.106,0.09,0.159
		c5.79,2.22,4.71-0.402,4.71-0.402c-0.569-1.109-2.31-1.001-3.672-0.716C357.298,331.35,350.516,329.347,350.516,329.347"/>
	<path clip-path="url(#SVGID_2_)" fill="#9B7C50" d="M346.545,330.882c-0.151,0.088-0.205,0.28-0.117,0.434
		c0.023,0.043,0.058,0.077,0.095,0.104c-0.159,0.559,0.029,1.318,0.208,1.847c-0.364-0.424-0.923-0.971-1.485-1.118
		c-0.002-0.046-0.016-0.092-0.039-0.136c-0.087-0.152-0.281-0.206-0.434-0.118c-0.152,0.087-0.206,0.279-0.118,0.434
		c0.087,0.152,0.282,0.204,0.434,0.118c0.049-0.029,0.086-0.067,0.114-0.112c0.627,0.163,1.285,0.918,1.599,1.319
		c0.002,0.03,0.007,0.062,0.013,0.098c0.002,0.014,0.006,0.028,0.009,0.043c0.006,0.023,0.011,0.049,0.018,0.074
		c0.005,0.019,0.01,0.036,0.015,0.054c0.007,0.028,0.015,0.056,0.024,0.086c0.005,0.019,0.01,0.037,0.017,0.056
		c0.012,0.035,0.024,0.072,0.038,0.11c0.005,0.016,0.01,0.03,0.017,0.046c0.005,0.017,0.012,0.035,0.019,0.053
		c0.014,0.038,0.027,0.074,0.043,0.115c0.006,0.017,0.015,0.035,0.022,0.052c0.017,0.043,0.036,0.087,0.054,0.134
		c0.01,0.022,0.02,0.047,0.03,0.07c0.019,0.042,0.037,0.086,0.057,0.13c0.011,0.023,0.022,0.049,0.035,0.075
		c0.021,0.048,0.043,0.098,0.067,0.148c0.01,0.02,0.02,0.041,0.03,0.062c0.034,0.072,0.069,0.147,0.106,0.22
		c0.005,0.014,0.014,0.027,0.02,0.043c0.031,0.063,0.062,0.124,0.095,0.188c0.013,0.025,0.027,0.052,0.04,0.078
		c0.027,0.055,0.056,0.108,0.085,0.163c0.014,0.027,0.03,0.056,0.045,0.085c0.031,0.056,0.062,0.113,0.093,0.17
		c0.013,0.026,0.027,0.052,0.041,0.077c0.045,0.083,0.093,0.165,0.14,0.25c0.032,0.055,0.063,0.105,0.093,0.159
		c0.805,1.38,1.599,2.387,1.802,2.271c0.203-0.117-0.259-1.313-1.04-2.708c-0.029-0.053-0.059-0.106-0.089-0.159
		c-0.047-0.084-0.096-0.167-0.144-0.249c-0.015-0.023-0.029-0.049-0.044-0.075c-0.033-0.056-0.066-0.11-0.099-0.166
		c-0.018-0.028-0.034-0.055-0.052-0.083c-0.032-0.052-0.064-0.104-0.096-0.154c-0.015-0.025-0.03-0.05-0.047-0.075
		c-0.038-0.061-0.077-0.118-0.113-0.177c-0.01-0.013-0.018-0.027-0.026-0.04c-0.047-0.07-0.091-0.137-0.136-0.203
		c-0.014-0.02-0.025-0.038-0.039-0.058c-0.031-0.045-0.063-0.09-0.094-0.134c-0.016-0.022-0.032-0.044-0.047-0.066
		c-0.029-0.04-0.058-0.078-0.084-0.116c-0.015-0.02-0.029-0.039-0.045-0.061c-0.029-0.039-0.058-0.077-0.087-0.115
		c-0.011-0.015-0.022-0.031-0.034-0.045c-0.026-0.032-0.052-0.064-0.077-0.095c-0.011-0.015-0.023-0.03-0.036-0.045
		c-0.01-0.013-0.02-0.024-0.03-0.036c-0.026-0.031-0.051-0.061-0.077-0.088c-0.012-0.016-0.026-0.03-0.04-0.044
		c-0.021-0.023-0.042-0.046-0.06-0.065c-0.013-0.015-0.025-0.026-0.039-0.039c-0.02-0.019-0.038-0.037-0.056-0.054
		c-0.011-0.01-0.023-0.021-0.032-0.031c-0.027-0.02-0.053-0.043-0.076-0.06c-0.186-0.473-0.503-1.424-0.324-2.048
		c0.053-0.001,0.105-0.014,0.154-0.04c0.152-0.087,0.205-0.281,0.118-0.434C346.892,330.848,346.699,330.794,346.545,330.882"/>
	<path clip-path="url(#SVGID_2_)" fill="#D0DD7E" d="M325.666,302.793c0.02,0.021,0.04,0.041,0.061,0.061
		c0.046,0.047,0.091,0.093,0.135,0.14c0.022,0.024,0.045,0.048,0.068,0.072c0.043,0.043,0.085,0.085,0.126,0.131
		c0.021,0.022,0.04,0.044,0.06,0.064c0.048,0.052,0.097,0.105,0.143,0.155c0.011,0.012,0.022,0.023,0.032,0.035
		c0.056,0.062,0.111,0.121,0.163,0.182c0.015,0.018,0.028,0.034,0.045,0.053c0.037,0.042,0.072,0.084,0.106,0.124
		c0.018,0.021,0.036,0.041,0.054,0.063c0.03,0.038,0.06,0.073,0.088,0.11c0.017,0.019,0.033,0.04,0.049,0.059
		c0.031,0.038,0.061,0.076,0.089,0.113c0.012,0.015,0.024,0.029,0.035,0.045c0.026,0.033,0.049,0.065,0.073,0.098
		c1.413,0.191,5.374,0.521,5.252-1.771c0,0-0.228-7.071-5.573-0.784c0.62-1.245,1.162-2.902,0.234-3.732
		c0,0-2.264-1.708-1.577,4.455c0.044,0.041,0.087,0.083,0.131,0.128C325.531,302.658,325.6,302.727,325.666,302.793"/>
	<path clip-path="url(#SVGID_2_)" fill="#DBE38A" d="M324.938,310.006c2.294,0.067,1.871-3.884,1.647-5.292
		c-0.032-0.024-0.065-0.047-0.099-0.071c-0.015-0.011-0.03-0.022-0.047-0.034c-0.037-0.027-0.075-0.057-0.114-0.087
		c-0.02-0.016-0.039-0.03-0.061-0.045c-0.037-0.029-0.075-0.059-0.112-0.09c-0.021-0.015-0.042-0.031-0.064-0.051
		c-0.041-0.033-0.084-0.067-0.128-0.103c-0.016-0.015-0.034-0.028-0.052-0.044c-0.061-0.053-0.124-0.105-0.186-0.157
		c-0.011-0.011-0.023-0.021-0.036-0.031c-0.051-0.048-0.104-0.093-0.157-0.142c-0.024-0.02-0.045-0.039-0.067-0.059
		c-0.044-0.038-0.089-0.08-0.134-0.121c-0.024-0.022-0.049-0.044-0.073-0.066c-0.045-0.044-0.093-0.086-0.14-0.133
		c-0.022-0.02-0.042-0.04-0.064-0.061c-0.069-0.064-0.138-0.13-0.207-0.196c-0.044-0.046-0.086-0.088-0.13-0.13
		c-6.176-0.543-4.417,1.682-4.417,1.682c0.852,0.908,2.496,0.327,3.727-0.32C317.866,309.943,324.938,310.006,324.938,310.006"/>
	<path clip-path="url(#SVGID_2_)" fill="#9B7C50" d="M328.333,307.439c0.123-0.125,0.12-0.327-0.005-0.449
		c-0.036-0.034-0.077-0.057-0.121-0.072c-0.002-0.582-0.388-1.259-0.708-1.719c0.467,0.308,1.155,0.681,1.736,0.668
		c0.016,0.042,0.041,0.083,0.075,0.118c0.125,0.122,0.326,0.121,0.449-0.005c0.123-0.127,0.121-0.326-0.005-0.45
		c-0.125-0.122-0.327-0.119-0.449,0.006c-0.039,0.041-0.064,0.088-0.078,0.14c-0.649,0.014-1.489-0.531-1.9-0.831
		c-0.011-0.026-0.025-0.058-0.04-0.09c-0.006-0.011-0.013-0.023-0.022-0.038c-0.009-0.021-0.022-0.044-0.036-0.067
		c-0.009-0.016-0.019-0.031-0.029-0.046c-0.014-0.027-0.031-0.051-0.047-0.075c-0.009-0.017-0.021-0.033-0.033-0.051
		c-0.02-0.031-0.042-0.062-0.065-0.097c-0.01-0.012-0.019-0.025-0.028-0.039c-0.01-0.014-0.022-0.03-0.033-0.045
		c-0.025-0.032-0.047-0.064-0.074-0.097c-0.011-0.017-0.023-0.031-0.036-0.046c-0.027-0.037-0.058-0.075-0.088-0.114
		c-0.016-0.018-0.032-0.039-0.049-0.058c-0.028-0.037-0.059-0.072-0.089-0.11c-0.017-0.021-0.035-0.041-0.053-0.063
		c-0.035-0.04-0.07-0.082-0.106-0.124c-0.017-0.019-0.03-0.035-0.045-0.053c-0.052-0.061-0.107-0.12-0.163-0.182
		c-0.01-0.012-0.021-0.023-0.032-0.035c-0.046-0.05-0.094-0.104-0.143-0.155c-0.021-0.021-0.039-0.042-0.061-0.064
		c-0.041-0.046-0.083-0.088-0.126-0.131c-0.022-0.024-0.045-0.048-0.067-0.072c-0.043-0.047-0.088-0.093-0.135-0.14
		c-0.021-0.02-0.041-0.039-0.061-0.061c-0.066-0.066-0.134-0.135-0.205-0.2c-0.043-0.045-0.088-0.087-0.131-0.128
		c-1.153-1.107-2.195-1.856-2.358-1.69c-0.164,0.17,0.609,1.192,1.743,2.319c0.044,0.042,0.086,0.084,0.13,0.13
		c0.069,0.066,0.138,0.132,0.207,0.196c0.021,0.02,0.042,0.041,0.064,0.061c0.047,0.047,0.094,0.089,0.14,0.133
		c0.024,0.022,0.049,0.044,0.072,0.066c0.045,0.042,0.091,0.083,0.135,0.121c0.022,0.021,0.043,0.039,0.067,0.059
		c0.053,0.049,0.106,0.094,0.157,0.142c0.012,0.01,0.025,0.021,0.035,0.031c0.063,0.052,0.125,0.104,0.186,0.157
		c0.019,0.014,0.037,0.029,0.054,0.044c0.042,0.035,0.087,0.069,0.127,0.103c0.022,0.02,0.043,0.036,0.064,0.051
		c0.038,0.031,0.075,0.061,0.112,0.09c0.021,0.015,0.04,0.029,0.061,0.045c0.039,0.031,0.077,0.06,0.114,0.087
		c0.016,0.012,0.032,0.023,0.046,0.034c0.035,0.024,0.068,0.047,0.099,0.071c0.017,0.009,0.033,0.021,0.047,0.03
		c0.014,0.011,0.027,0.021,0.039,0.027c0.035,0.024,0.066,0.044,0.099,0.064c0.016,0.012,0.034,0.022,0.05,0.033
		c0.025,0.016,0.051,0.031,0.076,0.044c0.016,0.011,0.03,0.019,0.047,0.027c0.024,0.015,0.046,0.024,0.069,0.035
		c0.013,0.009,0.026,0.014,0.04,0.022c0.031,0.013,0.061,0.025,0.089,0.035c0.31,0.406,0.875,1.23,0.874,1.88
		c-0.049,0.016-0.098,0.043-0.136,0.083c-0.123,0.124-0.121,0.326,0.005,0.449C328.01,307.567,328.211,307.566,328.333,307.439"/>
	<path clip-path="url(#SVGID_2_)" fill="#F29496" d="M765.752,152.912c-0.041-0.054-0.083-0.105-0.127-0.159
		c-0.094-0.118-0.187-0.235-0.279-0.351c-0.048-0.06-0.096-0.119-0.143-0.176c-0.092-0.112-0.18-0.22-0.27-0.328
		c-0.043-0.053-0.089-0.106-0.133-0.158c-0.105-0.126-0.211-0.253-0.316-0.373c-0.023-0.027-0.047-0.058-0.069-0.084
		c-0.129-0.146-0.252-0.287-0.376-0.427c-0.036-0.039-0.071-0.078-0.107-0.117c-0.087-0.097-0.171-0.191-0.256-0.281
		c-0.045-0.049-0.087-0.094-0.13-0.14c-0.077-0.083-0.152-0.162-0.228-0.24c-0.041-0.043-0.082-0.086-0.123-0.126
		c-0.08-0.083-0.158-0.162-0.234-0.239c-0.032-0.028-0.063-0.063-0.096-0.092c-0.071-0.068-0.138-0.132-0.205-0.199
		c-0.039-3.31,0.321-12.538,5.571-11.61c0,0,16.239,2.525,0.229,13.071c3.047-1.076,7.024-1.859,8.676,0.518
		c0,0,3.294,5.706-10.723,2.38c-0.084-0.116-0.166-0.229-0.255-0.342C766.025,153.259,765.888,153.085,765.752,152.912"/>
	<path clip-path="url(#SVGID_2_)" fill="#F4A7AA" d="M748.915,152.549c0.492-5.311,9.489-3.217,12.671-2.305
		c0.044,0.083,0.088,0.165,0.135,0.25c0.022,0.039,0.046,0.078,0.065,0.117c0.053,0.095,0.109,0.191,0.168,0.29
		c0.028,0.048,0.058,0.1,0.09,0.151c0.055,0.093,0.112,0.185,0.17,0.282c0.032,0.054,0.066,0.107,0.101,0.164
		c0.066,0.104,0.135,0.21,0.202,0.32c0.029,0.045,0.058,0.088,0.087,0.135c0.102,0.155,0.205,0.313,0.313,0.473
		c0.02,0.031,0.04,0.062,0.06,0.091c0.091,0.134,0.183,0.27,0.277,0.407c0.038,0.055,0.078,0.111,0.119,0.167
		c0.078,0.115,0.159,0.229,0.243,0.346c0.043,0.062,0.086,0.122,0.13,0.185c0.089,0.118,0.177,0.241,0.267,0.364
		c0.041,0.054,0.079,0.106,0.121,0.163c0.129,0.177,0.264,0.353,0.4,0.533c0.086,0.113,0.174,0.224,0.26,0.336
		c-0.495,14.395-5.126,9.708-5.126,9.708c-1.856-2.22-0.049-5.847,1.79-8.502C747.057,168.874,748.915,152.549,748.915,152.549"/>
	<path clip-path="url(#SVGID_2_)" fill="#9B7C50" d="M755.793,145.444c0.324-0.248,0.789-0.185,1.034,0.14
		c0.069,0.091,0.112,0.194,0.133,0.3c1.341,0.166,2.795,1.252,3.766,2.118c-0.579-1.166-1.242-2.853-1.048-4.19
		c-0.096-0.048-0.185-0.116-0.253-0.208c-0.248-0.324-0.186-0.787,0.138-1.035c0.324-0.247,0.787-0.184,1.035,0.141
		c0.246,0.324,0.184,0.787-0.14,1.034c-0.104,0.079-0.223,0.123-0.344,0.14c-0.218,1.492,0.804,3.583,1.38,4.618
		c0.058,0.03,0.121,0.071,0.191,0.116c0.028,0.017,0.057,0.039,0.085,0.058c0.045,0.033,0.094,0.066,0.144,0.105
		c0.034,0.026,0.067,0.051,0.103,0.079c0.051,0.041,0.104,0.085,0.157,0.131c0.035,0.028,0.07,0.057,0.107,0.087
		c0.064,0.057,0.133,0.117,0.199,0.18c0.029,0.027,0.056,0.048,0.085,0.076c0.03,0.029,0.063,0.062,0.095,0.089
		c0.067,0.066,0.134,0.13,0.206,0.199c0.031,0.029,0.063,0.064,0.095,0.092c0.076,0.077,0.154,0.156,0.234,0.239
		c0.041,0.04,0.082,0.083,0.123,0.126c0.076,0.078,0.15,0.156,0.229,0.24c0.042,0.045,0.084,0.091,0.129,0.14
		c0.085,0.09,0.169,0.184,0.256,0.281c0.036,0.039,0.071,0.079,0.107,0.117c0.124,0.14,0.247,0.281,0.376,0.427
		c0.022,0.026,0.046,0.057,0.069,0.084c0.105,0.12,0.211,0.247,0.316,0.373c0.044,0.052,0.09,0.105,0.133,0.158
		c0.09,0.108,0.178,0.215,0.27,0.328c0.047,0.057,0.095,0.116,0.143,0.176c0.093,0.116,0.186,0.233,0.279,0.351
		c0.044,0.053,0.086,0.105,0.127,0.159c0.136,0.173,0.272,0.347,0.407,0.528c0.089,0.113,0.171,0.226,0.255,0.342
		c2.229,2.97,3.662,5.581,3.229,5.912c-0.435,0.331-2.572-1.742-4.85-4.675c-0.086-0.112-0.174-0.223-0.26-0.336
		c-0.137-0.18-0.271-0.356-0.4-0.533c-0.04-0.055-0.082-0.109-0.121-0.163c-0.09-0.123-0.178-0.246-0.267-0.364
		c-0.044-0.063-0.087-0.123-0.13-0.185c-0.084-0.117-0.164-0.231-0.244-0.346c-0.04-0.057-0.08-0.112-0.118-0.167
		c-0.095-0.137-0.187-0.273-0.277-0.407c-0.02-0.029-0.04-0.06-0.06-0.091c-0.108-0.16-0.212-0.318-0.313-0.473
		c-0.029-0.046-0.058-0.09-0.085-0.135c-0.069-0.11-0.138-0.216-0.204-0.32c-0.034-0.057-0.068-0.11-0.1-0.164
		c-0.059-0.097-0.116-0.189-0.171-0.282c-0.031-0.051-0.062-0.103-0.09-0.151c-0.059-0.099-0.115-0.195-0.167-0.29
		c-0.021-0.039-0.044-0.078-0.066-0.117c-0.047-0.085-0.091-0.167-0.135-0.25c-0.019-0.037-0.041-0.079-0.061-0.115
		c-0.018-0.036-0.034-0.068-0.052-0.101c-0.042-0.083-0.082-0.164-0.121-0.241c-0.02-0.043-0.037-0.084-0.055-0.125
		c-0.032-0.066-0.061-0.127-0.086-0.188c-0.017-0.041-0.032-0.081-0.049-0.12c-0.022-0.058-0.045-0.113-0.064-0.167
		c-0.009-0.034-0.022-0.067-0.033-0.098c-0.025-0.077-0.046-0.15-0.062-0.216c-0.845-0.828-2.591-2.366-4.089-2.55
		c-0.049,0.112-0.121,0.214-0.227,0.293c-0.322,0.248-0.785,0.186-1.034-0.138C755.409,146.153,755.47,145.69,755.793,145.444"/>
	<path clip-path="url(#SVGID_2_)" fill="#F29496" d="M120.624,158.002c0.023-0.042,0.045-0.085,0.069-0.129
		c0.05-0.097,0.1-0.191,0.149-0.286c0.026-0.048,0.052-0.097,0.076-0.144c0.047-0.094,0.094-0.183,0.139-0.272
		c0.023-0.044,0.045-0.089,0.066-0.134c0.054-0.105,0.106-0.211,0.155-0.315c0.012-0.022,0.024-0.047,0.035-0.069
		c0.058-0.127,0.117-0.249,0.173-0.371c0.015-0.035,0.032-0.069,0.046-0.104c0.039-0.085,0.077-0.169,0.113-0.251
		c0.018-0.042,0.037-0.083,0.054-0.124c0.033-0.075,0.063-0.147,0.092-0.22c0.017-0.039,0.033-0.079,0.047-0.118
		c0.032-0.075,0.062-0.149,0.09-0.222c0.01-0.029,0.025-0.06,0.034-0.088c0.025-0.067,0.047-0.13,0.072-0.192
		c2.17-0.978,8.354-3.391,9.25,0.335c0,0,3.001,11.424-8.546,3.905c1.584,1.699,3.243,4.094,2.151,5.866
		c0,0-2.814,3.809-4.647-6.382c0.051-0.087,0.103-0.174,0.151-0.266C120.473,158.28,120.549,158.142,120.624,158.002"/>
	<path clip-path="url(#SVGID_2_)" fill="#F4A7AA" d="M116.026,146.803c3.641-1.201,4.845,5.329,5.158,7.688
		c-0.041,0.052-0.083,0.105-0.126,0.159c-0.019,0.026-0.038,0.053-0.057,0.077c-0.048,0.063-0.095,0.128-0.143,0.194
		c-0.024,0.033-0.05,0.067-0.075,0.103c-0.045,0.064-0.089,0.127-0.136,0.194c-0.027,0.037-0.053,0.075-0.079,0.113
		c-0.05,0.073-0.101,0.149-0.154,0.226c-0.021,0.03-0.042,0.063-0.064,0.096c-0.074,0.11-0.147,0.224-0.221,0.341
		c-0.015,0.021-0.029,0.044-0.043,0.065c-0.063,0.099-0.125,0.199-0.188,0.3c-0.025,0.041-0.051,0.083-0.077,0.126
		c-0.051,0.085-0.104,0.171-0.157,0.26c-0.029,0.045-0.057,0.092-0.084,0.138c-0.053,0.094-0.109,0.186-0.164,0.28
		c-0.024,0.042-0.047,0.083-0.072,0.126c-0.08,0.137-0.158,0.275-0.236,0.418c-0.05,0.088-0.097,0.179-0.147,0.267
		c-9.627,3.809-7.869-0.589-7.869-0.589c0.929-1.86,3.838-1.711,6.115-1.262C104.736,150.268,116.026,146.803,116.026,146.803"/>
	<path clip-path="url(#SVGID_2_)" fill="#9B7C50" d="M122.683,149.294c0.257,0.143,0.349,0.467,0.205,0.722
		c-0.04,0.072-0.095,0.13-0.16,0.174c0.277,0.931-0.021,2.201-0.313,3.089c0.602-0.716,1.522-1.636,2.459-1.894
		c0.004-0.077,0.023-0.155,0.065-0.227c0.141-0.255,0.465-0.347,0.722-0.205c0.255,0.142,0.347,0.465,0.204,0.721
		c-0.143,0.257-0.466,0.348-0.722,0.206c-0.081-0.046-0.145-0.112-0.191-0.187c-1.045,0.285-2.13,1.559-2.646,2.236
		c-0.002,0.047-0.012,0.1-0.021,0.16c-0.003,0.023-0.009,0.048-0.013,0.073c-0.009,0.039-0.018,0.081-0.028,0.124
		c-0.007,0.031-0.015,0.059-0.023,0.091c-0.011,0.044-0.026,0.092-0.041,0.14c-0.01,0.032-0.018,0.063-0.028,0.096
		c-0.019,0.059-0.038,0.121-0.061,0.183c-0.008,0.027-0.015,0.052-0.025,0.078c-0.01,0.028-0.022,0.061-0.032,0.089
		c-0.025,0.063-0.046,0.125-0.071,0.192c-0.01,0.028-0.024,0.059-0.035,0.088c-0.027,0.073-0.058,0.147-0.09,0.222
		c-0.014,0.039-0.031,0.08-0.048,0.118c-0.028,0.072-0.059,0.145-0.092,0.22c-0.018,0.041-0.037,0.082-0.055,0.124
		c-0.035,0.082-0.073,0.166-0.112,0.251c-0.016,0.034-0.031,0.068-0.046,0.104c-0.057,0.122-0.115,0.244-0.174,0.371
		c-0.01,0.021-0.023,0.046-0.035,0.069c-0.049,0.104-0.102,0.21-0.155,0.315c-0.021,0.045-0.043,0.09-0.065,0.134
		c-0.046,0.089-0.092,0.178-0.139,0.272c-0.024,0.047-0.05,0.095-0.076,0.144c-0.049,0.095-0.1,0.189-0.149,0.286
		c-0.023,0.044-0.046,0.086-0.069,0.129c-0.075,0.14-0.15,0.278-0.231,0.419c-0.049,0.091-0.1,0.179-0.151,0.266
		c-1.317,2.322-2.626,4.017-2.968,3.827c-0.344-0.192,0.409-2.196,1.687-4.539c0.05-0.088,0.097-0.179,0.147-0.267
		c0.079-0.143,0.156-0.281,0.236-0.418c0.025-0.043,0.048-0.084,0.072-0.126c0.055-0.095,0.111-0.187,0.164-0.28
		c0.027-0.046,0.055-0.092,0.084-0.138c0.053-0.089,0.105-0.175,0.157-0.26c0.026-0.044,0.051-0.085,0.077-0.126
		c0.063-0.102,0.126-0.201,0.188-0.3c0.014-0.021,0.028-0.043,0.042-0.065c0.074-0.117,0.148-0.23,0.222-0.341
		c0.021-0.033,0.042-0.065,0.063-0.096c0.053-0.077,0.104-0.153,0.154-0.226c0.026-0.039,0.052-0.077,0.079-0.113
		c0.047-0.066,0.091-0.13,0.136-0.194c0.024-0.036,0.05-0.069,0.075-0.103c0.048-0.066,0.095-0.131,0.143-0.194
		c0.02-0.024,0.039-0.051,0.058-0.077c0.043-0.054,0.085-0.107,0.126-0.159c0.02-0.024,0.04-0.05,0.059-0.074
		c0.018-0.022,0.034-0.041,0.052-0.062c0.042-0.052,0.084-0.102,0.124-0.149c0.023-0.025,0.044-0.05,0.067-0.073
		c0.034-0.041,0.066-0.077,0.099-0.11c0.021-0.022,0.043-0.045,0.065-0.066c0.031-0.032,0.062-0.063,0.091-0.09
		c0.02-0.017,0.037-0.036,0.055-0.051c0.043-0.039,0.085-0.073,0.124-0.103c0.304-0.794,0.815-2.387,0.506-3.427
		c-0.087,0.001-0.176-0.019-0.258-0.063c-0.256-0.142-0.349-0.466-0.206-0.723C122.105,149.245,122.428,149.153,122.683,149.294"/>
	<path clip-path="url(#SVGID_2_)" fill="#ED9806" d="M790.022,164.43c0.009-0.04,0.019-0.078,0.029-0.117
		c0.022-0.087,0.043-0.175,0.063-0.258c0.011-0.046,0.021-0.088,0.032-0.13c0.018-0.084,0.037-0.165,0.056-0.246
		c0.009-0.042,0.018-0.08,0.025-0.12c0.022-0.097,0.043-0.19,0.063-0.285c0.004-0.021,0.01-0.042,0.013-0.064
		c0.024-0.111,0.046-0.221,0.065-0.328c0.008-0.032,0.011-0.063,0.019-0.094c0.014-0.077,0.026-0.15,0.038-0.222
		c0.006-0.039,0.012-0.075,0.02-0.111c0.011-0.066,0.02-0.131,0.03-0.194c0.006-0.034,0.012-0.07,0.016-0.104
		c0.01-0.067,0.018-0.133,0.025-0.196c0.005-0.026,0.009-0.053,0.011-0.078c0.008-0.06,0.014-0.112,0.02-0.169
		c1.543-1.212,6.014-4.377,7.474-1.571c0,0,4.676,8.55-6.066,4.827c1.606,1.045,3.41,2.634,2.889,4.269c0,0-1.493,3.61-4.988-4.184
		c0.021-0.082,0.044-0.161,0.067-0.245C789.956,164.682,789.99,164.556,790.022,164.43"/>
	<path clip-path="url(#SVGID_2_)" fill="#F9B356" d="M784.112,156.377c2.677-1.687,4.939,3.303,5.66,5.129
		c-0.023,0.049-0.045,0.1-0.069,0.154c-0.011,0.022-0.019,0.048-0.03,0.071c-0.024,0.061-0.051,0.122-0.077,0.184
		c-0.012,0.033-0.024,0.064-0.038,0.098c-0.022,0.059-0.046,0.12-0.071,0.183c-0.013,0.036-0.026,0.069-0.04,0.105
		c-0.026,0.069-0.053,0.141-0.078,0.212c-0.012,0.029-0.021,0.059-0.032,0.089c-0.038,0.104-0.073,0.21-0.11,0.319
		c-0.008,0.02-0.013,0.042-0.02,0.062c-0.03,0.09-0.062,0.183-0.092,0.276c-0.013,0.038-0.024,0.077-0.037,0.116
		c-0.025,0.078-0.049,0.158-0.074,0.24c-0.014,0.043-0.026,0.084-0.038,0.128c-0.025,0.085-0.05,0.17-0.076,0.256
		c-0.01,0.039-0.021,0.077-0.032,0.115c-0.037,0.126-0.072,0.253-0.105,0.383c-0.023,0.08-0.044,0.162-0.065,0.243
		c-6.952,4.967-6.421,1.096-6.421,1.096c0.377-1.676,2.734-2.136,4.649-2.229C775.762,161.399,784.112,156.377,784.112,156.377"/>
	<path clip-path="url(#SVGID_2_)" fill="#9B7C50" d="M789.938,157.048c0.232,0.063,0.37,0.301,0.308,0.538
		c-0.018,0.065-0.052,0.122-0.093,0.169c0.407,0.692,0.421,1.769,0.363,2.537c0.339-0.692,0.894-1.615,1.593-2.007
		c-0.014-0.062-0.012-0.127,0.005-0.195c0.064-0.233,0.304-0.37,0.537-0.306c0.234,0.063,0.371,0.301,0.309,0.537
		c-0.063,0.232-0.304,0.37-0.536,0.309c-0.076-0.021-0.138-0.061-0.191-0.112c-0.78,0.437-1.395,1.671-1.674,2.315
		c0.008,0.041,0.012,0.083,0.016,0.133c0.002,0.019,0.002,0.04,0.003,0.06c0.001,0.035,0.003,0.07,0.003,0.106
		c0,0.025,0,0.052-0.002,0.076c0,0.041-0.001,0.079-0.003,0.123c-0.001,0.027-0.001,0.053-0.004,0.083
		c-0.002,0.05-0.006,0.103-0.011,0.158c-0.004,0.022-0.004,0.044-0.007,0.068c-0.002,0.022-0.005,0.05-0.007,0.075
		c-0.006,0.057-0.012,0.11-0.02,0.169c-0.002,0.025-0.006,0.052-0.011,0.078c-0.008,0.063-0.016,0.129-0.024,0.196
		c-0.005,0.034-0.012,0.07-0.017,0.104c-0.01,0.063-0.02,0.128-0.03,0.194c-0.007,0.036-0.014,0.072-0.02,0.111
		c-0.012,0.072-0.024,0.146-0.038,0.222c-0.008,0.031-0.011,0.062-0.019,0.094c-0.02,0.107-0.041,0.217-0.065,0.328
		c-0.003,0.021-0.009,0.042-0.013,0.064c-0.02,0.094-0.04,0.188-0.063,0.285c-0.008,0.04-0.017,0.078-0.025,0.12
		c-0.019,0.081-0.038,0.162-0.056,0.246c-0.011,0.042-0.021,0.084-0.032,0.13c-0.021,0.083-0.041,0.171-0.063,0.258
		c-0.011,0.039-0.021,0.077-0.029,0.117c-0.032,0.126-0.066,0.252-0.101,0.381c-0.023,0.084-0.046,0.163-0.068,0.245
		c-0.595,2.119-1.305,3.738-1.616,3.653c-0.312-0.086-0.11-1.839,0.448-3.97c0.021-0.081,0.042-0.163,0.065-0.243
		c0.033-0.13,0.068-0.256,0.105-0.383c0.012-0.037,0.022-0.076,0.032-0.115c0.026-0.086,0.051-0.171,0.076-0.256
		c0.012-0.043,0.024-0.085,0.038-0.128c0.025-0.082,0.049-0.162,0.074-0.24c0.013-0.039,0.024-0.078,0.037-0.116
		c0.031-0.093,0.062-0.187,0.092-0.276c0.007-0.02,0.012-0.042,0.02-0.062c0.037-0.109,0.074-0.216,0.11-0.319
		c0.011-0.03,0.021-0.06,0.032-0.089c0.025-0.071,0.053-0.143,0.078-0.212c0.014-0.036,0.027-0.069,0.04-0.105
		c0.025-0.063,0.049-0.124,0.071-0.183c0.013-0.033,0.026-0.065,0.039-0.098c0.025-0.062,0.052-0.123,0.077-0.184
		c0.011-0.023,0.019-0.048,0.029-0.071c0.023-0.054,0.047-0.105,0.069-0.154c0.01-0.025,0.021-0.049,0.032-0.072
		c0.011-0.02,0.019-0.04,0.028-0.059c0.024-0.051,0.048-0.098,0.072-0.144c0.011-0.026,0.025-0.05,0.036-0.073
		c0.021-0.038,0.04-0.073,0.059-0.108c0.012-0.022,0.025-0.043,0.037-0.066c0.021-0.029,0.038-0.061,0.058-0.09
		c0.011-0.016,0.021-0.034,0.032-0.051c0.029-0.039,0.054-0.077,0.079-0.107c0.086-0.695,0.179-2.073-0.275-2.843
		c-0.07,0.017-0.146,0.019-0.222,0c-0.232-0.064-0.369-0.305-0.307-0.538C789.465,157.123,789.704,156.984,789.938,157.048"/>
	<path clip-path="url(#SVGID_2_)" fill="#D0DD7E" d="M808.042,112.354c-0.02,0.036-0.04,0.067-0.06,0.103
		c-0.046,0.078-0.09,0.156-0.132,0.233c-0.022,0.04-0.044,0.08-0.065,0.118c-0.044,0.073-0.083,0.146-0.123,0.22
		c-0.02,0.036-0.039,0.072-0.059,0.107c-0.047,0.084-0.093,0.173-0.137,0.257c-0.01,0.019-0.021,0.038-0.031,0.057
		c-0.052,0.102-0.104,0.202-0.152,0.299c-0.015,0.028-0.027,0.057-0.043,0.085c-0.034,0.07-0.067,0.138-0.098,0.203
		c-0.017,0.035-0.033,0.067-0.051,0.102c-0.026,0.062-0.055,0.118-0.079,0.179c-0.018,0.03-0.031,0.063-0.047,0.094
		c-0.026,0.063-0.053,0.123-0.076,0.182c-0.012,0.024-0.023,0.049-0.033,0.072c-0.024,0.053-0.042,0.104-0.063,0.157
		c-1.817,0.743-6.984,2.557-7.619-0.542c0,0-2.146-9.506,7.16-2.977c-1.258-1.445-2.556-3.468-1.604-4.895
		c0,0,2.427-3.063,3.646,5.393c-0.044,0.071-0.088,0.141-0.131,0.216C808.174,112.128,808.109,112.243,808.042,112.354"/>
	<path clip-path="url(#SVGID_2_)" fill="#DBE38A" d="M811.512,121.72c-3.034,0.885-3.842-4.531-4.031-6.486
		c0.034-0.043,0.07-0.084,0.108-0.129c0.015-0.019,0.032-0.041,0.049-0.062c0.041-0.049,0.081-0.1,0.123-0.154
		c0.021-0.027,0.042-0.055,0.065-0.083c0.039-0.051,0.077-0.103,0.117-0.157c0.023-0.029,0.045-0.057,0.068-0.089
		c0.043-0.059,0.09-0.121,0.133-0.182c0.019-0.026,0.038-0.051,0.057-0.077c0.063-0.092,0.128-0.183,0.192-0.275
		c0.012-0.018,0.023-0.037,0.037-0.053c0.052-0.082,0.106-0.159,0.162-0.243c0.022-0.034,0.044-0.067,0.068-0.101
		c0.045-0.067,0.09-0.138,0.138-0.209c0.024-0.04,0.048-0.076,0.072-0.115c0.046-0.073,0.095-0.146,0.142-0.225
		c0.023-0.034,0.043-0.067,0.063-0.102c0.071-0.111,0.14-0.223,0.209-0.335c0.043-0.076,0.085-0.146,0.129-0.218
		c8.047-2.865,6.472,0.711,6.472,0.711c-0.821,1.508-3.215,1.302-5.081,0.865C820.922,119.186,811.512,121.72,811.512,121.72"/>
	<path clip-path="url(#SVGID_2_)" fill="#9B7C50" d="M806.095,119.476c-0.208-0.125-0.273-0.395-0.148-0.602
		c0.036-0.058,0.082-0.102,0.137-0.138c-0.2-0.777,0.081-1.814,0.348-2.538c-0.516,0.573-1.304,1.308-2.083,1.491
		c-0.006,0.063-0.024,0.126-0.059,0.187c-0.126,0.205-0.394,0.273-0.602,0.149c-0.207-0.127-0.273-0.394-0.148-0.603
		c0.124-0.207,0.395-0.274,0.601-0.148c0.066,0.041,0.117,0.097,0.154,0.159c0.869-0.205,1.801-1.224,2.244-1.767
		c0.005-0.039,0.013-0.085,0.021-0.132c0.005-0.018,0.01-0.038,0.016-0.06c0.007-0.032,0.014-0.066,0.025-0.102
		c0.007-0.024,0.015-0.049,0.021-0.071c0.011-0.042,0.025-0.079,0.037-0.117c0.008-0.027,0.018-0.052,0.027-0.081
		c0.016-0.048,0.034-0.097,0.053-0.149c0.011-0.021,0.017-0.042,0.024-0.063c0.01-0.021,0.02-0.047,0.029-0.07
		c0.021-0.053,0.039-0.104,0.063-0.157c0.01-0.023,0.021-0.048,0.032-0.072c0.024-0.059,0.051-0.118,0.077-0.182
		c0.016-0.031,0.03-0.064,0.047-0.094c0.024-0.061,0.053-0.117,0.079-0.179c0.018-0.035,0.034-0.066,0.051-0.102
		c0.031-0.065,0.063-0.133,0.098-0.203c0.016-0.029,0.028-0.057,0.043-0.085c0.049-0.097,0.101-0.197,0.152-0.299
		c0.01-0.019,0.021-0.038,0.031-0.057c0.044-0.083,0.09-0.172,0.137-0.257c0.02-0.035,0.039-0.071,0.059-0.107
		c0.039-0.074,0.079-0.146,0.123-0.22c0.021-0.039,0.043-0.078,0.065-0.118c0.042-0.077,0.086-0.155,0.132-0.233
		c0.019-0.035,0.04-0.067,0.06-0.103c0.066-0.111,0.132-0.226,0.203-0.338c0.043-0.076,0.087-0.146,0.131-0.216
		c1.154-1.875,2.282-3.237,2.56-3.07c0.275,0.168-0.4,1.8-1.521,3.695c-0.044,0.072-0.086,0.143-0.129,0.218
		c-0.069,0.112-0.138,0.225-0.209,0.335c-0.021,0.032-0.04,0.067-0.063,0.102c-0.047,0.078-0.096,0.151-0.142,0.225
		c-0.024,0.039-0.048,0.075-0.072,0.115c-0.048,0.071-0.094,0.142-0.138,0.209c-0.024,0.033-0.046,0.066-0.068,0.101
		c-0.056,0.084-0.11,0.162-0.162,0.243c-0.014,0.017-0.025,0.036-0.037,0.053c-0.064,0.092-0.13,0.183-0.192,0.275
		c-0.021,0.024-0.038,0.051-0.057,0.077c-0.044,0.061-0.09,0.123-0.133,0.182c-0.023,0.032-0.045,0.061-0.068,0.089
		c-0.04,0.054-0.078,0.106-0.117,0.157c-0.023,0.028-0.044,0.056-0.065,0.083c-0.042,0.054-0.082,0.105-0.123,0.154
		c-0.017,0.021-0.034,0.043-0.049,0.062c-0.038,0.045-0.074,0.086-0.108,0.129c-0.019,0.019-0.036,0.04-0.053,0.06
		c-0.014,0.018-0.027,0.034-0.042,0.048c-0.038,0.043-0.073,0.082-0.108,0.121c-0.019,0.02-0.037,0.041-0.057,0.06
		c-0.029,0.03-0.056,0.059-0.085,0.085c-0.019,0.02-0.035,0.035-0.055,0.052c-0.025,0.027-0.053,0.05-0.078,0.072
		c-0.016,0.015-0.031,0.027-0.046,0.042c-0.037,0.029-0.073,0.056-0.107,0.079c-0.272,0.647-0.74,1.944-0.514,2.809
		c0.07,0.004,0.145,0.024,0.211,0.064c0.206,0.123,0.273,0.392,0.149,0.6C806.572,119.532,806.301,119.601,806.095,119.476"/>
	<path clip-path="url(#SVGID_2_)" fill="#C4CD18" d="M436.375,417.161c0,0-4.445-10.749,16.563-9.889L436.375,417.161z"/>
	<path clip-path="url(#SVGID_2_)" fill="#A8B819" d="M436.375,417.161c0,0,7.354,9.014,16.563-9.889L436.375,417.161z"/>
	<path clip-path="url(#SVGID_2_)" fill="#C4CD18" d="M435.919,417.161c0,0,4.446-10.749-16.564-9.889L435.919,417.161z"/>
	<path clip-path="url(#SVGID_2_)" fill="#A8B819" d="M435.919,417.161c0,0-7.352,9.014-16.564-9.889L435.919,417.161z"/>
	<rect x="435.689" y="380.544" clip-path="url(#SVGID_2_)" fill="#A8B819" width="0.857" height="93.136"/>
	<polygon clip-path="url(#SVGID_2_)" fill="#D3CBE6" points="423.25,356.823 435.98,360.552 448.711,356.823 444.983,369.555 
		448.711,382.283 435.981,378.555 423.251,382.283 426.98,369.553 	"/>
	<polygon clip-path="url(#SVGID_2_)" fill="#F29496" points="435.98,351.551 442.346,363.188 453.983,369.555 442.346,375.917 
		435.98,387.556 429.615,375.917 417.978,369.555 429.615,363.188 	"/>
	<polygon clip-path="url(#SVGID_2_)" fill="#FCCA87" points="444.638,360.896 442.104,369.555 444.638,378.213 435.979,375.677 
		427.324,378.213 429.857,369.555 427.324,360.896 435.979,363.433 	"/>
	<polygon clip-path="url(#SVGID_2_)" fill="#FFE9A7" points="426.799,369.555 432.734,366.309 435.98,360.371 439.229,366.309 
		445.164,369.555 439.229,372.802 435.98,378.735 432.734,372.802 	"/>
	<rect x="333.173" y="405.065" clip-path="url(#SVGID_2_)" fill="#A8B819" width="1.084" height="63.343"/>
	<path clip-path="url(#SVGID_2_)" fill="#C4CD18" d="M339.747,410.2c1.055-1.32,1.687-2.994,1.687-4.815
		c0-4.266-3.458-7.724-7.724-7.724h-0.005l-0.057,12.539H339.747z"/>
	<path clip-path="url(#SVGID_2_)" fill="#A8B819" d="M333.705,397.661c-4.263,0.003-7.718,3.46-7.718,7.724
		c0,1.821,0.632,3.495,1.687,4.815h5.975L333.705,397.661z"/>
	<polygon clip-path="url(#SVGID_2_)" fill="#A8B819" points="333.999,423.517 333.517,424.487 323.018,419.167 323.501,418.195 	"/>
	<path clip-path="url(#SVGID_2_)" fill="#C4CD18" d="M330.546,415.571c-0.713-1.532-1.928-2.843-3.56-3.656
		c-3.818-1.901-8.455-0.349-10.356,3.469c-0.001,0.003-0.002,0.004-0.002,0.004l11.199,5.644L330.546,415.571z"/>
	<path clip-path="url(#SVGID_2_)" fill="#A8B819" d="M316.628,415.39c-1.898,3.817-0.345,8.45,3.473,10.352
		c1.631,0.813,3.408,0.991,5.062,0.639l2.664-5.349L316.628,415.39z"/>
	<polygon clip-path="url(#SVGID_2_)" fill="#A8B819" points="333.999,441.308 333.517,442.278 323.018,436.958 323.501,435.986 	"/>
	<path clip-path="url(#SVGID_2_)" fill="#C4CD18" d="M330.546,433.364c-0.713-1.534-1.928-2.846-3.56-3.658
		c-3.818-1.902-8.455-0.349-10.356,3.471c-0.001,0.001-0.002,0.002-0.002,0.004l11.199,5.643L330.546,433.364z"/>
	<path clip-path="url(#SVGID_2_)" fill="#A8B819" d="M316.628,433.181c-1.898,3.819-0.345,8.451,3.473,10.352
		c1.631,0.813,3.408,0.992,5.062,0.639l2.664-5.348L316.628,433.181z"/>
	<polygon clip-path="url(#SVGID_2_)" fill="#A8B819" points="333.357,423.517 333.841,424.487 344.338,419.167 343.855,418.195 	"/>
	<path clip-path="url(#SVGID_2_)" fill="#C4CD18" d="M336.81,415.571c0.714-1.532,1.928-2.843,3.559-3.656
		c3.818-1.901,8.456-0.349,10.357,3.469c0.001,0.003,0.001,0.004,0.003,0.006l-11.199,5.642L336.81,415.571z"/>
	<path clip-path="url(#SVGID_2_)" fill="#A8B819" d="M350.729,415.39c1.897,3.817,0.343,8.45-3.474,10.352
		c-1.631,0.813-3.409,0.991-5.062,0.639l-2.664-5.349L350.729,415.39z"/>
	<polygon clip-path="url(#SVGID_2_)" fill="#A8B819" points="333.357,441.308 333.841,442.278 344.338,436.958 343.855,435.986 	"/>
	<path clip-path="url(#SVGID_2_)" fill="#C4CD18" d="M336.81,433.364c0.714-1.534,1.928-2.846,3.559-3.658
		c3.818-1.902,8.456-0.349,10.357,3.471c0.001,0.001,0.001,0.002,0.003,0.004l-11.199,5.643L336.81,433.364z"/>
	<path clip-path="url(#SVGID_2_)" fill="#A8B819" d="M350.729,433.181c1.897,3.819,0.343,8.451-3.474,10.352
		c-1.631,0.813-3.409,0.992-5.062,0.639l-2.664-5.348L350.729,433.181z"/>
	<rect x="730.016" y="438.675" clip-path="url(#SVGID_2_)" fill="#9B7C50" width="8.291" height="35.005"/>
	<polygon clip-path="url(#SVGID_2_)" fill="#BBDCB9" points="679.084,427.129 735.617,427.129 735.617,226.31 	"/>
	<polygon clip-path="url(#SVGID_2_)" fill="#D9EAD7" points="735.312,226.31 735.312,427.129 791.843,427.129 	"/>
	<polygon clip-path="url(#SVGID_2_)" fill="#BBDCB9" points="679.084,459.817 735.617,459.817 735.617,278.253 	"/>
	<polygon clip-path="url(#SVGID_2_)" fill="#D9EAD7" points="735.312,278.253 735.312,459.817 791.843,459.817 	"/>
	<rect x="161.403" y="438.675" clip-path="url(#SVGID_2_)" fill="#9B7C50" width="8.291" height="35.005"/>
	<polygon clip-path="url(#SVGID_2_)" fill="#BBDCB9" points="110.471,427.129 167.004,427.129 167.004,226.31 	"/>
	<polygon clip-path="url(#SVGID_2_)" fill="#D9EAD7" points="166.699,226.31 166.699,427.129 223.231,427.129 	"/>
	<polygon clip-path="url(#SVGID_2_)" fill="#BBDCB9" points="110.471,459.817 167.004,459.817 167.004,278.253 	"/>
	<polygon clip-path="url(#SVGID_2_)" fill="#D9EAD7" points="166.699,278.253 166.699,459.817 223.231,459.817 	"/>
	<rect x="240.903" y="450.429" clip-path="url(#SVGID_2_)" fill="#9B7C50" width="5.508" height="23.252"/>
	<polygon clip-path="url(#SVGID_2_)" fill="#BBDCB9" points="207.074,442.76 244.625,442.76 244.625,309.371 	"/>
	<polygon clip-path="url(#SVGID_2_)" fill="#D9EAD7" points="244.422,309.371 244.422,442.76 281.972,442.76 	"/>
	<polygon clip-path="url(#SVGID_2_)" fill="#BBDCB9" points="207.074,464.474 244.625,464.474 244.625,343.873 	"/>
	<polygon clip-path="url(#SVGID_2_)" fill="#D9EAD7" points="244.422,343.873 244.422,464.474 281.972,464.474 	"/>
	<rect x="508.934" y="450.429" clip-path="url(#SVGID_2_)" fill="#9B7C50" width="5.508" height="23.252"/>
	<polygon clip-path="url(#SVGID_2_)" fill="#BBDCB9" points="475.104,442.76 512.656,442.76 512.656,309.371 	"/>
	<polygon clip-path="url(#SVGID_2_)" fill="#D9EAD7" points="512.453,309.371 512.453,442.76 550.002,442.76 	"/>
	<polygon clip-path="url(#SVGID_2_)" fill="#BBDCB9" points="475.104,464.474 512.656,464.474 512.656,343.873 	"/>
	<polygon clip-path="url(#SVGID_2_)" fill="#D9EAD7" points="512.453,343.873 512.453,464.474 550.002,464.474 	"/>
	<rect x="0" y="477.95" clip-path="url(#SVGID_2_)" fill="#AF9E8C" width="968" height="6.05"/>
	<path clip-path="url(#SVGID_2_)" fill="#C3D878" d="M228.703,463.862c-2.585-3.906-14.355-6.854-28.499-6.854
		c-11.896,0-22.107,2.085-26.595,5.073c-7.089-1.279-16.121-2.05-25.967-2.05c-13.815,0-26.011,1.516-33.488,3.831h-15.44
		c-2.803-4.363-11.324-7.541-21.406-7.541c-6.988,0-13.225,1.527-17.33,3.918c-6.262-1.176-15.497-1.921-25.821-1.921
		C15.293,458.318,0,460.797,0,463.855l0.002,0.007H0v14.491h242v-14.491H228.703z"/>
	<path clip-path="url(#SVGID_2_)" fill="#C3D878" d="M470.703,463.862c-2.586-3.906-14.355-6.854-28.499-6.854
		c-11.896,0-22.106,2.085-26.595,5.073c-7.089-1.279-16.12-2.05-25.966-2.05c-13.814,0-26.011,1.516-33.488,3.831h-15.44
		c-2.803-4.363-11.324-7.541-21.406-7.541c-6.988,0-13.225,1.527-17.33,3.918c-6.262-1.176-15.497-1.921-25.821-1.921
		c-18.864,0-34.157,2.479-34.157,5.537l0.002,0.007H242v14.491h242v-14.491H470.703z"/>
	<path clip-path="url(#SVGID_2_)" fill="#C3D878" d="M712.702,463.862c-2.585-3.906-14.354-6.854-28.498-6.854
		c-11.896,0-22.106,2.085-26.596,5.073c-7.089-1.279-16.119-2.05-25.967-2.05c-13.813,0-26.01,1.516-33.487,3.831h-15.44
		c-2.803-4.363-11.323-7.541-21.405-7.541c-6.988,0-13.225,1.527-17.33,3.918c-6.262-1.176-15.496-1.921-25.821-1.921
		c-18.863,0-34.156,2.479-34.156,5.537l0.002,0.007H484v14.491h242v-14.491H712.702z"/>
	<path clip-path="url(#SVGID_2_)" fill="#C3D878" d="M954.702,463.862c-2.585-3.906-14.354-6.854-28.498-6.854
		c-11.896,0-22.106,2.085-26.596,5.073c-7.089-1.279-16.119-2.05-25.967-2.05c-13.813,0-26.01,1.516-33.487,3.831h-15.44
		c-2.803-4.363-11.323-7.541-21.405-7.541c-6.988,0-13.225,1.527-17.33,3.918c-6.262-1.176-15.496-1.921-25.821-1.921
		c-18.863,0-34.156,2.479-34.156,5.537l0.002,0.007H726v14.491h242v-14.491H954.702z"/>
	<path clip-path="url(#SVGID_2_)" fill="#C4CD18" d="M40.207,410.17c0,0-3.464-8.375,12.905-7.704L40.207,410.17z"/>
	<path clip-path="url(#SVGID_2_)" fill="#A8B819" d="M40.207,410.17c0,0,5.729,7.021,12.905-7.704L40.207,410.17z"/>
	<path clip-path="url(#SVGID_2_)" fill="#C4CD18" d="M39.852,410.17c0,0,3.463-8.375-12.905-7.704L39.852,410.17z"/>
	<path clip-path="url(#SVGID_2_)" fill="#A8B819" d="M39.852,410.17c0,0-5.729,7.021-12.905-7.704L39.852,410.17z"/>
	<path clip-path="url(#SVGID_2_)" fill="#C4CD18" d="M40.207,441.516c0,0-3.464-8.375,12.905-7.705L40.207,441.516z"/>
	<path clip-path="url(#SVGID_2_)" fill="#A8B819" d="M40.207,441.516c0,0,5.729,7.022,12.905-7.705L40.207,441.516z"/>
	<path clip-path="url(#SVGID_2_)" fill="#C4CD18" d="M39.852,441.516c0,0,3.463-8.375-12.905-7.705L39.852,441.516z"/>
	<path clip-path="url(#SVGID_2_)" fill="#A8B819" d="M39.852,441.516c0,0-5.729,7.022-12.905-7.705L39.852,441.516z"/>
	<path clip-path="url(#SVGID_2_)" fill="#C4CD18" d="M40.242,425.297c0,0-4.165-10.077,15.526-9.27L40.242,425.297z"/>
	<path clip-path="url(#SVGID_2_)" fill="#A8B819" d="M40.242,425.297c0,0,6.893,8.448,15.526-9.27L40.242,425.297z"/>
	<path clip-path="url(#SVGID_2_)" fill="#C4CD18" d="M39.816,425.297c0,0,4.166-10.077-15.527-9.27L39.816,425.297z"/>
	<path clip-path="url(#SVGID_2_)" fill="#A8B819" d="M39.816,425.297c0,0-6.893,8.448-15.527-9.27L39.816,425.297z"/>
	<path clip-path="url(#SVGID_2_)" fill="#C4CD18" d="M40.159,396.28c0,0-2.525-6.104,9.41-5.617L40.159,396.28z"/>
	<path clip-path="url(#SVGID_2_)" fill="#A8B819" d="M40.159,396.28c0,0,4.177,5.12,9.41-5.617L40.159,396.28z"/>
	<path clip-path="url(#SVGID_2_)" fill="#C4CD18" d="M39.899,396.28c0,0,2.525-6.104-9.409-5.617L39.899,396.28z"/>
	<path clip-path="url(#SVGID_2_)" fill="#A8B819" d="M39.899,396.28c0,0-4.176,5.12-9.409-5.617L39.899,396.28z"/>
	<path clip-path="url(#SVGID_2_)" fill="#C4CD18" d="M40.159,454.52c0,0-2.525-6.106,9.41-5.617L40.159,454.52z"/>
	<path clip-path="url(#SVGID_2_)" fill="#A8B819" d="M40.159,454.52c0,0,4.177,5.12,9.41-5.617L40.159,454.52z"/>
	<path clip-path="url(#SVGID_2_)" fill="#C4CD18" d="M39.899,454.52c0,0,2.525-6.106-9.409-5.617L39.899,454.52z"/>
	<path clip-path="url(#SVGID_2_)" fill="#A8B819" d="M39.899,454.52c0,0-4.176,5.12-9.409-5.617L39.899,454.52z"/>
	<rect x="39.671" y="381.64" clip-path="url(#SVGID_2_)" fill="#A8B819" width="0.668" height="36.459"/>
	<rect x="39.671" y="381.641" clip-path="url(#SVGID_2_)" fill="#A8B819" width="0.668" height="86.258"/>
	<path clip-path="url(#SVGID_2_)" fill="#C4CD18" d="M40.009,386.232c0,0-8.984-1.188-0.219-15.027L40.009,386.232z"/>
	<path clip-path="url(#SVGID_2_)" fill="#A8B819" d="M40.009,386.232c0,0,8.945-1.448-0.219-15.027L40.009,386.232z"/>
	<path clip-path="url(#SVGID_2_)" fill="#C4CD18" d="M598.615,409.399c0,0-3.463-8.377,12.904-7.706L598.615,409.399z"/>
	<path clip-path="url(#SVGID_2_)" fill="#A8B819" d="M598.615,409.399c0,0,5.729,7.021,12.904-7.706L598.615,409.399z"/>
	<path clip-path="url(#SVGID_2_)" fill="#C4CD18" d="M598.259,409.399c0,0,3.463-8.377-12.905-7.706L598.259,409.399z"/>
	<path clip-path="url(#SVGID_2_)" fill="#A8B819" d="M598.259,409.399c0,0-5.729,7.021-12.905-7.706L598.259,409.399z"/>
	<path clip-path="url(#SVGID_2_)" fill="#C4CD18" d="M598.615,440.745c0,0-3.463-8.376,12.904-7.704L598.615,440.745z"/>
	<path clip-path="url(#SVGID_2_)" fill="#A8B819" d="M598.615,440.745c0,0,5.729,7.021,12.904-7.704L598.615,440.745z"/>
	<path clip-path="url(#SVGID_2_)" fill="#C4CD18" d="M598.259,440.745c0,0,3.463-8.376-12.905-7.704L598.259,440.745z"/>
	<path clip-path="url(#SVGID_2_)" fill="#A8B819" d="M598.259,440.745c0,0-5.729,7.021-12.905-7.704L598.259,440.745z"/>
	<path clip-path="url(#SVGID_2_)" fill="#C4CD18" d="M598.65,424.526c0,0-4.165-10.078,15.525-9.271L598.65,424.526z"/>
	<path clip-path="url(#SVGID_2_)" fill="#A8B819" d="M598.65,424.526c0,0,6.893,8.447,15.525-9.271L598.65,424.526z"/>
	<path clip-path="url(#SVGID_2_)" fill="#C4CD18" d="M598.223,424.526c0,0,4.165-10.078-15.526-9.271L598.223,424.526z"/>
	<path clip-path="url(#SVGID_2_)" fill="#A8B819" d="M598.223,424.526c0,0-6.893,8.447-15.526-9.271L598.223,424.526z"/>
	<path clip-path="url(#SVGID_2_)" fill="#C4CD18" d="M598.566,395.509c0,0-2.525-6.105,9.409-5.616L598.566,395.509z"/>
	<path clip-path="url(#SVGID_2_)" fill="#A8B819" d="M598.566,395.509c0,0,4.178,5.121,9.409-5.616L598.566,395.509z"/>
	<path clip-path="url(#SVGID_2_)" fill="#C4CD18" d="M598.307,395.509c0,0,2.525-6.105-9.409-5.616L598.307,395.509z"/>
	<path clip-path="url(#SVGID_2_)" fill="#A8B819" d="M598.307,395.509c0,0-4.177,5.121-9.409-5.616L598.307,395.509z"/>
	<path clip-path="url(#SVGID_2_)" fill="#C4CD18" d="M598.566,453.748c0,0-2.525-6.105,9.409-5.616L598.566,453.748z"/>
	<path clip-path="url(#SVGID_2_)" fill="#A8B819" d="M598.566,453.748c0,0,4.178,5.119,9.409-5.616L598.566,453.748z"/>
	<path clip-path="url(#SVGID_2_)" fill="#C4CD18" d="M598.307,453.748c0,0,2.525-6.105-9.409-5.616L598.307,453.748z"/>
	<path clip-path="url(#SVGID_2_)" fill="#A8B819" d="M598.307,453.748c0,0-4.177,5.119-9.409-5.616L598.307,453.748z"/>
	<rect x="598.079" y="380.868" clip-path="url(#SVGID_2_)" fill="#A8B819" width="0.668" height="36.46"/>
	<rect x="598.079" y="380.868" clip-path="url(#SVGID_2_)" fill="#A8B819" width="0.668" height="86.259"/>
	<path clip-path="url(#SVGID_2_)" fill="#C4CD18" d="M598.417,385.461c0,0-8.984-1.187-0.22-15.026L598.417,385.461z"/>
	<path clip-path="url(#SVGID_2_)" fill="#A8B819" d="M598.417,385.461c0,0,8.945-1.449-0.22-15.026L598.417,385.461z"/>
	<path clip-path="url(#SVGID_2_)" fill="#C4CD18" d="M882.825,403.119c0,0-3.463-8.375,12.905-7.704L882.825,403.119z"/>
	<path clip-path="url(#SVGID_2_)" fill="#A8B819" d="M882.825,403.119c0,0,5.729,7.021,12.905-7.704L882.825,403.119z"/>
	<path clip-path="url(#SVGID_2_)" fill="#C4CD18" d="M882.469,403.119c0,0,3.463-8.375-12.904-7.704L882.469,403.119z"/>
	<path clip-path="url(#SVGID_2_)" fill="#A8B819" d="M882.469,403.119c0,0-5.729,7.021-12.904-7.704L882.469,403.119z"/>
	<path clip-path="url(#SVGID_2_)" fill="#C4CD18" d="M882.825,434.465c0,0-3.463-8.375,12.905-7.705L882.825,434.465z"/>
	<path clip-path="url(#SVGID_2_)" fill="#A8B819" d="M882.825,434.465c0,0,5.729,7.022,12.905-7.705L882.825,434.465z"/>
	<path clip-path="url(#SVGID_2_)" fill="#C4CD18" d="M882.469,434.465c0,0,3.463-8.375-12.904-7.705L882.469,434.465z"/>
	<path clip-path="url(#SVGID_2_)" fill="#A8B819" d="M882.469,434.465c0,0-5.729,7.022-12.904-7.705L882.469,434.465z"/>
	<path clip-path="url(#SVGID_2_)" fill="#C4CD18" d="M882.86,418.246c0,0-4.165-10.076,15.527-9.271L882.86,418.246z"/>
	<path clip-path="url(#SVGID_2_)" fill="#A8B819" d="M882.86,418.246c0,0,6.893,8.447,15.527-9.271L882.86,418.246z"/>
	<path clip-path="url(#SVGID_2_)" fill="#C4CD18" d="M882.434,418.246c0,0,4.164-10.076-15.526-9.271L882.434,418.246z"/>
	<path clip-path="url(#SVGID_2_)" fill="#A8B819" d="M882.434,418.246c0,0-6.894,8.447-15.526-9.271L882.434,418.246z"/>
	<path clip-path="url(#SVGID_2_)" fill="#C4CD18" d="M882.777,389.23c0,0-2.525-6.105,9.409-5.618L882.777,389.23z"/>
	<path clip-path="url(#SVGID_2_)" fill="#A8B819" d="M882.777,389.23c0,0,4.177,5.119,9.409-5.618L882.777,389.23z"/>
	<path clip-path="url(#SVGID_2_)" fill="#C4CD18" d="M882.518,389.23c0,0,2.524-6.105-9.409-5.618L882.518,389.23z"/>
	<path clip-path="url(#SVGID_2_)" fill="#A8B819" d="M882.518,389.23c0,0-4.178,5.119-9.409-5.618L882.518,389.23z"/>
	<path clip-path="url(#SVGID_2_)" fill="#C4CD18" d="M882.777,447.469c0,0-2.525-6.107,9.409-5.617L882.777,447.469z"/>
	<path clip-path="url(#SVGID_2_)" fill="#A8B819" d="M882.777,447.469c0,0,4.177,5.12,9.409-5.617L882.777,447.469z"/>
	<path clip-path="url(#SVGID_2_)" fill="#C4CD18" d="M882.518,447.469c0,0,2.524-6.107-9.409-5.617L882.518,447.469z"/>
	<path clip-path="url(#SVGID_2_)" fill="#A8B819" d="M882.518,447.469c0,0-4.178,5.12-9.409-5.617L882.518,447.469z"/>
	<rect x="882.29" y="374.59" clip-path="url(#SVGID_2_)" fill="#A8B819" width="0.668" height="36.458"/>
	<rect x="882.29" y="374.59" clip-path="url(#SVGID_2_)" fill="#A8B819" width="0.668" height="86.259"/>
	<path clip-path="url(#SVGID_2_)" fill="#C4CD18" d="M882.627,379.182c0,0-8.984-1.188-0.22-15.027L882.627,379.182z"/>
	<path clip-path="url(#SVGID_2_)" fill="#A8B819" d="M882.627,379.182c0,0,8.945-1.448-0.22-15.027L882.627,379.182z"/>
	<path clip-path="url(#SVGID_2_)" fill="#C4CD18" d="M154.527,429.46c0,0-2.305-5.577,8.593-5.13L154.527,429.46z"/>
	<path clip-path="url(#SVGID_2_)" fill="#A8B819" d="M154.527,429.46c0,0,3.815,4.675,8.593-5.13L154.527,429.46z"/>
	<path clip-path="url(#SVGID_2_)" fill="#C4CD18" d="M154.291,429.46c0,0,2.307-5.577-8.593-5.13L154.291,429.46z"/>
	<path clip-path="url(#SVGID_2_)" fill="#A8B819" d="M154.291,429.46c0,0-3.814,4.675-8.593-5.13L154.291,429.46z"/>
	<path clip-path="url(#SVGID_2_)" fill="#C4CD18" d="M154.527,450.331c0,0-2.305-5.576,8.593-5.129L154.527,450.331z"/>
	<path clip-path="url(#SVGID_2_)" fill="#A8B819" d="M154.527,450.331c0,0,3.815,4.677,8.593-5.129L154.527,450.331z"/>
	<path clip-path="url(#SVGID_2_)" fill="#C4CD18" d="M154.291,450.331c0,0,2.307-5.576-8.593-5.129L154.291,450.331z"/>
	<path clip-path="url(#SVGID_2_)" fill="#A8B819" d="M154.291,450.331c0,0-3.814,4.677-8.593-5.129L154.291,450.331z"/>
	<path clip-path="url(#SVGID_2_)" fill="#C4CD18" d="M154.551,439.532c0,0-2.773-6.71,10.338-6.173L154.551,439.532z"/>
	<path clip-path="url(#SVGID_2_)" fill="#A8B819" d="M154.551,439.532c0,0,4.589,5.625,10.338-6.173L154.551,439.532z"/>
	<path clip-path="url(#SVGID_2_)" fill="#C4CD18" d="M154.267,439.532c0,0,2.773-6.71-10.338-6.173L154.267,439.532z"/>
	<path clip-path="url(#SVGID_2_)" fill="#A8B819" d="M154.267,439.532c0,0-4.589,5.625-10.338-6.173L154.267,439.532z"/>
	<path clip-path="url(#SVGID_2_)" fill="#C4CD18" d="M154.496,420.212c0,0-1.681-4.065,6.265-3.74L154.496,420.212z"/>
	<path clip-path="url(#SVGID_2_)" fill="#A8B819" d="M154.496,420.212c0,0,2.782,3.409,6.265-3.74L154.496,420.212z"/>
	<path clip-path="url(#SVGID_2_)" fill="#C4CD18" d="M154.323,420.212c0,0,1.681-4.065-6.265-3.74L154.323,420.212z"/>
	<path clip-path="url(#SVGID_2_)" fill="#A8B819" d="M154.323,420.212c0,0-2.782,3.409-6.265-3.74L154.323,420.212z"/>
	<path clip-path="url(#SVGID_2_)" fill="#C4CD18" d="M154.496,458.989c0,0-1.681-4.064,6.265-3.738L154.496,458.989z"/>
	<path clip-path="url(#SVGID_2_)" fill="#A8B819" d="M154.496,458.989c0,0,2.782,3.41,6.265-3.738L154.496,458.989z"/>
	<path clip-path="url(#SVGID_2_)" fill="#C4CD18" d="M154.323,458.989c0,0,1.681-4.064-6.265-3.738L154.323,458.989z"/>
	<path clip-path="url(#SVGID_2_)" fill="#A8B819" d="M154.323,458.989c0,0-2.782,3.41-6.265-3.738L154.323,458.989z"/>
	<rect x="154.171" y="410.463" clip-path="url(#SVGID_2_)" fill="#A8B819" width="0.444" height="24.276"/>
	<rect x="154.171" y="410.463" clip-path="url(#SVGID_2_)" fill="#A8B819" width="0.444" height="57.436"/>
	<path clip-path="url(#SVGID_2_)" fill="#C4CD18" d="M154.396,413.521c0,0-5.982-0.79-0.146-10.005L154.396,413.521z"/>
	<path clip-path="url(#SVGID_2_)" fill="#A8B819" d="M154.396,413.521c0,0,5.957-0.965-0.146-10.005L154.396,413.521z"/>
	<path clip-path="url(#SVGID_2_)" fill="#C4CD18" d="M768.821,423.213c0,0-2.306-5.577,8.593-5.13L768.821,423.213z"/>
	<path clip-path="url(#SVGID_2_)" fill="#A8B819" d="M768.821,423.213c0,0,3.815,4.676,8.593-5.13L768.821,423.213z"/>
	<path clip-path="url(#SVGID_2_)" fill="#C4CD18" d="M768.584,423.213c0,0,2.307-5.577-8.594-5.13L768.584,423.213z"/>
	<path clip-path="url(#SVGID_2_)" fill="#A8B819" d="M768.584,423.213c0,0-3.814,4.676-8.594-5.13L768.584,423.213z"/>
	<path clip-path="url(#SVGID_2_)" fill="#C4CD18" d="M768.821,444.084c0,0-2.306-5.576,8.593-5.13L768.821,444.084z"/>
	<path clip-path="url(#SVGID_2_)" fill="#A8B819" d="M768.821,444.084c0,0,3.815,4.676,8.593-5.13L768.821,444.084z"/>
	<path clip-path="url(#SVGID_2_)" fill="#C4CD18" d="M768.584,444.084c0,0,2.307-5.576-8.594-5.13L768.584,444.084z"/>
	<path clip-path="url(#SVGID_2_)" fill="#A8B819" d="M768.584,444.084c0,0-3.814,4.676-8.594-5.13L768.584,444.084z"/>
	<path clip-path="url(#SVGID_2_)" fill="#C4CD18" d="M768.845,433.285c0,0-2.775-6.709,10.338-6.172L768.845,433.285z"/>
	<path clip-path="url(#SVGID_2_)" fill="#A8B819" d="M768.845,433.285c0,0,4.588,5.625,10.338-6.172L768.845,433.285z"/>
	<path clip-path="url(#SVGID_2_)" fill="#C4CD18" d="M768.56,433.285c0,0,2.773-6.709-10.338-6.172L768.56,433.285z"/>
	<path clip-path="url(#SVGID_2_)" fill="#A8B819" d="M768.56,433.285c0,0-4.59,5.625-10.338-6.172L768.56,433.285z"/>
	<path clip-path="url(#SVGID_2_)" fill="#C4CD18" d="M768.789,413.964c0,0-1.682-4.064,6.264-3.739L768.789,413.964z"/>
	<path clip-path="url(#SVGID_2_)" fill="#A8B819" d="M768.789,413.964c0,0,2.781,3.41,6.264-3.739L768.789,413.964z"/>
	<path clip-path="url(#SVGID_2_)" fill="#C4CD18" d="M768.616,413.964c0,0,1.682-4.064-6.266-3.739L768.616,413.964z"/>
	<path clip-path="url(#SVGID_2_)" fill="#A8B819" d="M768.616,413.964c0,0-2.781,3.41-6.266-3.739L768.616,413.964z"/>
	<path clip-path="url(#SVGID_2_)" fill="#C4CD18" d="M768.789,452.743c0,0-1.682-4.066,6.264-3.74L768.789,452.743z"/>
	<path clip-path="url(#SVGID_2_)" fill="#A8B819" d="M768.789,452.743c0,0,2.781,3.409,6.264-3.74L768.789,452.743z"/>
	<path clip-path="url(#SVGID_2_)" fill="#C4CD18" d="M768.616,452.743c0,0,1.682-4.066-6.266-3.74L768.616,452.743z"/>
	<path clip-path="url(#SVGID_2_)" fill="#A8B819" d="M768.616,452.743c0,0-2.781,3.409-6.266-3.74L768.616,452.743z"/>
	<rect x="768.465" y="404.217" clip-path="url(#SVGID_2_)" fill="#A8B819" width="0.443" height="24.275"/>
	<rect x="768.465" y="404.217" clip-path="url(#SVGID_2_)" fill="#A8B819" width="0.443" height="66.307"/>
	<path clip-path="url(#SVGID_2_)" fill="#C4CD18" d="M768.689,407.274c0,0-5.981-0.791-0.146-10.007L768.689,407.274z"/>
	<path clip-path="url(#SVGID_2_)" fill="#A8B819" d="M768.689,407.274c0,0,5.956-0.965-0.146-10.007L768.689,407.274z"/>
	<rect x="682.551" y="417.521" clip-path="url(#SVGID_2_)" fill="#AF9E8C" width="5.635" height="54.855"/>
	<path clip-path="url(#SVGID_2_)" fill="#A8B819" d="M647.381,393.485c0,20.887,16.932,37.817,37.816,37.817V355.67
		C664.313,355.67,647.381,372.602,647.381,393.485"/>
	<path clip-path="url(#SVGID_2_)" fill="#C4CD18" d="M685.198,355.67v75.633c20.886,0,37.818-16.931,37.818-37.817
		C723.016,372.602,706.083,355.67,685.198,355.67"/>
	<path clip-path="url(#SVGID_2_)" fill="#A8B819" d="M636.579,362.79c0,9.991,8.097,18.089,18.088,18.089v-36.177
		C644.675,344.702,636.579,352.803,636.579,362.79"/>
	<path clip-path="url(#SVGID_2_)" fill="#C4CD18" d="M654.667,344.703v36.176c9.99,0,18.087-8.098,18.087-18.089
		C672.753,352.803,664.657,344.703,654.667,344.703"/>
	<path clip-path="url(#SVGID_2_)" fill="#A8B819" d="M694.753,391.094c0,9.99,8.098,18.09,18.088,18.09v-36.175
		C702.851,373.009,694.753,381.104,694.753,391.094"/>
	<path clip-path="url(#SVGID_2_)" fill="#C4CD18" d="M712.841,373.009v36.175c9.989,0,18.088-8.1,18.088-18.09
		C730.929,381.104,722.831,373.009,712.841,373.009"/>
	<path clip-path="url(#SVGID_2_)" fill="#A8B819" d="M660.158,341.418c0,13.737,11.136,24.874,24.87,24.874v-49.743
		C671.293,316.549,660.158,327.684,660.158,341.418"/>
	<path clip-path="url(#SVGID_2_)" fill="#C4CD18" d="M685.028,316.549v49.743c13.737,0,24.874-11.137,24.874-24.874
		C709.902,327.684,698.765,316.549,685.028,316.549"/>
	<path clip-path="url(#SVGID_2_)" fill="#A8B819" d="M663.742,318.937c0,6.532,5.294,11.824,11.823,11.824v-23.645
		C669.036,307.116,663.742,312.41,663.742,318.937"/>
	<path clip-path="url(#SVGID_2_)" fill="#C4CD18" d="M675.565,307.116v23.645c6.529,0,11.822-5.292,11.822-11.824
		C687.387,312.41,682.094,307.116,675.565,307.116"/>
	<rect x="543.012" y="427.624" clip-path="url(#SVGID_2_)" fill="#AF9E8C" width="4.189" height="40.784"/>
	<path clip-path="url(#SVGID_2_)" fill="#A8B819" d="M573.351,409.752c0,15.529-12.59,28.116-28.117,28.116v-56.232
		C560.761,381.636,573.351,394.225,573.351,409.752"/>
	<path clip-path="url(#SVGID_2_)" fill="#C4CD18" d="M545.234,381.636v56.232c-15.529,0-28.119-12.587-28.119-28.116
		C517.115,394.225,529.705,381.636,545.234,381.636"/>
	<path clip-path="url(#SVGID_2_)" fill="#A8B819" d="M581.382,386.93c0,7.427-6.021,13.449-13.448,13.449V373.48
		C575.362,373.48,581.382,379.503,581.382,386.93"/>
	<path clip-path="url(#SVGID_2_)" fill="#C4CD18" d="M567.934,373.481v26.897c-7.429,0-13.448-6.022-13.448-13.449
		S560.505,373.481,567.934,373.481"/>
	<path clip-path="url(#SVGID_2_)" fill="#A8B819" d="M538.128,407.974c0,7.427-6.021,13.448-13.447,13.448v-26.895
		C532.108,394.527,538.128,400.547,538.128,407.974"/>
	<path clip-path="url(#SVGID_2_)" fill="#C4CD18" d="M524.681,394.527v26.896c-7.429,0-13.449-6.022-13.449-13.449
		S517.252,394.527,524.681,394.527"/>
	<path clip-path="url(#SVGID_2_)" fill="#A8B819" d="M563.851,371.039c0,10.214-8.28,18.494-18.492,18.494v-36.985
		C555.571,352.548,563.851,360.828,563.851,371.039"/>
	<path clip-path="url(#SVGID_2_)" fill="#C4CD18" d="M545.359,352.548v36.985c-10.213,0-18.493-8.28-18.493-18.495
		C526.866,360.828,535.146,352.548,545.359,352.548"/>
	<path clip-path="url(#SVGID_2_)" fill="#A8B819" d="M561.185,354.324c0,4.856-3.936,8.791-8.79,8.791v-17.58
		C557.25,345.535,561.185,349.472,561.185,354.324"/>
	<path clip-path="url(#SVGID_2_)" fill="#C4CD18" d="M552.395,345.535v17.58c-4.854,0-8.79-3.935-8.79-8.791
		C543.605,349.471,547.541,345.535,552.395,345.535"/>
	<path clip-path="url(#SVGID_2_)" fill="#C4CD18" d="M287.329,433.515c0,0-4.445-10.748,16.564-9.888L287.329,433.515z"/>
	<path clip-path="url(#SVGID_2_)" fill="#A8B819" d="M287.329,433.515c0,0,7.353,9.013,16.564-9.888L287.329,433.515z"/>
	<path clip-path="url(#SVGID_2_)" fill="#C4CD18" d="M286.874,433.515c0,0,4.446-10.748-16.564-9.888L286.874,433.515z"/>
	<path clip-path="url(#SVGID_2_)" fill="#A8B819" d="M286.874,433.515c0,0-7.352,9.013-16.564-9.888L286.874,433.515z"/>
	<rect x="286.644" y="396.9" clip-path="url(#SVGID_2_)" fill="#A8B819" width="0.856" height="67.573"/>
	<polygon clip-path="url(#SVGID_2_)" fill="#D3CBE6" points="274.206,373.179 286.936,376.906 299.667,373.179 295.938,385.908 
		299.667,398.638 286.937,394.91 274.207,398.638 277.935,385.907 	"/>
	<polygon clip-path="url(#SVGID_2_)" fill="#F29496" points="286.936,367.904 293.3,379.543 304.938,385.908 293.301,392.272 
		286.936,403.91 280.571,392.272 268.933,385.908 280.571,379.543 	"/>
	<polygon clip-path="url(#SVGID_2_)" fill="#FCCA87" points="295.593,377.251 293.058,385.908 295.593,394.567 286.935,392.03 
		278.279,394.567 280.813,385.908 278.279,377.251 286.935,379.786 	"/>
	<polygon clip-path="url(#SVGID_2_)" fill="#FFE9A7" points="277.754,385.908 283.689,382.663 286.936,376.726 290.184,382.663 
		296.119,385.908 290.184,389.156 286.936,395.09 283.689,389.156 	"/>
	<path clip-path="url(#SVGID_2_)" fill="#C4CD18" d="M932.004,433.515c0,0-4.445-10.748,16.563-9.888L932.004,433.515z"/>
	<path clip-path="url(#SVGID_2_)" fill="#A8B819" d="M932.004,433.515c0,0,7.353,9.013,16.563-9.888L932.004,433.515z"/>
	<path clip-path="url(#SVGID_2_)" fill="#C4CD18" d="M931.548,433.515c0,0,4.445-10.748-16.564-9.888L931.548,433.515z"/>
	<path clip-path="url(#SVGID_2_)" fill="#A8B819" d="M931.548,433.515c0,0-7.353,9.013-16.564-9.888L931.548,433.515z"/>
	<rect x="931.318" y="396.9" clip-path="url(#SVGID_2_)" fill="#A8B819" width="0.857" height="67.573"/>
	<polygon clip-path="url(#SVGID_2_)" fill="#D3CBE6" points="918.88,373.179 931.61,376.906 944.341,373.179 940.613,385.908 
		944.341,398.638 931.612,394.91 918.881,398.638 922.61,385.907 	"/>
	<polygon clip-path="url(#SVGID_2_)" fill="#F29496" points="931.61,367.904 937.974,379.543 949.613,385.908 937.975,392.272 
		931.61,403.91 925.246,392.272 913.608,385.908 925.246,379.543 	"/>
	<polygon clip-path="url(#SVGID_2_)" fill="#FCCA87" points="940.268,377.251 937.733,385.908 940.268,394.567 931.61,392.03 
		922.954,394.567 925.488,385.908 922.954,377.251 931.61,379.786 	"/>
	<polygon clip-path="url(#SVGID_2_)" fill="#FFE9A7" points="922.429,385.908 928.364,382.663 931.61,376.726 934.858,382.663 
		940.793,385.908 934.858,389.156 931.61,395.09 928.364,389.156 	"/>
	<rect x="190.648" y="430.498" clip-path="url(#SVGID_2_)" fill="#94C24B" width="1.551" height="33.322"/>
	<path clip-path="url(#SVGID_2_)" fill="#F29496" d="M195.678,422.05c0,2.351-1.904,4.255-4.254,4.255
		c-2.35,0-4.254-1.904-4.254-4.255c0-2.35,1.905-4.255,4.254-4.255C193.773,417.795,195.678,419.7,195.678,422.05"/>
	<path clip-path="url(#SVGID_2_)" fill="#F29496" d="M188.131,427.533c0,2.349-1.905,4.255-4.254,4.255
		c-2.351,0-4.255-1.906-4.255-4.255c0-2.35,1.904-4.255,4.255-4.255C186.226,423.278,188.131,425.184,188.131,427.533"/>
	<path clip-path="url(#SVGID_2_)" fill="#F29496" d="M203.225,427.533c0,2.349-1.905,4.255-4.255,4.255
		c-2.349,0-4.253-1.906-4.253-4.255c0-2.35,1.904-4.255,4.253-4.255C201.32,423.278,203.225,425.184,203.225,427.533"/>
	<path clip-path="url(#SVGID_2_)" fill="#F29496" d="M200.195,436.405c0,2.348-1.905,4.253-4.255,4.253
		c-2.35,0-4.254-1.905-4.254-4.253c0-2.349,1.905-4.255,4.254-4.255C198.291,432.15,200.195,434.057,200.195,436.405"/>
	<path clip-path="url(#SVGID_2_)" fill="#F29496" d="M191.014,436.405c0,2.348-1.905,4.253-4.255,4.253
		c-2.35,0-4.254-1.905-4.254-4.253c0-2.349,1.905-4.255,4.254-4.255C189.109,432.15,191.014,434.057,191.014,436.405"/>
	<path clip-path="url(#SVGID_2_)" fill="#FFE9A7" d="M197.176,429.899c0,3.179-2.576,5.756-5.752,5.756s-5.753-2.577-5.753-5.756
		c0-3.176,2.576-5.751,5.753-5.751S197.176,426.724,197.176,429.899"/>
	<path clip-path="url(#SVGID_2_)" fill="#6DA92E" d="M191.118,448.369c0,0-3.719,4.742-8.677-4.957L191.118,448.369z"/>
	<path clip-path="url(#SVGID_2_)" fill="#94C24B" d="M191.118,448.369c0,0,2.194-5.611-8.677-4.957L191.118,448.369z"/>
	<rect x="627.126" y="431.184" clip-path="url(#SVGID_2_)" fill="#94C24B" width="1.552" height="33.322"/>
	<path clip-path="url(#SVGID_2_)" fill="#F29496" d="M623.648,422.735c0,2.351,1.904,4.255,4.255,4.255
		c2.35,0,4.254-1.904,4.254-4.255s-1.904-4.255-4.254-4.255C625.552,418.48,623.648,420.385,623.648,422.735"/>
	<path clip-path="url(#SVGID_2_)" fill="#F29496" d="M631.195,428.219c0,2.349,1.905,4.255,4.254,4.255
		c2.351,0,4.255-1.906,4.255-4.255c0-2.35-1.904-4.256-4.255-4.256C633.1,423.963,631.195,425.869,631.195,428.219"/>
	<path clip-path="url(#SVGID_2_)" fill="#F29496" d="M616.101,428.219c0,2.349,1.904,4.255,4.255,4.255
		c2.349,0,4.254-1.906,4.254-4.255c0-2.35-1.905-4.256-4.254-4.256C618.005,423.963,616.101,425.869,616.101,428.219"/>
	<path clip-path="url(#SVGID_2_)" fill="#F29496" d="M619.13,437.092c0,2.348,1.905,4.252,4.255,4.252s4.254-1.904,4.254-4.252
		c0-2.35-1.904-4.256-4.254-4.256S619.13,434.742,619.13,437.092"/>
	<path clip-path="url(#SVGID_2_)" fill="#F29496" d="M628.312,437.092c0,2.348,1.904,4.252,4.255,4.252
		c2.349,0,4.254-1.904,4.254-4.252c0-2.35-1.905-4.256-4.254-4.256C630.216,432.836,628.312,434.742,628.312,437.092"/>
	<path clip-path="url(#SVGID_2_)" fill="#FFE9A7" d="M622.149,430.585c0,3.18,2.577,5.755,5.754,5.755s5.753-2.575,5.753-5.755
		c0-3.177-2.576-5.751-5.753-5.751S622.149,427.408,622.149,430.585"/>
	<path clip-path="url(#SVGID_2_)" fill="#6DA92E" d="M628.208,449.055c0,0,3.718,4.741,8.676-4.957L628.208,449.055z"/>
	<path clip-path="url(#SVGID_2_)" fill="#94C24B" d="M628.208,449.055c0,0-2.195-5.61,8.676-4.957L628.208,449.055z"/>
	<rect x="410.08" y="430.498" clip-path="url(#SVGID_2_)" fill="#94C24B" width="1.552" height="33.322"/>
	<path clip-path="url(#SVGID_2_)" fill="#F29496" d="M415.11,422.05c0,2.351-1.906,4.255-4.255,4.255s-4.254-1.904-4.254-4.255
		c0-2.35,1.905-4.255,4.254-4.255S415.11,419.7,415.11,422.05"/>
	<path clip-path="url(#SVGID_2_)" fill="#F29496" d="M407.563,427.533c0,2.349-1.905,4.255-4.254,4.255
		c-2.35,0-4.255-1.906-4.255-4.255c0-2.35,1.905-4.255,4.255-4.255C405.658,423.278,407.563,425.184,407.563,427.533"/>
	<path clip-path="url(#SVGID_2_)" fill="#F29496" d="M422.657,427.533c0,2.349-1.905,4.255-4.254,4.255s-4.254-1.906-4.254-4.255
		c0-2.35,1.905-4.255,4.254-4.255S422.657,425.184,422.657,427.533"/>
	<path clip-path="url(#SVGID_2_)" fill="#F29496" d="M419.628,436.405c0,2.348-1.906,4.253-4.255,4.253
		c-2.35,0-4.254-1.905-4.254-4.253c0-2.349,1.904-4.255,4.254-4.255C417.722,432.15,419.628,434.057,419.628,436.405"/>
	<path clip-path="url(#SVGID_2_)" fill="#F29496" d="M410.447,436.405c0,2.348-1.904,4.253-4.256,4.253
		c-2.35,0-4.254-1.905-4.254-4.253c0-2.349,1.904-4.255,4.254-4.255C408.542,432.15,410.447,434.057,410.447,436.405"/>
	<path clip-path="url(#SVGID_2_)" fill="#FFE9A7" d="M416.607,429.899c0,3.179-2.575,5.756-5.753,5.756
		c-3.177,0-5.752-2.577-5.752-5.756c0-3.176,2.575-5.751,5.752-5.751C414.033,424.148,416.607,426.724,416.607,429.899"/>
	<path clip-path="url(#SVGID_2_)" fill="#6DA92E" d="M410.55,448.369c0,0-3.719,4.742-8.676-4.957L410.55,448.369z"/>
	<path clip-path="url(#SVGID_2_)" fill="#94C24B" d="M410.55,448.369c0,0,2.195-5.611-8.676-4.957L410.55,448.369z"/>
	<rect x="462.25" y="437.828" clip-path="url(#SVGID_2_)" fill="#94C24B" width="1.179" height="31.379"/>
	<path clip-path="url(#SVGID_2_)" fill="#F29496" d="M466.07,431.413c0,1.785-1.448,3.229-3.232,3.229
		c-1.784,0-3.232-1.444-3.232-3.229c0-1.786,1.448-3.232,3.232-3.232C464.623,428.181,466.07,429.627,466.07,431.413"/>
	<path clip-path="url(#SVGID_2_)" fill="#F29496" d="M460.338,435.576c0,1.783-1.446,3.23-3.23,3.23
		c-1.785,0-3.232-1.447-3.232-3.23c0-1.784,1.447-3.231,3.232-3.231C458.892,432.345,460.338,433.792,460.338,435.576"/>
	<path clip-path="url(#SVGID_2_)" fill="#F29496" d="M471.802,435.576c0,1.783-1.447,3.23-3.231,3.23s-3.232-1.447-3.232-3.23
		c0-1.784,1.448-3.231,3.232-3.231S471.802,433.792,471.802,435.576"/>
	<path clip-path="url(#SVGID_2_)" fill="#F29496" d="M469.501,442.314c0,1.784-1.447,3.23-3.232,3.23s-3.231-1.446-3.231-3.23
		s1.447-3.231,3.231-3.231S469.501,440.53,469.501,442.314"/>
	<path clip-path="url(#SVGID_2_)" fill="#F29496" d="M462.528,442.314c0,1.784-1.447,3.23-3.231,3.23
		c-1.785,0-3.232-1.446-3.232-3.23s1.447-3.231,3.232-3.231C461.082,439.083,462.528,440.53,462.528,442.314"/>
	<path clip-path="url(#SVGID_2_)" fill="#FFE9A7" d="M467.208,437.373c0,2.415-1.955,4.37-4.369,4.37
		c-2.413,0-4.367-1.955-4.367-4.37c0-2.41,1.955-4.368,4.367-4.368C465.253,433.005,467.208,434.963,467.208,437.373"/>
	<path clip-path="url(#SVGID_2_)" fill="#6DA92E" d="M462.607,451.401c0,0-2.824,3.601-6.59-3.765L462.607,451.401z"/>
	<path clip-path="url(#SVGID_2_)" fill="#94C24B" d="M462.607,451.401c0,0,1.667-4.262-6.59-3.765L462.607,451.401z"/>
	<rect x="265.969" y="441.083" clip-path="url(#SVGID_2_)" fill="#94C24B" width="1.097" height="23.55"/>
	<path clip-path="url(#SVGID_2_)" fill="#F29496" d="M263.511,435.112c0,1.661,1.346,3.007,3.007,3.007
		c1.66,0,3.007-1.346,3.007-3.007s-1.347-3.007-3.007-3.007C264.857,432.105,263.511,433.451,263.511,435.112"/>
	<path clip-path="url(#SVGID_2_)" fill="#F29496" d="M268.845,438.986c0,1.661,1.346,3.009,3.006,3.009
		c1.661,0,3.007-1.348,3.007-3.009c0-1.66-1.346-3.006-3.007-3.006C270.191,435.98,268.845,437.326,268.845,438.986"/>
	<path clip-path="url(#SVGID_2_)" fill="#F29496" d="M258.177,438.986c0,1.661,1.346,3.009,3.008,3.009
		c1.66,0,3.006-1.348,3.006-3.009c0-1.66-1.346-3.006-3.006-3.006C259.523,435.98,258.177,437.326,258.177,438.986"/>
	<path clip-path="url(#SVGID_2_)" fill="#F29496" d="M260.318,445.259c0,1.659,1.346,3.005,3.007,3.005s3.007-1.346,3.007-3.005
		c0-1.661-1.346-3.007-3.007-3.007S260.318,443.598,260.318,445.259"/>
	<path clip-path="url(#SVGID_2_)" fill="#F29496" d="M266.807,445.259c0,1.659,1.347,3.005,3.008,3.005s3.006-1.346,3.006-3.005
		c0-1.661-1.346-3.007-3.006-3.007S266.807,443.598,266.807,445.259"/>
	<path clip-path="url(#SVGID_2_)" fill="#FFE9A7" d="M262.452,440.659c0,2.247,1.82,4.067,4.066,4.067
		c2.246,0,4.065-1.82,4.065-4.067c0-2.243-1.819-4.063-4.065-4.063C264.272,436.596,262.452,438.416,262.452,440.659"/>
	<path clip-path="url(#SVGID_2_)" fill="#6DA92E" d="M266.733,453.713c0,0,2.628,3.351,6.133-3.503L266.733,453.713z"/>
	<path clip-path="url(#SVGID_2_)" fill="#94C24B" d="M266.733,453.713c0,0-1.55-3.965,6.133-3.503L266.733,453.713z"/>
	<rect x="904.199" y="441.083" clip-path="url(#SVGID_2_)" fill="#94C24B" width="1.097" height="23.55"/>
	<path clip-path="url(#SVGID_2_)" fill="#F29496" d="M901.741,435.112c0,1.661,1.346,3.007,3.007,3.007s3.007-1.346,3.007-3.007
		s-1.346-3.007-3.007-3.007S901.741,433.451,901.741,435.112"/>
	<path clip-path="url(#SVGID_2_)" fill="#F29496" d="M907.075,438.986c0,1.661,1.346,3.009,3.006,3.009
		c1.661,0,3.007-1.348,3.007-3.009c0-1.66-1.346-3.006-3.007-3.006C908.42,435.98,907.075,437.326,907.075,438.986"/>
	<path clip-path="url(#SVGID_2_)" fill="#F29496" d="M896.407,438.986c0,1.661,1.346,3.009,3.007,3.009
		c1.66,0,3.007-1.348,3.007-3.009c0-1.66-1.347-3.006-3.007-3.006C897.752,435.98,896.407,437.326,896.407,438.986"/>
	<path clip-path="url(#SVGID_2_)" fill="#F29496" d="M898.548,445.259c0,1.659,1.345,3.005,3.007,3.005
		c1.66,0,3.006-1.346,3.006-3.005c0-1.661-1.346-3.007-3.006-3.007C899.893,442.252,898.548,443.598,898.548,445.259"/>
	<path clip-path="url(#SVGID_2_)" fill="#F29496" d="M905.036,445.259c0,1.659,1.348,3.005,3.008,3.005
		c1.661,0,3.007-1.346,3.007-3.005c0-1.661-1.346-3.007-3.007-3.007C906.383,442.252,905.036,443.598,905.036,445.259"/>
	<path clip-path="url(#SVGID_2_)" fill="#FFE9A7" d="M900.682,440.659c0,2.247,1.819,4.067,4.065,4.067
		c2.245,0,4.064-1.82,4.064-4.067c0-2.243-1.819-4.063-4.064-4.063C902.501,436.596,900.682,438.416,900.682,440.659"/>
	<path clip-path="url(#SVGID_2_)" fill="#6DA92E" d="M904.963,453.713c0,0,2.628,3.351,6.133-3.503L904.963,453.713z"/>
	<path clip-path="url(#SVGID_2_)" fill="#94C24B" d="M904.963,453.713c0,0-1.552-3.965,6.133-3.503L904.963,453.713z"/>
	<path clip-path="url(#SVGID_2_)" fill="#C4CD18" d="M797.94,406.879c0,0-4.445-10.748,16.563-9.888L797.94,406.879z"/>
	<path clip-path="url(#SVGID_2_)" fill="#A8B819" d="M797.94,406.879c0,0,7.354,9.014,16.563-9.888L797.94,406.879z"/>
	<path clip-path="url(#SVGID_2_)" fill="#C4CD18" d="M797.484,406.879c0,0,4.445-10.748-16.563-9.888L797.484,406.879z"/>
	<path clip-path="url(#SVGID_2_)" fill="#A8B819" d="M797.484,406.879c0,0-7.352,9.014-16.563-9.888L797.484,406.879z"/>
	<rect x="797.252" y="370.262" clip-path="url(#SVGID_2_)" fill="#A8B819" width="0.857" height="93.136"/>
	<polygon clip-path="url(#SVGID_2_)" fill="#D3CBE6" points="784.815,346.543 797.545,350.271 810.276,346.543 806.548,359.273 
		810.276,372.002 797.546,368.274 784.817,372.002 788.544,359.272 	"/>
	<polygon clip-path="url(#SVGID_2_)" fill="#F29496" points="797.545,341.27 803.91,352.908 815.547,359.273 803.911,365.637 
		797.545,377.274 791.181,365.637 779.542,359.273 791.181,352.908 	"/>
	<polygon clip-path="url(#SVGID_2_)" fill="#FCCA87" points="806.204,350.615 803.667,359.273 806.204,367.931 797.545,365.396 
		788.889,367.931 791.423,359.273 788.889,350.615 797.545,353.151 	"/>
	<polygon clip-path="url(#SVGID_2_)" fill="#FFE9A7" points="788.364,359.273 794.298,356.027 797.545,350.09 800.794,356.027 
		806.729,359.273 800.794,362.521 797.545,368.454 794.298,362.521 	"/>
	<path clip-path="url(#SVGID_2_)" fill="#94C24B" d="M131.036,469.068l-5.82-18.182l-1.817,17.093l-4.727-16.001v16.001
		l-11.686-28.003l0.412,27.273l-2.183-19.273l-3.635,19.273l-1.819-4.728l-2.181,4.728v-3.999l-6.91,5.091v-28.365l-6.911,26.547
		v-21.091l-7.636,21.454l-4.97-12.363l-2.168,5.949l-2.438-12.618l-1.598,15.438l-0.423,0.216l-4.281-17.228
		c0,0-1.66,13.329-2.62,20.761l-0.412,0.209l-7.272-11.801l-3.395,11.801l-4.365-6.302l-4.361,6.302l-3.579-7.57l-7.09,6.601
		v-20.848l-2.909,20.848l-3.757-3.879l-5.819,5.334l-3.394-9.334l0.121,10.062l-2.061-7.515l-2.545,5.817L0,447.857v28.275h138.286
		v-27.429L131.036,469.068z"/>
	<path clip-path="url(#SVGID_2_)" fill="#94C24B" d="M269.321,469.068l-5.818-18.182l-1.819,17.093l-4.726-16.001v16.001
		l-11.686-28.003l0.412,27.273l-2.182-19.273l-3.636,19.273l-1.818-4.728l-2.181,4.728v-3.999l-6.911,5.091v-28.365l-6.91,26.547
		v-21.091l-7.635,21.454l-4.969-12.363l-2.169,5.949l-2.439-12.618l-1.598,15.438l-0.423,0.216l-4.28-17.228
		c0,0-1.66,13.329-2.62,20.761l-0.412,0.209l-7.272-11.801l-3.394,11.801l-4.365-6.302l-4.363,6.302l-3.395-32.485l-7.273,31.516
		v-20.848l-2.909,20.848l-3.757-3.879l-5.819,5.334l-3.394-9.334l0.122,10.062l-2.061-7.515l-2.546,5.817l-6.788-18.908v28.275
		h138.285v-27.429L269.321,469.068z"/>
	<path clip-path="url(#SVGID_2_)" fill="#94C24B" d="M407.607,469.068l-5.818-18.182l-1.819,17.093l-4.726-16.001v16.001
		l-11.686-28.003l0.413,27.273l-2.183-19.273l-3.636,19.273l-1.819-4.728l-2.181,4.728v-3.999l-6.91,5.091v-28.365l-6.911,26.547
		v-21.091l-7.636,21.454l-4.97-12.363l-2.168,5.949l-2.439-12.618l-1.597,15.438l-0.424,0.216l-4.28-17.228
		c0,0-1.659,13.329-2.62,20.761l-0.412,0.209l-7.272-11.801l-3.394,11.801l-4.365-6.302l-4.362,6.302l-3.395-32.485l-7.274,31.516
		v-20.848l-2.909,20.848l-3.757-3.879l-5.818,5.334l-3.394-9.334l0.122,10.062l-2.062-7.515l-2.545,5.817l-6.789-18.908v28.275
		h138.287v-27.429L407.607,469.068z"/>
	<path clip-path="url(#SVGID_2_)" fill="#94C24B" d="M545.892,469.068l-5.817-18.182l-1.819,17.093l-4.727-16.001v16.001
		l-11.685-28.003l0.412,27.273l-2.183-19.273l-3.636,19.273l-1.819-4.728l-2.181,4.728v-3.999l-6.91,5.091v-28.365l-6.91,26.547
		v-21.091l-7.636,21.454l-4.97-12.363l-2.169,5.949l-2.438-12.618l-1.597,15.438l-0.424,0.216l-4.281-17.228
		c0,0-1.659,13.329-2.619,20.761l-0.412,0.209l-7.271-11.801l-3.395,11.801l-4.365-6.302l-4.362,6.302l-3.396-32.485l-7.273,31.516
		v-20.848l-2.909,20.848l-3.758-3.879l-5.818,5.334l-3.394-9.334l0.122,10.062l-2.062-7.515l-2.545,5.817l-6.789-18.908v28.275
		h138.284v-27.429L545.892,469.068z"/>
	<path clip-path="url(#SVGID_2_)" fill="#94C24B" d="M684.179,469.068l-5.819-18.182l-1.818,17.093l-4.727-16.001v16.001
		l-11.685-28.003l0.412,27.273l-2.184-19.273l-3.636,19.273l-1.818-4.728l-2.181,4.728v-3.999l-6.91,5.091v-28.365l-6.91,26.547
		v-21.091l-7.636,21.454l-4.971-12.363l-2.167,5.949l-2.439-12.618l-1.598,15.438l-0.423,0.216l-4.281-17.228
		c0,0-1.659,13.329-2.619,20.761l-0.413,0.209l-7.272-11.801l-3.395,11.801l-4.364-6.302l-4.361,6.302l-6.376-19.57l-4.293,18.601
		v-20.848l-2.908,20.848l-3.757-3.879l-5.82,5.334l-3.394-9.334l0.122,10.062l-2.062-7.515l-2.545,5.817l-6.79-18.908v28.275
		h138.286v-27.429L684.179,469.068z"/>
	<path clip-path="url(#SVGID_2_)" fill="#94C24B" d="M822.464,469.068l-5.82-18.182l-1.816,17.093l-4.728-16.001v16.001
		l-11.685-28.003l0.412,27.273l-2.183-19.273l-3.637,19.273l-1.818-4.728l-2.181,4.728v-3.999l-6.91,5.091v-28.365l-6.91,26.547
		v-21.091l-7.636,21.454l-4.97-12.363l-2.169,5.949l-2.438-12.618l-1.597,15.438l-0.423,0.216l-4.282-17.228
		c0,0-1.658,13.329-2.619,20.761l-0.412,0.209l-7.271-11.801l-3.395,11.801l-4.365-6.302l-4.362,6.302l-3.396-32.485l-7.273,31.516
		v-20.848l-2.908,20.848l-3.757-3.879l-5.819,5.334l-3.394-9.334l0.122,10.062l-2.061-7.515l-2.547,5.817l-6.789-18.908v28.275
		h138.286v-27.429L822.464,469.068z"/>
	<path clip-path="url(#SVGID_2_)" fill="#94C24B" d="M960.75,469.068l-5.818-18.182l-1.818,17.093l-4.727-16.001v16.001
		L936.7,439.977l0.413,27.273l-2.183-19.273l-3.636,19.273l-1.818-4.728l-2.182,4.728v-3.999l-6.909,5.091v-28.365l-6.91,26.547
		v-21.091l-7.636,21.454l-4.971-12.363l-2.168,5.949l-2.438-12.618l-1.598,15.438l-0.424,0.216l-4.28-17.228
		c0,0-1.659,13.329-2.619,20.761l-0.412,0.209l-7.272-11.801l-3.395,11.801l-4.364-6.302l-4.362,6.302l-3.395-32.485l-7.274,31.516
		v-20.848l-2.908,20.848l-3.759-3.879l-5.817,5.334l-3.395-9.334l0.123,10.062l-2.062-7.515l-2.546,5.817l-6.789-18.908v28.275H968
		v-27.429L960.75,469.068z"/>
	<polygon clip-path="url(#SVGID_2_)" fill="#9B856B" points="57.777,476.131 61.407,453.838 69.473,443.175 73.103,426.731 
		80.363,421.395 88.43,429.462 94.883,448.764 102.95,446.406 112.227,455.537 120.935,476.131 	"/>
	<polygon clip-path="url(#SVGID_2_)" fill="#AF9E8C" points="102.95,446.406 108.395,476.131 120.935,476.131 112.227,455.537 	"/>
	<polygon clip-path="url(#SVGID_2_)" fill="#AF9E8C" points="94.883,448.764 91.734,476.131 85.231,476.131 88.43,429.462 	"/>
	<polygon clip-path="url(#SVGID_2_)" fill="#AF9E8C" points="69.473,443.175 73.305,476.131 69.473,476.131 61.407,453.838 	"/>
	<polygon clip-path="url(#SVGID_2_)" fill="#9B856B" points="133.398,476.131 135.457,471.206 138.209,468.62 147.083,470.475 
		149.1,476.131 	"/>
	<polygon clip-path="url(#SVGID_2_)" fill="#AF9E8C" points="138.209,468.62 145.671,476.131 149.1,476.131 147.083,470.475 	"/>
	<polygon clip-path="url(#SVGID_2_)" fill="#9B856B" points="690.539,444.385 681.225,476.131 702.401,476.131 702.401,439.641 	"/>
	<polygon clip-path="url(#SVGID_2_)" fill="#AF9E8C" points="711.475,443.981 702.638,439.544 702.401,439.641 702.401,476.131 
		723.576,476.131 	"/>
	<polygon clip-path="url(#SVGID_2_)" fill="#AF9E8C" points="743.743,472.199 740.112,469.282 735.273,457.839 727.278,456.111 
		727.278,476.131 744.963,476.131 	"/>
	<polygon clip-path="url(#SVGID_2_)" fill="#9B856B" points="727.143,456.081 718.736,457.839 709.862,476.131 727.278,476.131 
		727.278,456.111 	"/>
	<path clip-path="url(#SVGID_2_)" fill="#9B7C50" d="M81.121,422.553c-0.075,0-0.15-0.03-0.206-0.088
		c-4.728-4.839-3.574-9.643-3.523-9.844c0.039-0.153,0.197-0.244,0.349-0.207c0.154,0.039,0.246,0.194,0.208,0.348
		c-0.012,0.047-1.115,4.704,3.376,9.303c0.111,0.113,0.109,0.296-0.004,0.406C81.265,422.525,81.193,422.553,81.121,422.553"/>
	<path clip-path="url(#SVGID_2_)" fill="#9B7C50" d="M79.212,422.906c-0.057,0-0.114-0.017-0.164-0.051
		c-3.999-2.79-4.206-7.013-4.212-7.191c-0.006-0.157,0.117-0.292,0.276-0.298c0.164,0.005,0.292,0.117,0.297,0.275
		c0.002,0.041,0.21,4.122,3.966,6.742c0.13,0.09,0.163,0.27,0.072,0.398C79.391,422.863,79.302,422.906,79.212,422.906"/>
	<path clip-path="url(#SVGID_2_)" fill="#F29496" d="M77.329,396.439c-4.638,1.576-7.284,6.127-5.911,10.164l-10.011,3.404
		c2.191,6.444,9.967,9.627,17.37,7.11c7.402-2.517,11.626-9.781,9.435-16.224C86.838,396.856,81.966,394.861,77.329,396.439"/>
	<path clip-path="url(#SVGID_2_)" fill="#6DA92E" d="M62.294,403.994c0,0,8.304,14.742,15.827,3.747L62.294,403.994z"/>
	<path clip-path="url(#SVGID_2_)" fill="#87BD3A" d="M62.294,403.994c0,0,14.033-9.454,15.827,3.747L62.294,403.994z"/>
	<path clip-path="url(#SVGID_2_)" fill="#9B7C50" d="M86.994,398.729l4.96-0.498l-3.202,5.285
		C88.753,403.516,88.635,401.307,86.994,398.729"/>
	<path clip-path="url(#SVGID_2_)" fill="#9B7C50" d="M85.712,401.16c-0.071,0-0.142-0.026-0.198-0.079
		c-2.353-2.234-4.608-0.239-4.704-0.153c-0.117,0.106-0.298,0.098-0.404-0.02c-0.108-0.117-0.1-0.298,0.018-0.405
		c0.027-0.024,2.74-2.445,5.486,0.162c0.115,0.108,0.119,0.29,0.011,0.406C85.863,401.131,85.788,401.16,85.712,401.16"/>
	<path clip-path="url(#SVGID_2_)" fill="#9B7C50" d="M678.111,309.759c0.074,0,0.149-0.03,0.205-0.088
		c4.728-4.839,3.575-9.643,3.523-9.844c-0.039-0.153-0.196-0.244-0.35-0.207c-0.153,0.039-0.246,0.195-0.207,0.349
		c0.011,0.047,1.114,4.703-3.376,9.302c-0.111,0.114-0.11,0.296,0.004,0.407C677.966,309.731,678.039,309.759,678.111,309.759"/>
	<path clip-path="url(#SVGID_2_)" fill="#9B7C50" d="M680.02,310.112c0.057,0,0.114-0.017,0.164-0.051
		c3.999-2.79,4.205-7.012,4.212-7.19c0.006-0.158-0.117-0.292-0.276-0.298c-0.164,0.005-0.292,0.117-0.297,0.275
		c-0.002,0.04-0.21,4.121-3.968,6.741c-0.129,0.092-0.161,0.27-0.069,0.399C679.84,310.069,679.929,310.112,680.02,310.112"/>
	<path clip-path="url(#SVGID_2_)" fill="#F29496" d="M681.903,283.646c4.638,1.576,7.284,6.127,5.911,10.165l10.01,3.403
		c-2.19,6.444-9.967,9.628-17.368,7.11c-7.402-2.517-11.626-9.78-9.435-16.224C672.394,284.063,677.265,282.067,681.903,283.646"/>
	<path clip-path="url(#SVGID_2_)" fill="#6DA92E" d="M696.937,291.2c0,0-8.304,14.743-15.826,3.747L696.937,291.2z"/>
	<path clip-path="url(#SVGID_2_)" fill="#87BD3A" d="M696.937,291.2c0,0-14.033-9.454-15.826,3.747L696.937,291.2z"/>
	<path clip-path="url(#SVGID_2_)" fill="#9B7C50" d="M672.237,285.935l-4.959-0.498l3.201,5.285
		C670.479,290.722,670.596,288.513,672.237,285.935"/>
	<path clip-path="url(#SVGID_2_)" fill="#9B7C50" d="M673.52,288.366c0.07,0,0.143-0.025,0.197-0.079
		c2.354-2.232,4.609-0.238,4.704-0.153c0.118,0.107,0.299,0.098,0.406-0.019c0.106-0.118,0.098-0.299-0.019-0.405
		c-0.027-0.023-2.741-2.446-5.486,0.161c-0.116,0.108-0.12,0.291-0.011,0.407C673.369,288.337,673.444,288.366,673.52,288.366"/>
</g>
</svg>
