<svg width="75" height="76" viewBox="0 0 75 76" fill="none" xmlns="http://www.w3.org/2000/svg">
<path d="M73.4734 68.4613H71.9773V25.9273C71.9773 25.4349 71.5607 25.0182 71.0683 25.0182H69.5533V13.8639C69.5533 13.3716 69.1367 12.9549 68.6443 12.9549H66.8452L66.7694 12.7655L62.2433 1.45973C62.1108 1.11885 61.7699 0.891602 61.4101 0.891602C61.0313 0.891602 60.7094 1.11885 60.5579 1.45973L55.956 12.9549H54.1569C53.6646 12.9549 53.2479 13.3716 53.2479 13.8639V25.0182H51.7518C51.2595 25.0182 50.8428 25.4349 50.8428 25.9273V33.8811L38.1735 25.4349V19.6021H46.9227C47.2636 19.6021 47.5666 19.4127 47.7181 19.1286C47.8696 18.8256 47.8507 18.4847 47.6802 18.2007L45.5971 15.0759L47.6802 11.9512C47.8696 11.6672 47.8886 11.3073 47.7181 11.0233C47.5666 10.7203 47.2447 10.5498 46.9227 10.5498H38.1735V8.12581H36.3555V25.4349L23.6862 33.8811V25.9273C23.6862 25.4349 23.2695 25.0182 22.7772 25.0182H21.2621V13.8639C21.2621 13.3716 20.8455 12.9549 20.3531 12.9549H18.573L18.4972 12.7655L13.9901 1.45973C13.8386 1.11885 13.5166 0.891602 13.1379 0.891602C12.7591 0.891602 12.4372 1.11885 12.3046 1.45973L7.70274 12.9549H5.90365C5.41127 12.9549 4.99464 13.3716 4.99464 13.8639V25.0182H3.47963C2.98725 25.0182 2.57062 25.4349 2.57062 25.9273V68.4613H1.0556C0.582157 68.4613 0.165527 68.859 0.165527 69.3704V74.1995C0.165527 74.6919 0.582157 75.1085 1.07454 75.1085H73.4734C73.9658 75.1085 74.3824 74.6919 74.3824 74.1995V69.3704C74.3824 68.859 73.9658 68.4613 73.4734 68.4613ZM38.1735 12.3679H45.2183L43.7412 14.5836C43.5329 14.8866 43.5329 15.2843 43.7412 15.5873L45.2183 17.803H38.1735V12.3679ZM67.7353 14.7729V25.0182H64.7242V14.7729H67.7353ZM61.4101 4.24358L64.8946 12.9549H63.8152C63.3228 12.9549 62.9062 13.3716 62.9062 13.8639V15.3789H59.8951V13.8639C59.8951 13.3716 59.4784 12.9549 58.986 12.9549H57.9255L61.4101 4.24358ZM62.9062 17.178V25.0182H59.8951V17.178H62.9062ZM55.0659 14.7729H58.077V25.0182H55.0659V14.7729ZM52.6609 26.8363H70.1593V68.4613H52.6609V26.8363ZM23.7051 36.0779L37.2834 27.0256L50.8618 36.0779V39.5056H23.7051V36.0779ZM23.7051 41.3236H50.8428V46.7398H23.7051V41.3236ZM23.7051 48.5578H50.8428V68.4613H47.8317V59.7121C47.8317 59.2197 47.4151 58.8031 46.9227 58.8031H42.0936C41.6012 58.8031 41.1846 59.2197 41.1846 59.7121V68.4613H33.3444V59.7121C33.3444 59.2197 32.9278 58.8031 32.4354 58.8031H27.6252C27.1328 58.8031 26.7162 59.2197 26.7162 59.7121V68.4613H23.7051V48.5578ZM46.0137 60.6211V68.4613H43.0026V60.6211H46.0137ZM31.5453 60.6211V68.4613H28.5342V60.6211H31.5453ZM19.4631 14.7729V25.0182H16.452V14.7729H19.4631ZM13.1379 4.24358L16.6224 12.9549H15.5619C15.0695 12.9549 14.6529 13.3716 14.6529 13.8639V15.36H11.6418V13.8639C11.6418 13.3716 11.2251 12.9549 10.7328 12.9549H9.65332L13.1379 4.24358ZM14.6529 17.178V25.0182H11.6418V17.178H14.6529ZM6.81266 14.7729H9.82376V25.0182H6.81266V14.7729ZM4.38864 26.8363H21.8871V68.4613H4.38864V26.8363ZM72.5644 73.2905H1.98355V70.2794H72.5644V73.2905Z" fill="#ffffff"/>
<path d="M8.30873 36.4943H13.1378C13.6302 36.4943 14.0469 36.0777 14.0469 35.5853V30.7562C14.0469 30.2638 13.6302 29.8472 13.1378 29.8472H8.30873C7.81635 29.8472 7.39972 30.2638 7.39972 30.7562V35.5853C7.39972 36.0777 7.81635 36.4943 8.30873 36.4943ZM9.21774 31.6652H12.2288V34.6763H9.21774V31.6652Z" fill="#ffffff"/>
<path d="M17.9671 39.5054H13.138C12.6456 39.5054 12.2289 39.922 12.2289 40.4144V45.2435C12.2289 45.7359 12.6456 46.1525 13.138 46.1525H17.9671C18.4594 46.1525 18.8761 45.7359 18.8761 45.2435V40.4144C18.8761 39.9031 18.4594 39.5054 17.9671 39.5054ZM17.0581 44.3345H14.047V41.3234H17.0581V44.3345Z" fill="#ffffff"/>
<path d="M18.876 29.8472H17.058V36.4943H18.876V29.8472Z" fill="#ffffff"/>
<path d="M9.21774 39.5054H7.39972V46.1525H9.21774V39.5054Z" fill="#ffffff"/>
<path d="M8.30873 55.7917H13.1378C13.6302 55.7917 14.0469 55.375 14.0469 54.8827V50.0535C14.0469 49.5612 13.6302 49.1445 13.1378 49.1445H8.30873C7.81635 49.1445 7.39972 49.5612 7.39972 50.0535V54.8827C7.39972 55.394 7.81635 55.7917 8.30873 55.7917ZM9.21774 50.9626H12.2288V53.9736H9.21774V50.9626Z" fill="#ffffff"/>
<path d="M17.9671 58.8032H13.138C12.6456 58.8032 12.2289 59.2199 12.2289 59.7122V64.5413C12.2289 65.0337 12.6456 65.4504 13.138 65.4504H17.9671C18.4594 65.4504 18.8761 65.0337 18.8761 64.5413V59.7122C18.8761 59.2199 18.4594 58.8032 17.9671 58.8032ZM17.0581 63.6323H14.047V60.6212H17.0581V63.6323Z" fill="#ffffff"/>
<path d="M18.876 49.1636H17.058V55.8107H18.876V49.1636Z" fill="#ffffff"/>
<path d="M9.21774 58.8032H7.39972V65.4504H9.21774V58.8032Z" fill="#ffffff"/>
<path d="M56.581 36.4943H61.4101C61.9025 36.4943 62.3191 36.0777 62.3191 35.5853V30.7562C62.3191 30.2638 61.9025 29.8472 61.4101 29.8472H56.581C56.0886 29.8472 55.672 30.2638 55.672 30.7562V35.5853C55.672 36.0777 56.0697 36.4943 56.581 36.4943ZM57.49 31.6652H60.5011V34.6763H57.49V31.6652Z" fill="#ffffff"/>
<path d="M66.2204 39.5054H61.3913C60.8989 39.5054 60.4823 39.922 60.4823 40.4144V45.2435C60.4823 45.7359 60.8989 46.1525 61.3913 46.1525H66.2204C66.7128 46.1525 67.1294 45.7359 67.1294 45.2435V40.4144C67.1294 39.9031 66.7317 39.5054 66.2204 39.5054ZM65.3304 44.3345H62.3193V41.3234H65.3304V44.3345Z" fill="#ffffff"/>
<path d="M67.1483 29.8472H65.3303V36.4943H67.1483V29.8472Z" fill="#ffffff"/>
<path d="M57.49 39.5054H55.672V46.1525H57.49V39.5054Z" fill="#ffffff"/>
<path d="M56.581 55.7917H61.4101C61.9025 55.7917 62.3191 55.375 62.3191 54.8827V50.0535C62.3191 49.5612 61.9025 49.1445 61.4101 49.1445H56.581C56.0886 49.1445 55.672 49.5612 55.672 50.0535V54.8827C55.672 55.394 56.0697 55.7917 56.581 55.7917ZM57.49 50.9626H60.5011V53.9736H57.49V50.9626Z" fill="#ffffff"/>
<path d="M66.2204 58.8032H61.3913C60.8989 58.8032 60.4823 59.2199 60.4823 59.7122V64.5413C60.4823 65.0337 60.8989 65.4504 61.3913 65.4504H66.2204C66.7128 65.4504 67.1294 65.0337 67.1294 64.5413V59.7122C67.1294 59.2199 66.7317 58.8032 66.2204 58.8032ZM65.3304 63.6323H62.3193V60.6212H65.3304V63.6323Z" fill="#ffffff"/>
<path d="M67.1483 49.1636H65.3303V55.8107H67.1483V49.1636Z" fill="#ffffff"/>
<path d="M57.49 58.8032H55.672V65.4504H57.49V58.8032Z" fill="#ffffff"/>
<path d="M37.2646 36.4944C39.1016 36.4944 40.5787 34.9983 40.5787 33.1803C40.5787 31.3434 39.0826 29.8662 37.2646 29.8662C35.4276 29.8662 33.9505 31.3623 33.9505 33.1803C33.9505 34.9983 35.4466 36.4944 37.2646 36.4944ZM37.2646 31.6653C38.0979 31.6653 38.7796 32.347 38.7796 33.1803C38.7796 34.0136 38.0979 34.6953 37.2646 34.6953C36.4313 34.6953 35.7496 34.0136 35.7496 33.1803C35.7496 32.347 36.4503 31.6653 37.2646 31.6653Z" fill="#ffffff"/>
<path d="M28.5343 51.5686H26.7163V55.7917H28.5343V51.5686Z" fill="#ffffff"/>
<path d="M33.3635 51.5686H31.5455V55.7917H33.3635V51.5686Z" fill="#ffffff"/>
<path d="M43.0027 51.5686H41.1846V55.7917H43.0027V51.5686Z" fill="#ffffff"/>
<path d="M47.8318 51.5686H46.0138V55.7917H47.8318V51.5686Z" fill="#ffffff"/>
<path d="M38.1736 51.5686H36.3556V55.7917H38.1736V51.5686Z" fill="#ffffff"/>
</svg>
