<svg width="76" height="60" viewBox="0 0 76 60" fill="none" xmlns="http://www.w3.org/2000/svg">
<path d="M45.0196 58.3062H30.8789V59.0215C30.8789 59.3043 30.7625 59.5539 30.5961 59.7369H45.3024C45.1194 59.5539 45.0196 59.3043 45.0196 59.0215V58.3062Z" fill="#6D6D6D"/>
<path d="M52.2563 17.9139C52.4393 17.7475 52.6722 17.631 52.955 17.631H53.6703V13.5718C53.6703 13.3722 53.5705 13.1559 53.4208 13.0395L48.9956 9.31299H46.7996L52.2895 13.9212V17.9139H52.2563Z" fill="#6D6D6D"/>
<path d="M28.8327 58.3062H23.6921C23.8585 58.4891 23.9749 58.7221 23.9749 59.0049C23.9749 59.2877 23.8585 59.5372 23.6755 59.7369H29.1321C28.9491 59.5539 28.8493 59.3043 28.8493 59.0215V58.3062H28.8327Z" fill="#6D6D6D"/>
<path d="M52.2063 58.3062H47.0491V59.0215C47.0491 59.3043 46.9327 59.5539 46.7497 59.7369H52.1897C52.0067 59.5539 51.9069 59.3043 51.9069 59.0215C51.9069 58.7387 52.04 58.4891 52.2063 58.3062Z" fill="#6D6D6D"/>
<path d="M22.9601 19.6771H22.2448V21.1078H22.9601C23.2429 21.1078 23.4925 21.2243 23.6755 21.3907V19.3777C23.4759 19.5607 23.2263 19.6771 22.9601 19.6771Z" fill="#6D6D6D"/>
<path d="M23.3927 23.0549L23.6089 23.1547H22.9601H22.2448V57.9741H22.9601C23.2429 57.9741 23.4925 58.0905 23.6755 58.2569V22.8552C23.5923 22.9384 23.4925 23.0049 23.3927 23.0549Z" fill="#6D6D6D"/>
<path d="M30.28 8.29818C30.28 8.33146 30.2633 8.34809 30.2633 8.38137L37.9492 1.90992L45.6518 8.38137C45.6518 8.34809 45.6351 8.33146 45.6351 8.29818C45.6351 7.76583 46.0344 7.34993 46.5667 7.30002L38.3984 0.429301C38.282 0.312848 38.1156 0.262939 37.9492 0.262939C37.7829 0.262939 37.6165 0.312848 37.4834 0.429301L29.3317 7.28338C29.8641 7.33329 30.28 7.74919 30.28 8.29818Z" fill="#6D6D6D"/>
<path d="M52.9383 23.1544C52.6722 23.1544 52.4226 23.0545 52.2396 22.8882V58.2732C52.4226 58.1068 52.6555 57.9904 52.9383 57.9904H53.6537V23.1544H52.9383Z" fill="#6D6D6D"/>
<path d="M22.2448 13.5718V17.631H22.9601C23.2429 17.631 23.4925 17.7475 23.6755 17.9139V13.9212L23.7254 13.8713L29.1488 9.31299H26.9362L22.511 13.0395C22.3446 13.1726 22.2448 13.3722 22.2448 13.5718Z" fill="#6D6D6D"/>
<path d="M53.6537 21.1083V19.6776H52.9383C52.6722 19.6776 52.4226 19.5778 52.2396 19.3948V21.3745C52.4226 21.2081 52.6555 21.1083 52.9383 21.1083H53.6537Z" fill="#6D6D6D"/>
<path d="M21.9286 21.4241H3.3461C3.5291 21.6071 3.62891 21.8566 3.62891 22.1394V22.8548H21.9286V21.4241Z" fill="#6D6D6D"/>
<path d="M3.22965 17.6309L6.59015 9.01344H26.803L28.4999 7.59937H6.14097C5.85816 7.59937 5.59198 7.78236 5.47553 8.06518L1.69913 17.7308C1.81558 17.6809 1.93203 17.6642 2.06512 17.6642H3.22965V17.6309Z" fill="#6D6D6D"/>
<path d="M1.86549 21.4245H1.74904L1.83222 21.2082L2.43112 19.6777H2.06512C1.64922 19.6777 1.3165 19.4448 1.15014 19.0955L0.0687892 21.8737C-0.0143914 22.09 0.0188808 22.3229 0.135334 22.5225C0.268423 22.7221 0.468056 22.8386 0.717598 22.8386H1.58268V22.1232C1.58268 21.8571 1.69913 21.6075 1.86549 21.4245Z" fill="#6D6D6D"/>
<path d="M22.2947 22.8384H22.9435C23.3427 22.8384 23.6588 22.5223 23.6588 22.1231C23.6588 21.7238 23.3427 21.4077 22.9435 21.4077H22.2281V22.8218H22.2947V22.8384Z" fill="#6D6D6D"/>
<path d="M29.2486 9.01298C29.4316 9.01298 29.5979 8.94644 29.731 8.82998L29.7643 8.79671C29.8974 8.66362 29.9639 8.49726 29.9639 8.29763C29.9639 7.89836 29.6478 7.58228 29.2486 7.58228H28.9824L27.2855 8.99635H29.2486V9.01298Z" fill="#6D6D6D"/>
<path d="M27.0526 9.01298L28.7495 7.58228H28.5L26.8197 9.01298H27.0526Z" fill="#6D6D6D"/>
<path d="M22.0784 21.4241H21.9287V22.8381H22.0784V21.4241Z" fill="#6D6D6D"/>
<path d="M29.7619 8.79712L29.731 8.82796C29.7464 8.81254 29.7619 8.79712 29.7619 8.79712Z" fill="#6D6D6D"/>
<path d="M27.2855 9.01298L28.9824 7.58228H28.7495L27.0526 9.01298H27.2855Z" fill="#6D6D6D"/>
<path d="M22.2447 21.4241H22.095V22.8381H22.2447V21.4241Z" fill="#6D6D6D"/>
<path d="M53.9698 22.8384H72.2696V22.1231C72.2696 21.8403 72.386 21.5907 72.5524 21.4077H53.9698V22.8384Z" fill="#6D6D6D"/>
<path d="M73.8333 19.6777H73.4673L74.1494 21.4245H74.0329C74.2159 21.6075 74.3158 21.8571 74.3158 22.1399V22.8552H75.1808C75.4304 22.8552 75.63 22.7388 75.7797 22.5391C75.9128 22.3561 75.9295 22.1066 75.8463 21.8903L74.7483 19.0955C74.5986 19.4282 74.2492 19.6777 73.8333 19.6777Z" fill="#6D6D6D"/>
<path d="M69.2917 9.01291L69.3249 9.11273L72.6522 17.6471H73.8167C73.9498 17.6471 74.0829 17.6803 74.1993 17.7302L70.4229 8.06465C70.3065 7.78184 70.0403 7.61548 69.7575 7.61548H47.3985L49.0954 9.02955L69.2917 9.01291Z" fill="#6D6D6D"/>
<path d="M52.9383 21.4241C52.5723 21.4241 52.2895 21.6902 52.2396 22.0396V22.2392C52.2895 22.5886 52.5723 22.8548 52.9383 22.8548H53.6537V21.4407H52.9383V21.4241Z" fill="#6D6D6D"/>
<path d="M45.9512 8.29763C45.9512 8.49726 46.0344 8.66362 46.1508 8.79671L46.1675 8.81335C46.3006 8.9298 46.4669 9.01298 46.6499 9.01298H48.5963L46.9161 7.58228H46.6666C46.2507 7.58228 45.9512 7.89836 45.9512 8.29763Z" fill="#6D6D6D"/>
<path d="M49.0788 9.01298L47.3986 7.58228H47.149L48.8459 9.01298H49.0788Z" fill="#6D6D6D"/>
<path d="M53.9532 21.4241H53.8034V22.8381H53.9532V21.4241Z" fill="#6D6D6D"/>
<path d="M53.8035 21.4241H53.6537V22.8381H53.8035V21.4241Z" fill="#6D6D6D"/>
<path d="M52.2396 22.1394C52.2396 22.1726 52.2563 22.2059 52.2563 22.2392V22.0396C52.2396 22.0728 52.2396 22.1061 52.2396 22.1394Z" fill="#6D6D6D"/>
<path d="M46.1654 8.81166L46.1508 8.79712C46.1508 8.79712 46.1654 8.81166 46.1654 8.81166Z" fill="#6D6D6D"/>
<path d="M48.8459 9.01298L47.149 7.58228H46.9161L48.5964 9.01298H48.8459Z" fill="#6D6D6D"/>
<path d="M21.9287 58.2893H3.31284V23.1538H1.89877V59.0213C1.89877 59.4205 2.21486 59.7366 2.61413 59.7366H22.2281C22.0451 59.5536 21.9453 59.3041 21.9453 59.0213V58.2893H21.9287Z" fill="#6D6D6D"/>
<path d="M23.6588 59.0051C23.6588 58.6059 23.3427 58.2898 22.9435 58.2898H22.2281V59.0218C22.2281 59.421 22.5442 59.7371 22.9435 59.7371C23.3427 59.7205 23.6588 59.3878 23.6588 59.0051Z" fill="#6D6D6D"/>
<path d="M22.095 59.0218V58.2898H21.9453V59.0218C21.9453 59.3046 22.0617 59.5541 22.2281 59.7371H22.4943C22.2447 59.5708 22.095 59.3212 22.095 59.0218Z" fill="#6D6D6D"/>
<path d="M22.2447 59.0218V58.2898H22.095V59.0218C22.095 59.3212 22.2614 59.5708 22.4943 59.7371H22.9601C22.5608 59.7205 22.2447 59.421 22.2447 59.0218Z" fill="#6D6D6D"/>
<path d="M3.31285 22.1394C3.31285 21.7402 2.99676 21.4241 2.59749 21.4241C2.19823 21.4241 1.88214 21.7402 1.88214 22.1394V22.8548H3.29621V22.1394H3.31285Z" fill="#6D6D6D"/>
<path d="M3.31284 23.0044H1.89877V23.1541H3.31284V23.0044Z" fill="#6D6D6D"/>
<path d="M3.31284 22.8381H1.89877V22.9879H3.31284V22.8381Z" fill="#6D6D6D"/>
<path d="M72.5856 58.3059H53.9698V59.0046C53.9698 59.2708 53.87 59.537 53.6703 59.7366H73.3342C73.7002 59.72 73.9997 59.4039 73.9997 59.0046V23.1538H72.5856V58.3059Z" fill="#6D6D6D"/>
<path d="M53.6537 59.0049V58.3062H52.9384C52.5391 58.3062 52.223 58.6222 52.223 59.0215C52.223 59.4208 52.5391 59.7369 52.9384 59.7369H52.9716C53.138 59.7202 53.3044 59.6537 53.4208 59.5372C53.5872 59.3875 53.6537 59.2045 53.6537 59.0049Z" fill="#6D6D6D"/>
<path d="M53.9699 58.3062H53.8201V59.0049C53.8201 59.321 53.6538 59.5705 53.4209 59.7369H53.687C53.87 59.5372 53.9865 59.2877 53.9865 59.0049V58.3062H53.9699Z" fill="#6D6D6D"/>
<path d="M53.8035 59.0049V58.3062H53.6537V59.0049C53.6537 59.2045 53.5705 59.3875 53.4375 59.5206C53.321 59.637 53.1546 59.7202 52.9883 59.7202H53.4042C53.6537 59.5705 53.8035 59.3043 53.8035 59.0049Z" fill="#6D6D6D"/>
<path d="M73.2844 21.4241C72.8851 21.4241 72.569 21.7402 72.569 22.1394V22.8548H73.9831V22.1394C73.9997 21.7402 73.6837 21.4241 73.2844 21.4241Z" fill="#6D6D6D"/>
<path d="M73.9997 23.0044H72.5856V23.1541H73.9997V23.0044Z" fill="#6D6D6D"/>
<path d="M73.9997 22.8381H72.5856V22.9879H73.9997V22.8381Z" fill="#6D6D6D"/>
<path d="M37.9492 39.1912C33.0915 39.1912 29.1487 43.1339 29.1487 47.9917V58.0066H30.5628V47.9917C30.5628 43.9325 33.8734 40.6219 37.9326 40.6219C41.9918 40.6219 45.3024 43.9325 45.3024 47.9917V58.0066H46.7165V47.9917C46.7497 43.1339 42.7903 39.1912 37.9492 39.1912Z" fill="#6D6D6D"/>
<path d="M29.1487 59.0215C29.1487 59.4208 29.4648 59.7369 29.8641 59.7369C30.2633 59.7369 30.5794 59.4208 30.5794 59.0215V58.3062H29.1653V59.0215H29.1487Z" fill="#6D6D6D"/>
<path d="M45.319 59.0215C45.319 59.4208 45.6351 59.7369 46.0344 59.7369C46.4337 59.7369 46.7497 59.4208 46.7497 59.0215V58.3062H45.3357V59.0215H45.319Z" fill="#6D6D6D"/>
<path d="M46.7331 57.9902H45.319V58.14H46.7331V57.9902Z" fill="#6D6D6D"/>
<path d="M30.5628 57.9902H29.1487V58.14H30.5628V57.9902Z" fill="#6D6D6D"/>
<path d="M46.7331 58.1565H45.319V58.3062H46.7331V58.1565Z" fill="#6D6D6D"/>
<path d="M30.5628 58.1565H29.1487V58.3062H30.5628V58.1565Z" fill="#6D6D6D"/>
<path d="M37.9492 10.7107C33.8068 10.7107 30.4297 14.0878 30.4297 18.2302C30.4297 22.3726 33.8068 25.7497 37.9492 25.7497C42.0916 25.7497 45.4687 22.3726 45.4687 18.2302C45.4687 14.0712 42.0916 10.7107 37.9492 10.7107ZM37.9492 24.319C34.5887 24.319 31.8604 21.5907 31.8604 18.2302C31.8604 14.8697 34.5887 12.1414 37.9492 12.1414C41.3097 12.1414 44.038 14.8697 44.038 18.2302C44.038 21.5907 41.3097 24.319 37.9492 24.319Z" fill="#6D6D6D"/>
<path d="M40.4446 17.4981H38.2487L38.1988 17.4482L35.9529 15.2024C35.8198 15.0526 35.6368 14.9861 35.4538 14.9861C35.2708 14.9861 35.0878 15.0526 34.9547 15.2024C34.6719 15.4852 34.6719 15.9177 34.9547 16.2172L37.4668 18.7292C37.5832 18.8623 37.7662 18.9455 37.9659 18.9455H40.4613C40.8439 18.9455 41.1766 18.6128 41.1766 18.2135C41.16 17.7976 40.8439 17.4981 40.4446 17.4981Z" fill="#6D6D6D"/>
<path d="M35.8198 29.8254H26.8696C26.4703 29.8254 26.1542 30.1415 26.1542 30.5408V34.3172C26.1542 34.7165 26.4703 35.0325 26.8696 35.0325H35.8198C36.2191 35.0325 36.5352 34.7165 36.5352 34.3172V30.5408C36.5352 30.1415 36.2191 29.8254 35.8198 29.8254ZM35.1211 33.6018H27.5849V31.2561H35.1211V33.6018Z" fill="#6D6D6D"/>
<path d="M49.0123 29.8254H40.062C39.6628 29.8254 39.3467 30.1415 39.3467 30.5408V34.3172C39.3467 34.7165 39.6628 35.0325 40.062 35.0325H49.0123C49.4115 35.0325 49.7276 34.7165 49.7276 34.3172V30.5408C49.7276 30.1415 49.4115 29.8254 49.0123 29.8254ZM48.3136 33.6018H40.7774V31.2561H48.3136V33.6018Z" fill="#6D6D6D"/>
<path d="M5.99123 33.402H11.3314C11.7141 33.402 12.0468 33.086 12.0468 32.6867V27.3299C12.0468 26.9306 11.7307 26.6145 11.3314 26.6145H5.99123C5.59196 26.6145 5.27588 26.9306 5.27588 27.3299V32.6867C5.27588 33.1026 5.59196 33.402 5.99123 33.402ZM6.68995 28.0618H10.6161V31.988H6.68995V28.0618Z" fill="#6D6D6D"/>
<path d="M14.2095 33.402H19.5663C19.9656 33.402 20.2817 33.086 20.2817 32.6867V27.3299C20.2817 26.9306 19.9656 26.6145 19.5663 26.6145H14.2095C13.8102 26.6145 13.4941 26.9306 13.4941 27.3299V32.6867C13.4941 33.1026 13.8102 33.402 14.2095 33.402ZM14.9248 28.0618H18.851V31.988H14.9248V28.0618Z" fill="#6D6D6D"/>
<path d="M5.99123 43.9494H11.3314C11.7307 43.9494 12.0468 43.6333 12.0468 43.234V37.8772C12.0468 37.478 11.7307 37.1619 11.3314 37.1619H5.99123C5.59196 37.1619 5.27588 37.478 5.27588 37.8772V43.234C5.27588 43.6333 5.59196 43.9494 5.99123 43.9494ZM6.68995 38.6092H10.6161V42.5353H6.68995V38.6092Z" fill="#6D6D6D"/>
<path d="M14.2095 43.9494H19.5663C19.9656 43.9494 20.2817 43.6333 20.2817 43.234V37.8772C20.2817 37.478 19.9656 37.1619 19.5663 37.1619H14.2095C13.8102 37.1619 13.4941 37.478 13.4941 37.8772V43.234C13.4941 43.6333 13.8102 43.9494 14.2095 43.9494ZM14.9248 38.6092H18.851V42.5353H14.9248V38.6092Z" fill="#6D6D6D"/>
<path d="M5.99123 54.5134H11.3314C11.7307 54.5134 12.0468 54.1973 12.0468 53.798V48.4412C12.0468 48.0419 11.7307 47.7258 11.3314 47.7258H5.99123C5.59196 47.7258 5.27588 48.0419 5.27588 48.4412V53.798C5.27588 54.1973 5.59196 54.5134 5.99123 54.5134ZM6.68995 49.1565H10.6161V53.0827H6.68995V49.1565Z" fill="#6D6D6D"/>
<path d="M14.2095 54.5134H19.5663C19.9656 54.5134 20.2817 54.1973 20.2817 53.798V48.4412C20.2817 48.0419 19.9656 47.7258 19.5663 47.7258H14.2095C13.8102 47.7258 13.4941 48.0419 13.4941 48.4412V53.798C13.4941 54.1973 13.8102 54.5134 14.2095 54.5134ZM14.9248 49.1565H18.851V53.0827H14.9248V49.1565Z" fill="#6D6D6D"/>
<path d="M56.3321 33.402H61.689C62.0716 33.402 62.4043 33.0693 62.4043 32.6867V27.3299C62.4043 26.9306 62.0882 26.6145 61.689 26.6145H56.3321C55.9329 26.6145 55.6168 26.9306 55.6168 27.3299V32.6867C55.6334 33.1026 55.9329 33.402 56.3321 33.402ZM57.0475 28.0618H60.9736V31.988H57.0475V28.0618Z" fill="#6D6D6D"/>
<path d="M64.567 33.402H69.9239C70.3231 33.402 70.6392 33.086 70.6392 32.6867V27.3299C70.6392 26.9306 70.3231 26.6145 69.9239 26.6145H64.567C64.1678 26.6145 63.8517 26.9306 63.8517 27.3299V32.6867C63.8517 33.1026 64.1678 33.402 64.567 33.402ZM65.2658 28.0618H69.1919V31.988H65.2658V28.0618Z" fill="#6D6D6D"/>
<path d="M56.3321 43.9494H61.689C62.0882 43.9494 62.4043 43.6333 62.4043 43.234V37.8772C62.4043 37.478 62.0882 37.1619 61.689 37.1619H56.3321C55.9329 37.1619 55.6168 37.478 55.6168 37.8772V43.234C55.6334 43.6333 55.9329 43.9494 56.3321 43.9494ZM57.0475 38.6092H60.9736V42.5353H57.0475V38.6092Z" fill="#6D6D6D"/>
<path d="M64.567 43.9494H69.9239C70.3231 43.9494 70.6392 43.6333 70.6392 43.234V37.8772C70.6392 37.478 70.3231 37.1619 69.9239 37.1619H64.567C64.1678 37.1619 63.8517 37.478 63.8517 37.8772V43.234C63.8517 43.6333 64.1678 43.9494 64.567 43.9494ZM65.2658 38.6092H69.1919V42.5353H65.2658V38.6092Z" fill="#6D6D6D"/>
<path d="M56.3321 54.5134H61.689C62.0882 54.5134 62.4043 54.1973 62.4043 53.798V48.4412C62.4043 48.0419 62.0882 47.7258 61.689 47.7258H56.3321C55.9329 47.7258 55.6168 48.0419 55.6168 48.4412V53.798C55.6334 54.1973 55.9329 54.5134 56.3321 54.5134ZM57.0475 49.1565H60.9736V53.0827H57.0475V49.1565Z" fill="#6D6D6D"/>
<path d="M64.567 54.5134H69.9239C70.3231 54.5134 70.6392 54.1973 70.6392 53.798V48.4412C70.6392 48.0419 70.3231 47.7258 69.9239 47.7258H64.567C64.1678 47.7258 63.8517 48.0419 63.8517 48.4412V53.798C63.8517 54.1973 64.1678 54.5134 64.567 54.5134ZM65.2658 49.1565H69.1919V53.0827H65.2658V49.1565Z" fill="#6D6D6D"/>
<path d="M21.9287 17.9473H3.44593L2.89694 19.3613H21.9287V17.9473Z" fill="#6D6D6D"/>
<path d="M22.9601 17.9473H22.2448V19.3613H22.9601C23.3594 19.3613 23.6755 19.0452 23.6755 18.646C23.6589 18.2467 23.3594 17.9473 22.9601 17.9473Z" fill="#6D6D6D"/>
<path d="M22.0784 17.9473H21.9287V19.3613H22.0784V17.9473Z" fill="#6D6D6D"/>
<path d="M22.2447 17.9473H22.095V19.3613H22.2447V17.9473Z" fill="#6D6D6D"/>
<path d="M2.06514 19.3613H2.54759L3.09658 17.9473H2.06514C1.79896 17.9473 1.58269 18.097 1.46624 18.2966L1.3997 18.4796C1.38306 18.5295 1.36642 18.5961 1.36642 18.646C1.36642 19.0452 1.66587 19.3613 2.06514 19.3613Z" fill="#6D6D6D"/>
<path d="M3.44591 17.9473H3.27955L2.73056 19.3613H2.89692L3.44591 17.9473Z" fill="#6D6D6D"/>
<path d="M1.39975 18.4796L1.46629 18.2966C1.43302 18.3465 1.41639 18.4131 1.39975 18.4796Z" fill="#6D6D6D"/>
<path d="M3.27953 17.9473H3.11317L2.56418 19.3613H2.73054L3.27953 17.9473Z" fill="#6D6D6D"/>
<path d="M53.9698 19.3613H73.0016L72.4526 17.9473H53.9698V19.3613Z" fill="#6D6D6D"/>
<path d="M52.2563 18.5628V18.7292C52.3062 19.0785 52.589 19.3613 52.955 19.3613H53.6704V17.9473H52.955C52.5724 17.9473 52.2896 18.2134 52.2563 18.5628Z" fill="#6D6D6D"/>
<path d="M53.9532 17.9473H53.8034V19.3613H53.9532V17.9473Z" fill="#6D6D6D"/>
<path d="M52.2396 18.6457C52.2396 18.679 52.2563 18.6956 52.2563 18.7289V18.5625C52.2396 18.5958 52.2396 18.629 52.2396 18.6457Z" fill="#6D6D6D"/>
<path d="M53.8035 17.9473H53.6537V19.3613H53.8035V17.9473Z" fill="#6D6D6D"/>
<path d="M73.8333 17.9473H72.7853L73.3343 19.3613H73.8333C74.2326 19.3613 74.5487 19.0452 74.5487 18.646C74.5487 18.5628 74.5321 18.4796 74.4988 18.4131L74.4655 18.3465C74.3491 18.1136 74.1162 17.9473 73.8333 17.9473Z" fill="#6D6D6D"/>
<path d="M73.0016 19.3613H73.1679L72.6189 17.9473H72.4526L73.0016 19.3613Z" fill="#6D6D6D"/>
<path d="M72.619 17.9473L73.168 19.3613H73.3343L72.7853 17.9473H72.619Z" fill="#6D6D6D"/>
<path d="M74.4655 18.3464L74.4978 18.4111C74.4817 18.3949 74.4817 18.3626 74.4655 18.3464Z" fill="#6D6D6D"/>
</svg>
