<svg width="73" height="63" viewBox="0 0 73 63" fill="none" xmlns="http://www.w3.org/2000/svg">
<path d="M52.9424 4.2093C52.3743 4.2093 51.9008 3.73586 51.9008 3.16773V1.17927C51.9008 0.611138 52.3743 0.137695 52.9424 0.137695C53.5105 0.137695 53.984 0.611138 53.984 1.17927V3.16773C53.984 3.73586 53.5105 4.2093 52.9424 4.2093Z" fill="#6D6D6D"/>
<path d="M53.984 19.4161V21.4045C53.984 21.9916 53.5105 22.4461 52.9424 22.4461C52.3743 22.4461 51.9008 21.9727 51.9008 21.4045V19.4161C51.9008 18.848 52.3743 18.3745 52.9424 18.3745C53.5105 18.3745 53.984 18.848 53.984 19.4161Z" fill="#6D6D6D"/>
<path d="M59.4192 6.27352C59.0026 6.69015 58.3587 6.69015 57.942 6.27352C57.5254 5.87583 57.5254 5.21301 57.942 4.79638L59.3434 3.39499C59.7411 2.97836 60.4039 2.97836 60.8206 3.39499C61.2372 3.81162 61.2372 4.4555 60.8206 4.87213L59.4192 6.27352Z" fill="#6D6D6D"/>
<path d="M46.4657 16.3105C46.8634 15.9128 47.5262 15.9128 47.9428 16.3105C48.3595 16.7271 48.3595 17.371 47.9428 17.7876L46.5414 19.189C46.1438 19.6056 45.4809 19.6056 45.0643 19.189C44.6477 18.7724 44.6477 18.1285 45.0643 17.7119L46.4657 16.3105Z" fill="#6D6D6D"/>
<path d="M63.0552 12.3336H61.0667C60.4797 12.3336 60.0251 11.8602 60.0251 11.2921C60.0251 10.7239 60.4986 10.2505 61.0667 10.2505H63.0552C63.6233 10.2505 64.0968 10.7239 64.0968 11.2921C64.0968 11.8602 63.6233 12.3336 63.0552 12.3336Z" fill="#6D6D6D"/>
<path d="M45.8598 11.2921C45.8598 11.8602 45.3864 12.3336 44.8182 12.3336H42.8298C42.2616 12.3336 41.7882 11.8602 41.7882 11.2921C41.7882 10.7239 42.2616 10.2505 42.8298 10.2505H44.8182C45.3864 10.2505 45.8598 10.7239 45.8598 11.2921Z" fill="#6D6D6D"/>
<path d="M59.4192 16.3103L60.8206 17.7117C61.4834 18.3745 61.01 19.4918 60.082 19.4918C59.8169 19.4918 59.5518 19.3971 59.3434 19.1888L57.942 17.7874C57.5254 17.3708 57.5254 16.7269 57.942 16.3103C58.3587 15.8936 59.0215 15.8936 59.4192 16.3103Z" fill="#6D6D6D"/>
<path d="M46.4657 6.27352L45.0454 4.87213C44.6288 4.4555 44.6288 3.81162 45.0454 3.39499C45.462 2.97836 46.1059 2.97836 46.5225 3.39499L47.9239 4.79638C48.3405 5.21301 48.3405 5.85689 47.9239 6.27352C47.5262 6.69015 46.8634 6.69015 46.4657 6.27352Z" fill="#6D6D6D"/>
<path d="M8.91228 53.0308C9.25316 53.0308 9.59404 53.0876 9.91598 53.1633C10.8818 51.6104 12.6051 50.6446 14.4421 50.6446C16.8851 50.6446 19.0061 52.3301 19.6121 54.6405C20.2938 54.6215 20.9945 54.792 21.6005 55.1707C22.0929 55.0571 22.5853 55.0382 23.0777 55.1329C23.8352 54.0534 25.0661 53.4095 26.4107 53.4095C28.1909 53.4095 29.7438 54.5647 30.274 56.2312C31.7701 56.3259 33.001 57.5569 33.02 59.1098C33.02 59.3938 32.9821 59.7158 32.9064 59.9809H42.754L31.4292 37.3503L31.2209 37.5397C30.2361 38.4487 28.6832 38.3351 27.8311 37.2935L26.638 35.8164C26.5433 35.7028 26.3918 35.7028 26.2971 35.7785L24.0624 37.6912C23.1345 38.4866 21.7331 38.4298 20.8809 37.5587L17.7183 34.3203L8.36309 53.0308C8.53353 53.0308 8.7229 53.0308 8.91228 53.0308ZM45.0644 59.9998H50.1776L57.1845 45.9859L48.6436 28.9041C48.511 28.6579 48.1702 28.6579 48.0565 28.9041C47.0718 30.8547 44.3069 30.8547 43.3221 28.9041L38.474 19.208C38.3604 18.9618 38.0006 18.9618 37.887 19.208L31.2777 32.4265C31.8837 33.6007 43.9281 57.7273 45.0644 59.9998ZM67.8086 59.9998L64.7596 53.9019C63.2635 54.2807 62.6007 53.0876 61.8053 52.1218L60.1388 53.561C59.3245 54.2617 58.1124 54.2049 57.3549 53.4474L56.3134 52.3679L52.5069 59.9809H67.8086V59.9998ZM60.1577 44.7171L57.3171 50.4174L58.8321 51.9703L60.4986 50.531C61.2372 49.8871 62.2787 49.906 63.0173 50.4174L60.1577 44.7171ZM24.3276 23.166C24.1193 22.7494 23.5133 22.7494 23.3049 23.166C22.9072 23.9614 19.8583 30.0404 18.7031 32.3887L22.377 36.1383C22.4717 36.233 22.6042 36.233 22.6989 36.1573L24.9146 34.2256C25.8994 33.3734 27.4144 33.506 28.2477 34.5286L29.4408 36.0058C29.5354 36.1194 29.6869 36.1194 29.7816 36.0247L30.4445 35.4187C26.316 27.1619 26.4297 27.3702 24.3276 23.166ZM0.920569 58.6174C0.996319 56.7047 2.77646 55.1518 4.78386 55.4737C5.57925 53.9398 2.07577 60.9467 16.4874 32.1046L21.4301 22.2191C22.4149 20.2496 25.1987 20.2685 26.1835 22.2191C26.619 23.1092 29.5165 28.8852 30.1225 30.0783L36.0311 18.2611C36.9212 16.481 39.4588 16.481 40.3489 18.2611L45.1969 27.9572C45.4052 28.3739 45.9923 28.3739 46.2006 27.9572C47.0907 26.1771 49.6284 26.1771 50.5184 27.9572L58.3586 43.6377L58.567 43.221C59.2298 41.9143 61.0857 41.9143 61.7485 43.221L70.1379 59.9998H71.0658C71.6529 59.9998 72.1074 60.4733 72.1074 61.0414C72.1074 61.6095 71.634 62.083 71.0658 62.083H18.5516C17.9834 62.083 17.51 61.6095 17.51 61.0414C17.51 60.4733 17.9834 59.9998 18.5516 59.9998H30.1036C30.577 59.9998 30.9368 59.6211 30.9368 59.1476C30.9368 58.6931 30.5013 58.2765 30.0089 58.3333C29.2135 58.428 28.4939 57.8978 28.3424 57.1213C28.1719 56.1934 27.3387 55.5116 26.3918 55.5116C25.6911 55.5116 25.0283 55.8904 24.6685 56.5153C24.3276 57.1213 23.6269 57.4243 22.9641 57.2728C22.8126 57.2349 22.4717 57.0834 21.9793 57.2349C20.7673 57.6326 20.5211 56.5342 19.347 56.7615C18.5516 56.9509 17.7751 56.3827 17.6615 55.5684C17.4532 53.9587 16.0707 52.7467 14.4421 52.7467C13.268 52.7467 12.1885 53.3906 11.6014 54.4132C11.2606 55.0003 10.6356 55.3412 9.97279 55.3222C9.82129 55.3222 9.66979 55.2844 9.51829 55.2465C8.28734 54.8488 6.99957 55.5116 6.52613 56.6479C6.20419 57.4054 5.37093 57.8031 4.57555 57.5758C3.7991 57.3486 3.02265 57.9356 2.98478 58.7121C2.96584 59.4317 3.51503 59.9998 4.21573 59.9998H13.6467C14.2148 59.9998 14.6883 60.4733 14.6883 61.0414C14.6883 61.6095 14.2148 62.083 13.6467 62.083H4.25361C2.35983 62.083 0.844818 60.5112 0.920569 58.6174Z" fill="#6D6D6D"/>
<path d="M52.9425 17.5229C50.6321 17.5229 48.5111 16.2541 47.4316 14.2088C47.1665 13.6975 47.3559 13.0725 47.8672 12.8074C48.3785 12.5423 49.0035 12.7316 49.2686 13.243C49.9882 14.6065 51.3896 15.4587 52.9425 15.4587C55.234 15.4587 57.0899 13.6028 57.0899 11.3113C57.0899 9.01985 55.234 7.16396 52.9425 7.16396C51.4086 7.16396 49.9882 8.01616 49.2686 9.37967C49.0035 9.89099 48.3596 10.0804 47.8672 9.81524C47.3559 9.55011 47.1665 8.90623 47.4316 8.39491C48.5111 6.34964 50.6321 5.08081 52.9425 5.08081C56.3892 5.08081 59.173 7.88359 59.173 11.3113C59.173 14.739 56.3892 17.5229 52.9425 17.5229Z" fill="#6D6D6D"/>
</svg>
