<svg width="85" height="63" viewBox="0 0 85 63" fill="none" xmlns="http://www.w3.org/2000/svg">
<path d="M62.8617 38.3433H46.5518V40.1694H62.8617V38.3433Z" fill="#6D6D6D"/>
<path d="M62.8617 46.239H46.5518V48.0651H62.8617V46.239Z" fill="#6D6D6D"/>
<path d="M62.8617 54.1516H46.5518V55.9777H62.8617V54.1516Z" fill="#6D6D6D"/>
<path d="M67.7672 33.1872H41.4314V50.428H27.2699L27.3057 23.9849L33.7688 11.5242H28.0219L24.4591 0.137695H15.2926L11.712 11.5421H5.96501L12.4639 24.146V50.428H5.51743V60.2569H0.289673V62.0831H71.0077V60.2569H67.7672V33.1872ZM16.6175 1.96383H23.0985L26.0883 11.5421H13.6276L16.6175 1.96383ZM8.97277 13.3682H30.7611L25.8019 22.9286H13.932L8.97277 13.3682ZM25.4438 24.7726V50.4459H14.29V24.7726H25.4438ZM41.4314 60.2569H7.36147V57.0522H32.9632V55.2261H7.36147V52.2542H41.4314V60.2569ZM65.941 60.2569H43.2576V35.0133H65.941V60.2569Z" fill="#6D6D6D"/>
<path d="M62.8639 10.1332L61.0938 10.9109L61.7418 12.386L63.512 11.6084L62.8639 10.1332Z" fill="#6D6D6D"/>
<path d="M58.9433 11.8611L57.1737 12.6401L57.8229 14.1148L59.5925 13.3358L58.9433 11.8611Z" fill="#6D6D6D"/>
<path d="M22.633 28.5325H20.8068V46.3641H22.633V28.5325Z" fill="#6D6D6D"/>
<path d="M76.6472 1.03288C72.619 2.2145 67.2838 4.25547 65.7441 4.84628L65.6367 4.89999L65.5293 4.86418L56.4344 1.64159L51.135 5.43709L57.2759 8.42694L44.8689 15.2481L40.0708 11.7749L34.1985 14.7468L42.9353 22.2841L61.877 17.486L61.0893 27.1001L67.4628 23.1971L70.6138 14.2276L70.7928 14.1739C72.4936 13.7263 78.2943 12.0434 81.2304 8.91033C83.898 6.0637 84.9543 3.3245 83.9876 1.76691C83.0566 0.245136 80.3174 -0.041317 76.6472 1.03288ZM79.9056 7.675C77.4171 10.3247 72.9233 11.739 69.2173 12.6879L65.9589 21.9797L63.2018 23.6626L63.918 15.087L43.4008 20.2789L37.439 15.1407L39.8918 13.9053L44.7256 17.4144L61.2325 8.31952L54.6799 5.13273L56.7209 3.66466L56.882 3.71837L65.6904 6.83354C69.8082 5.02531 74.642 3.52144 77.1664 2.7695C80.1563 1.89224 81.8571 1.89224 82.4121 2.7695C82.9671 3.70047 82.1435 5.29386 79.9056 7.675Z" fill="#6D6D6D"/>
<path d="M66.8011 8.3964L65.0309 9.17407L65.679 10.6492L67.4491 9.87154L66.8011 8.3964Z" fill="#6D6D6D"/>
</svg>
