<svg width="79" height="78" viewBox="0 0 79 78" fill="none" xmlns="http://www.w3.org/2000/svg">
<path d="M73.2881 64.3158H69.0271V27.4441C69.0271 27.3305 68.9703 27.1979 68.8756 27.0654L68.5915 26.6677L68.6104 26.6487L60.6377 15.7595L69.5763 12.3508L58.9522 8.31702V15.2293L58.8575 15.3618L50.5249 26.7623L40.7341 8.10871L49.7864 4.66204L39.1623 0.609375L39.1055 7.71102L29.3904 26.7623L21.3419 15.7785L30.2805 12.3697L19.6565 8.31702V15.2293L11.0398 27.0654C10.9451 27.1979 10.8883 27.3115 10.8883 27.4441V64.3158H6.53263V69.9593H0.434692V77.6101H78.5906V69.9593H73.2881V64.3158ZM60.2589 10.2108L65.8834 12.3508L60.2589 14.4907V10.2108ZM59.5961 16.5739L64.1222 22.7476H55.0889L59.5961 16.5739ZM54.1231 24.0732H65.088L67.0765 26.8002H52.1346L54.1231 24.0732ZM50.809 28.1069H67.7204V64.3158H64.3305V39.8294L59.4257 30.7014L54.445 39.943V64.3158H50.809V28.1069ZM55.7707 51.192L55.8275 46.2492C56.0926 45.7569 57.494 43.3139 59.2931 43.2382C60.543 43.2382 61.7361 44.2608 62.9481 46.2682L63.0238 46.3818V51.192H55.7707ZM63.0238 52.5176V64.3158H55.7707V52.5176H63.0238ZM63.0049 43.9767L62.2095 43.2382C61.2437 42.3291 60.221 41.8936 59.2173 41.9314C58.3083 41.9693 57.3993 42.386 56.5471 43.1435L55.7517 43.8631L55.8086 40.1513L59.4067 33.4474L63.0049 40.246V43.9767ZM71.9814 65.6225V69.9593H46.7374V65.6225H71.9814ZM40.4879 2.50315L46.1124 4.64311L40.4879 6.78307V2.50315ZM39.8251 9.18816L43.6695 16.517H36.0944L39.8251 9.18816ZM35.4316 17.8238H44.3702L45.6958 20.3425H34.1438L35.4316 17.8238ZM33.481 21.6492H46.3776L49.0667 26.7813H30.8676L33.481 21.6492ZM30.432 28.1069H49.4834V64.3158H46.7185V39.7536L39.9577 31.0044L33.0833 39.8672V64.2969H30.432V28.1069ZM34.4089 64.2969V52.4987H45.4118V64.2969H34.4089ZM45.4118 65.6225V69.9593H34.4089V65.6225H45.4118ZM34.4089 51.192V46.4197L34.5226 46.2871C35.2043 45.4728 37.0413 43.5412 39.5411 43.3897C41.4348 43.295 43.3665 44.2608 45.2981 46.325L45.4307 46.4576V51.192H34.4089ZM44.6542 43.9388C42.9499 42.6132 41.2076 41.9693 39.4464 42.083C37.9882 42.1587 36.5489 42.7458 35.1854 43.8252L34.4279 44.4312V40.3217L39.9766 33.1444L45.4307 40.2081V44.5449L44.6542 43.9388ZM20.9821 10.2108L26.6066 12.3508L20.9821 14.4907V10.2108ZM20.3003 16.5739L24.8265 22.7476H15.7932L20.3003 16.5739ZM14.8463 24.0732H25.7923L27.7807 26.8002H12.8578L14.8463 24.0732ZM12.2139 28.1069H29.1253V64.3158H25.9248V39.8104L20.717 30.7582L15.4334 39.9241V64.3158H12.2139V28.1069ZM16.759 51.192V46.3818L16.8347 46.2682C18.1415 44.1661 19.4482 43.1056 20.7359 43.1056C22.8001 43.1813 24.2962 45.7379 24.5803 46.2682L24.6371 46.3818V51.2109H16.759V51.192ZM24.6181 52.5176V64.3158H16.759V52.5176H24.6181ZM23.8228 43.1813C22.8759 42.3102 21.8722 41.8368 20.8495 41.7989C19.7133 41.7231 18.6149 42.2345 17.5354 43.2571L16.7401 44.0146V40.2839L20.717 33.3905L24.6181 40.1702V43.9199L23.8228 43.1813ZM7.85827 65.6225H33.1022V69.9593H7.85827V65.6225ZM29.1253 76.2844H1.74139V71.266H29.1253V76.2844ZM49.4834 76.2844H30.432V71.266H49.4834V76.2844ZM77.2839 71.266V76.2844H50.809V71.266H77.2839Z" fill="#6D6D6D"/>
</svg>
