<svg width="71" height="69" viewBox="0 0 71 69" fill="none" xmlns="http://www.w3.org/2000/svg">
<path d="M21.6401 61.474V25.7742C21.4765 25.9214 21.2475 26.0359 21.0021 26.0359H20.364V61.474H21.6401Z" fill="#6D6D6D"/>
<path d="M50.7465 61.4743V26.0198H50.1084C49.863 26.0198 49.6339 25.9217 49.4703 25.7581V61.4579H50.7465V61.4743Z" fill="#6D6D6D"/>
<path d="M21.6401 24.3838V13.2583H20.364V24.1384H21.0021C21.2638 24.122 21.4765 24.2202 21.6401 24.3838Z" fill="#6D6D6D"/>
<path d="M49.454 24.3838C49.6176 24.2366 49.8466 24.122 50.0921 24.122H50.7301V13.2583H49.454V24.3838Z" fill="#6D6D6D"/>
<path d="M20.0531 62.4069V61.7688H5.09912V62.4069C5.09912 62.6523 5.00095 62.8813 4.83734 63.045H20.2985C20.1513 62.8813 20.0531 62.6687 20.0531 62.4069Z" fill="#6D6D6D"/>
<path d="M51.041 62.4066C51.041 62.6521 50.9428 62.8975 50.7792 63.0611H66.2568C66.1096 62.8975 65.995 62.6684 65.995 62.423V61.7849H51.041V62.4066Z" fill="#6D6D6D"/>
<path d="M43.973 63.0611H49.4049C49.2576 62.8975 49.1595 62.6684 49.1595 62.423V61.7849H44.2348V62.4066C44.2348 62.6521 44.1366 62.8811 43.973 63.0611Z" fill="#6D6D6D"/>
<path d="M42.3369 61.7688H36.496V62.3905C36.496 62.6523 36.3978 62.8813 36.2342 63.045H42.5986C42.4514 62.8813 42.3369 62.6523 42.3369 62.4069V61.7688Z" fill="#6D6D6D"/>
<path d="M67.6475 63.0613H69.0545V66.8898H2.03959V63.0613H3.44664C3.29939 62.8977 3.18487 62.6687 3.18487 62.4232V61.7852H1.38515C1.04157 61.7688 0.763428 62.0469 0.763428 62.4069V67.5279C0.763428 67.8878 1.04157 68.166 1.40151 68.166H69.6926C70.0525 68.166 70.3307 67.8715 70.3307 67.5279V62.4069C70.3307 62.0469 70.0525 61.7688 69.6926 61.7688H67.8929V62.4069C67.8929 62.6687 67.7947 62.8813 67.6475 63.0613Z" fill="#6D6D6D"/>
<path d="M34.5981 61.7688H28.7572V62.3905C28.7572 62.6523 28.659 62.8813 28.4954 63.045H34.8599C34.7126 62.8813 34.5981 62.6523 34.5981 62.4069V61.7688Z" fill="#6D6D6D"/>
<path d="M26.8757 61.7688H21.951V62.3905C21.951 62.6523 21.8529 62.8813 21.6892 63.045H27.1375C26.9739 62.8813 26.8757 62.6523 26.8757 62.3905V61.7688Z" fill="#6D6D6D"/>
<path d="M21.6401 62.4066V61.7849H20.364V62.423C20.364 62.7829 20.6421 63.0611 21.0021 63.0611H21.0348C21.3784 63.0284 21.6401 62.7502 21.6401 62.4066Z" fill="#6D6D6D"/>
<path d="M50.0921 63.0611H50.1248C50.452 63.0447 50.7301 62.7502 50.7301 62.4066V61.7849H49.454V62.423C49.454 62.7666 49.7321 63.0611 50.0921 63.0611Z" fill="#6D6D6D"/>
<path d="M20.2167 62.4069V61.7688H20.0695V62.4069C20.0695 62.6523 20.1677 62.8813 20.3149 63.045H20.5603C20.3476 62.9141 20.2167 62.685 20.2167 62.4069Z" fill="#6D6D6D"/>
<path d="M21.951 61.7688H21.8038V62.3905C21.8038 62.6687 21.6565 62.8977 21.4438 63.045H21.6893C21.8529 62.865 21.951 62.6359 21.951 62.3905V61.7688Z" fill="#6D6D6D"/>
<path d="M49.4049 63.0611H49.6503C49.4376 62.9138 49.3067 62.7011 49.3067 62.423V61.7849H49.1595V62.423C49.1595 62.6684 49.2577 62.8811 49.4049 63.0611Z" fill="#6D6D6D"/>
<path d="M50.8937 62.4066C50.8937 62.6848 50.7465 62.9138 50.5338 63.0611H50.7792C50.9428 62.8811 51.041 62.6521 51.041 62.4066V61.7849H50.8937V62.4066Z" fill="#6D6D6D"/>
<path d="M49.6503 63.0611H50.092C49.7321 63.0611 49.454 62.7829 49.454 62.423V61.7849H49.3067V62.423C49.3067 62.6848 49.4539 62.9138 49.6503 63.0611Z" fill="#6D6D6D"/>
<path d="M50.7465 62.4066C50.7465 62.7502 50.4683 63.0447 50.1411 63.0611H50.5338C50.7465 62.9138 50.8937 62.6848 50.8937 62.4066V61.7849H50.7465V62.4066Z" fill="#6D6D6D"/>
<path d="M20.364 62.4069V61.7688H20.2167V62.4069C20.2167 62.685 20.364 62.9141 20.5603 63.045H21.0021C20.6421 63.0613 20.364 62.7668 20.364 62.4069Z" fill="#6D6D6D"/>
<path d="M21.8038 62.4066V61.7849H21.6565V62.4066C21.6565 62.7502 21.3947 63.0447 21.0511 63.0611H21.4602C21.6565 62.9138 21.8038 62.6684 21.8038 62.4066Z" fill="#6D6D6D"/>
<path d="M4.78828 25.7251H20.0532V24.4326H4.1502C3.79025 24.4326 3.51212 24.7108 3.51212 25.0707V61.4577H4.78828V25.7251Z" fill="#6D6D6D"/>
<path d="M21.0021 25.7249C21.362 25.7249 21.6401 25.4468 21.6401 25.0868C21.6401 24.7269 21.362 24.4487 21.0021 24.4487H20.364V25.7249H21.0021Z" fill="#6D6D6D"/>
<path d="M20.2004 24.4326H20.0531V25.7088H20.2004V24.4326Z" fill="#6D6D6D"/>
<path d="M20.364 24.4326H20.2167V25.7088H20.364V24.4326Z" fill="#6D6D6D"/>
<path d="M4.1502 63.0611C4.51014 63.0611 4.78828 62.7666 4.78828 62.423V61.7849H3.51212V62.423C3.51212 62.7666 3.79025 63.0611 4.1502 63.0611Z" fill="#6D6D6D"/>
<path d="M4.78828 61.4744H3.51212V61.6216H4.78828V61.4744Z" fill="#6D6D6D"/>
<path d="M4.78828 61.6213H3.51212V61.7686H4.78828V61.6213Z" fill="#6D6D6D"/>
<path d="M66.3059 25.7251V61.4741H67.5984V25.0707C67.5984 24.7108 67.3202 24.4326 66.9603 24.4326H51.0573V25.7088H66.3059V25.7251Z" fill="#6D6D6D"/>
<path d="M49.454 25.0707C49.454 25.4306 49.7321 25.7088 50.0921 25.7088H50.7301V24.4326H50.0921C49.7485 24.4326 49.454 24.7108 49.454 25.0707Z" fill="#6D6D6D"/>
<path d="M51.041 24.4326H50.8937V25.7088H51.041V24.4326Z" fill="#6D6D6D"/>
<path d="M50.8937 24.4326H50.7465V25.7088H50.8937V24.4326Z" fill="#6D6D6D"/>
<path d="M66.3059 62.4069C66.3059 62.7668 66.584 63.045 66.9439 63.045C67.3039 63.045 67.582 62.7505 67.582 62.4069V61.7688H66.2895V62.4069H66.3059Z" fill="#6D6D6D"/>
<path d="M67.5984 61.4744H66.3058V61.6216H67.5984V61.4744Z" fill="#6D6D6D"/>
<path d="M67.5984 61.6213H66.3058V61.7686H67.5984V61.6213Z" fill="#6D6D6D"/>
<path d="M44.2675 12.9476H49.1595V12.3095C49.1595 12.0641 49.2576 11.835 49.4213 11.6714H44.7093C44.5784 12.1131 44.4475 12.5385 44.2675 12.9476Z" fill="#6D6D6D"/>
<path d="M51.1392 6.77934V11.6713H50.7956C50.9428 11.8349 51.0574 12.064 51.0574 12.3094V12.9475H51.81C51.9736 12.9475 52.1535 12.882 52.2681 12.7511C52.3826 12.6366 52.4317 12.4893 52.4317 12.3257V6.14126C52.4317 5.78131 52.1536 5.50317 51.7936 5.50317H44.2675C44.4475 5.9122 44.5784 6.35395 44.7093 6.77934H51.1392Z" fill="#6D6D6D"/>
<path d="M20.2985 11.6877H19.955V6.77934H26.4012C26.5158 6.33759 26.663 5.9122 26.843 5.50317H19.3169C18.9569 5.50317 18.6788 5.78131 18.6788 6.14126V12.3094C18.6788 12.6693 18.9569 12.9475 19.3169 12.9475H20.0531V12.3094C20.0531 12.064 20.1513 11.8513 20.2985 11.6877Z" fill="#6D6D6D"/>
<path d="M26.4176 11.6877H21.7056C21.8529 11.8514 21.951 12.064 21.951 12.3095V12.9475H26.843C26.663 12.5385 26.5321 12.1131 26.4176 11.6877Z" fill="#6D6D6D"/>
<path d="M50.0921 11.6714C49.7321 11.6714 49.454 11.9495 49.454 12.3095V12.9476H50.7301V12.3095C50.7465 11.9495 50.452 11.6714 50.0921 11.6714Z" fill="#6D6D6D"/>
<path d="M21.6401 12.3095C21.6401 11.9822 21.3947 11.7205 21.0839 11.6877H20.9203C20.6094 11.7368 20.364 11.9822 20.364 12.3095V12.9475H21.6401V12.3095Z" fill="#6D6D6D"/>
<path d="M21.951 12.3095C21.951 12.064 21.8528 11.8514 21.7056 11.6877H21.4765C21.6728 11.835 21.8037 12.0477 21.8037 12.3095V12.9475H21.951V12.3095Z" fill="#6D6D6D"/>
<path d="M20.5276 11.6877H20.2985C20.1513 11.8514 20.0531 12.064 20.0531 12.3095V12.9475H20.2004V12.3095C20.2167 12.0477 20.3476 11.8186 20.5276 11.6877Z" fill="#6D6D6D"/>
<path d="M49.1595 12.3095V12.9476H49.3067V12.3095C49.3067 12.0313 49.454 11.8023 49.6503 11.6714H49.4049C49.2577 11.835 49.1595 12.0477 49.1595 12.3095Z" fill="#6D6D6D"/>
<path d="M50.7956 11.6714H50.5502C50.7629 11.8186 50.8938 12.0313 50.8938 12.3095V12.9476H51.041V12.3095C51.041 12.0477 50.9428 11.835 50.7956 11.6714Z" fill="#6D6D6D"/>
<path d="M21.8037 12.3095C21.8037 12.0477 21.6729 11.835 21.4765 11.6877H21.0839C21.3947 11.7368 21.6401 11.9822 21.6401 12.3095V12.9475H21.7874V12.3095H21.8037Z" fill="#6D6D6D"/>
<path d="M50.5502 11.6714H50.1084C50.4684 11.6714 50.7465 11.9495 50.7465 12.3095V12.9476H50.8938V12.3095C50.8938 12.0313 50.7465 11.8023 50.5502 11.6714Z" fill="#6D6D6D"/>
<path d="M20.9203 11.6877H20.5277C20.3313 11.835 20.2004 12.0477 20.2004 12.3095V12.9475H20.3477V12.3095C20.3641 11.9822 20.6095 11.7205 20.9203 11.6877Z" fill="#6D6D6D"/>
<path d="M49.3067 12.3095V12.9476H49.454V12.3095C49.454 11.9495 49.7321 11.6714 50.092 11.6714H49.6503C49.4539 11.8023 49.3067 12.0313 49.3067 12.3095Z" fill="#6D6D6D"/>
<path d="M26.6466 11.3767H27.6119C27.7428 11.3767 27.8737 11.4094 27.9882 11.4585C27.7755 10.755 27.661 10.0024 27.661 9.2334C27.661 8.46443 27.7755 7.72818 27.9882 7.02466C27.8737 7.07374 27.7428 7.10646 27.6119 7.10646H26.6466C26.483 7.79363 26.3849 8.49715 26.3849 9.2334C26.3849 9.96965 26.483 10.6895 26.6466 11.3767Z" fill="#6D6D6D"/>
<path d="M28.4791 5.7647C29.7716 3.14693 32.4548 1.34721 35.547 1.34721C38.6393 1.34721 41.3388 3.16329 42.615 5.7647C42.7623 5.43748 43.0895 5.19206 43.4821 5.19206H43.7603C42.2878 2.16527 39.1628 0.0546875 35.547 0.0546875C31.9312 0.0546875 28.8226 2.16527 27.3174 5.19206H27.5956C28.0046 5.19206 28.3318 5.42112 28.4791 5.7647Z" fill="#6D6D6D"/>
<path d="M43.1222 11.4421C43.2368 11.3931 43.3676 11.3603 43.4985 11.3603H44.4638C44.6274 10.6732 44.7256 9.96965 44.7256 9.2334C44.7256 8.49715 44.6274 7.79363 44.4638 7.10646H43.4985C43.3676 7.10646 43.2368 7.07374 43.1222 7.02466C43.3349 7.72818 43.4494 8.46443 43.4494 9.2334C43.4331 9.98601 43.3186 10.7386 43.1222 11.4421Z" fill="#6D6D6D"/>
<path d="M27.612 13.2579H27.3338C28.8227 16.3011 31.9477 18.3953 35.5634 18.3953C39.1792 18.3953 42.2878 16.3011 43.7931 13.2579H43.5149C43.1223 13.2579 42.795 13.0289 42.6478 12.6853C41.3553 15.3031 38.6721 17.1028 35.5798 17.1028C32.4712 17.1028 29.788 15.3031 28.5118 12.6853C28.3319 13.0289 28.0046 13.2579 27.612 13.2579Z" fill="#6D6D6D"/>
<path d="M28.25 12.3258C28.25 12.244 28.2337 12.1459 28.201 12.0804C28.1028 11.8514 27.8737 11.6877 27.612 11.6877H26.7285C26.843 12.1295 27.0066 12.5549 27.1866 12.9475H27.612C27.9719 12.9475 28.25 12.6694 28.25 12.3258Z" fill="#6D6D6D"/>
<path d="M42.8441 6.14126C42.8441 6.22306 42.8605 6.30487 42.8932 6.37031C42.8932 6.38667 42.8932 6.38667 42.9096 6.40303C43.0077 6.63209 43.2204 6.77934 43.4986 6.77934H44.3821C44.2675 6.33759 44.1039 5.9122 43.9239 5.50317H43.4986C43.1386 5.50317 42.8441 5.78131 42.8441 6.14126Z" fill="#6D6D6D"/>
<path d="M43.4986 11.6714C43.2368 11.6714 43.0077 11.8186 42.9096 12.0477C42.9096 12.0641 42.8932 12.0641 42.8932 12.0804C42.8605 12.1459 42.8441 12.2277 42.8441 12.3095C42.8441 12.6694 43.1223 12.9476 43.4822 12.9476H43.9076C44.0876 12.5385 44.2512 12.1131 44.3657 11.6714H43.4986Z" fill="#6D6D6D"/>
<path d="M27.612 6.77934C27.8737 6.77934 28.0864 6.63209 28.1846 6.40303C28.1846 6.38667 28.201 6.37031 28.201 6.35395C28.2173 6.28851 28.25 6.2067 28.25 6.14126C28.25 5.78131 27.9719 5.50317 27.612 5.50317H27.1866C27.0066 5.9122 26.843 6.33759 26.7285 6.77934H27.612Z" fill="#6D6D6D"/>
<path d="M28.3645 5.97747C28.3972 5.91202 28.43 5.83022 28.4627 5.76477C28.3154 5.43755 27.9882 5.2085 27.5955 5.2085H27.3174C27.2847 5.25758 27.2683 5.30666 27.2356 5.35575H27.5955C27.9882 5.35575 28.2991 5.61752 28.3645 5.97747Z" fill="#6D6D6D"/>
<path d="M42.6314 5.76462C42.6641 5.83006 42.6969 5.91187 42.7296 5.97731C42.8114 5.61737 43.1059 5.35559 43.4985 5.35559H43.8585C43.8421 5.30651 43.8094 5.25743 43.7767 5.20834H43.4985C43.1059 5.19198 42.7787 5.42104 42.6314 5.76462Z" fill="#6D6D6D"/>
<path d="M27.612 13.0944H27.252C27.2684 13.1435 27.3011 13.1925 27.3338 13.2416H27.612C28.0046 13.2416 28.3318 13.0126 28.4791 12.6853C28.4464 12.6199 28.4136 12.5381 28.3809 12.4727C28.2991 12.8326 27.9883 13.0944 27.612 13.0944Z" fill="#6D6D6D"/>
<path d="M27.6119 11.5235C27.7919 11.5235 27.9391 11.5889 28.07 11.6707C28.0373 11.5889 28.0209 11.5235 28.0046 11.4417C27.89 11.3926 27.7592 11.3599 27.6283 11.3599H26.663C26.6793 11.4089 26.6957 11.458 26.6957 11.5071L27.6119 11.5235Z" fill="#6D6D6D"/>
<path d="M42.7296 12.4727C42.6969 12.5381 42.6641 12.6199 42.6314 12.6853C42.7787 13.0126 43.1059 13.258 43.4985 13.258H43.7767C43.8094 13.2089 43.8258 13.1598 43.8585 13.1107H43.4985C43.1059 13.0944 42.8114 12.8326 42.7296 12.4727Z" fill="#6D6D6D"/>
<path d="M43.4985 7.09015H44.4638C44.4475 7.04107 44.4311 6.99199 44.4311 6.9429H43.4985C43.3349 6.9429 43.1877 6.87746 43.0568 6.79565C43.0732 6.87746 43.1059 6.9429 43.1222 7.02471C43.2368 7.05743 43.3513 7.09015 43.4985 7.09015Z" fill="#6D6D6D"/>
<path d="M27.6119 7.09065C27.7428 7.09065 27.8737 7.05792 27.9882 7.00884C28.0046 6.92703 28.0373 6.86159 28.0537 6.77979C27.9228 6.86159 27.7756 6.92703 27.6119 6.92703H26.6794C26.663 6.97612 26.6466 7.0252 26.6466 7.07428H27.6119V7.09065Z" fill="#6D6D6D"/>
<path d="M43.4985 11.5071H44.4311C44.4475 11.458 44.4638 11.4089 44.4638 11.3599H43.4985C43.3677 11.3599 43.2368 11.3926 43.1222 11.4417C43.0895 11.5071 43.0732 11.5889 43.0568 11.6544C43.1713 11.5726 43.3186 11.5071 43.4985 11.5071Z" fill="#6D6D6D"/>
<path d="M43.4985 11.6714H44.382C44.3984 11.6223 44.4148 11.5733 44.4148 11.5242H43.4822C43.3186 11.5242 43.1713 11.5896 43.0404 11.6714C42.9914 11.8023 42.9423 11.9332 42.8932 12.0477C43.0077 11.8187 43.2368 11.6714 43.4985 11.6714Z" fill="#6D6D6D"/>
<path d="M27.6119 11.6873C27.8737 11.6873 28.1027 11.8509 28.2009 12.08C28.1518 11.9491 28.1027 11.8182 28.0537 11.6873C27.9228 11.6055 27.7755 11.54 27.5955 11.54H26.663C26.6793 11.5891 26.6957 11.6382 26.6957 11.6873H27.6119Z" fill="#6D6D6D"/>
<path d="M43.4985 6.94274H44.4311C44.4148 6.89366 44.3984 6.84458 44.3984 6.79549H43.5149C43.2531 6.79549 43.0241 6.64824 42.9259 6.41919C42.975 6.55008 43.0241 6.66461 43.0732 6.79549C43.1713 6.8773 43.3186 6.94274 43.4985 6.94274Z" fill="#6D6D6D"/>
<path d="M28.25 12.3255C28.25 12.6691 27.9555 12.9472 27.6119 12.9472H27.1865C27.2029 12.9963 27.2356 13.0454 27.2683 13.0945H27.6283C28.0046 13.0945 28.3154 12.8327 28.3972 12.4727C28.3318 12.3419 28.2827 12.211 28.2336 12.0637C28.2336 12.1455 28.25 12.2273 28.25 12.3255Z" fill="#6D6D6D"/>
<path d="M42.8441 12.3091C42.8441 12.2273 42.8604 12.1455 42.8932 12.0801C42.8441 12.211 42.7786 12.3419 42.7296 12.4727C42.8114 12.8327 43.1059 13.0945 43.4985 13.0945H43.8585C43.8748 13.0454 43.9075 12.9963 43.9403 12.9472H43.5149C43.1386 12.9472 42.8441 12.6691 42.8441 12.3091Z" fill="#6D6D6D"/>
<path d="M28.25 6.14104C28.25 6.22285 28.2336 6.28829 28.2009 6.35374C28.25 6.22285 28.2991 6.09196 28.3645 5.97743C28.2827 5.61749 27.9882 5.35571 27.5956 5.35571H27.2356C27.2193 5.4048 27.1865 5.45388 27.1702 5.50296H27.5956C27.9719 5.50296 28.25 5.7811 28.25 6.14104Z" fill="#6D6D6D"/>
<path d="M27.612 6.94274C27.7756 6.94274 27.9228 6.8773 28.0537 6.79549C28.1028 6.66461 28.1355 6.55008 28.1846 6.41919C28.0864 6.63188 27.8737 6.79549 27.612 6.79549H26.7285C26.7121 6.84458 26.6957 6.89366 26.6957 6.94274H27.612Z" fill="#6D6D6D"/>
<path d="M42.7296 5.97743C42.795 6.10832 42.8441 6.23921 42.8932 6.3701C42.8604 6.30465 42.8441 6.22285 42.8441 6.14104C42.8441 5.7811 43.1222 5.50296 43.4822 5.50296H43.9076C43.8912 5.45388 43.8585 5.4048 43.8257 5.35571H43.4658C43.1059 5.35571 42.8114 5.61749 42.7296 5.97743Z" fill="#6D6D6D"/>
<path d="M30.7205 11.5896H33.1746V14.0438C33.1746 14.4037 33.4528 14.6819 33.8127 14.6819H37.2649C37.6248 14.6819 37.903 14.4037 37.903 14.0602V11.606H40.3571C40.7171 11.606 40.9952 11.3279 40.9952 10.9679V7.51572C40.9952 7.15578 40.7171 6.87764 40.3571 6.87764H37.903V4.42348C37.903 4.06354 37.6248 3.7854 37.2649 3.7854H33.8127C33.4528 3.7854 33.1746 4.06354 33.1746 4.42348V6.87764H30.7205C30.3605 6.87764 30.0824 7.15578 30.0824 7.51572V10.9515C30.0824 11.2951 30.3605 11.5896 30.7205 11.5896ZM31.3749 8.15381H33.8291C34.189 8.15381 34.4672 7.87567 34.4672 7.51572V5.06156H36.6268V7.51572C36.6268 7.87567 36.905 8.15381 37.2649 8.15381H39.7191V10.2971H37.2649C36.905 10.2971 36.6268 10.5752 36.6268 10.9352V13.3893H34.4672V10.9515C34.4672 10.5916 34.189 10.3135 33.8291 10.3135H31.3749V8.15381Z" fill="#6D6D6D"/>
<path d="M24.9123 40.1066H29.019C29.3789 40.1066 29.6571 39.8121 29.6571 39.4685V33.693C29.6571 33.3331 29.3789 33.0549 29.019 33.0549H24.9123C24.5524 33.0549 24.2743 33.3331 24.2743 33.693V39.4685C24.2743 39.8284 24.5524 40.1066 24.9123 40.1066ZM25.5504 34.3311H28.3809V38.8304H25.5504V34.3311Z" fill="#6D6D6D"/>
<path d="M33.4856 40.1066H37.6085C37.9521 40.1066 38.2466 39.8121 38.2466 39.4685V33.693C38.2466 33.3331 37.9685 33.0549 37.6085 33.0549H33.4856C33.1256 33.0549 32.8475 33.3331 32.8475 33.693V39.4685C32.8475 39.8284 33.1256 40.1066 33.4856 40.1066ZM34.1236 34.3311H36.9705V38.8304H34.1236V34.3311Z" fill="#6D6D6D"/>
<path d="M42.0751 40.1066H46.1817C46.5417 40.1066 46.8198 39.8121 46.8198 39.4685V33.693C46.8198 33.3331 46.5417 33.0549 46.1817 33.0549H42.0751C41.7151 33.0549 41.437 33.3331 41.437 33.693V39.4685C41.437 39.8284 41.7151 40.1066 42.0751 40.1066ZM42.7132 34.3311H45.5436V38.8304H42.7132V34.3311Z" fill="#6D6D6D"/>
<path d="M24.9123 28.8341H29.019C29.3789 28.8341 29.6571 28.5396 29.6571 28.196V22.4206C29.6571 22.0606 29.3789 21.7825 29.019 21.7825H24.9123C24.5524 21.7825 24.2743 22.0606 24.2743 22.4206V28.196C24.2743 28.556 24.5524 28.8341 24.9123 28.8341ZM25.5504 23.0423H28.3809V27.5416H25.5504V23.0423Z" fill="#6D6D6D"/>
<path d="M33.4856 28.8341H37.6085C37.9521 28.8341 38.2466 28.5396 38.2466 28.196V22.4206C38.2466 22.0606 37.9685 21.7825 37.6085 21.7825H33.4856C33.1256 21.7825 32.8475 22.0606 32.8475 22.4206V28.196C32.8475 28.556 33.1256 28.8341 33.4856 28.8341ZM34.1236 23.0423H36.9705V27.5416H34.1236V23.0423Z" fill="#6D6D6D"/>
<path d="M42.0751 28.8341H46.1817C46.5417 28.8341 46.8198 28.5396 46.8198 28.196V22.4206C46.8198 22.0606 46.5417 21.7825 46.1817 21.7825H42.0751C41.7151 21.7825 41.437 22.0606 41.437 22.4206V28.196C41.437 28.556 41.7151 28.8341 42.0751 28.8341ZM42.7132 23.0423H45.5436V27.5416H42.7132V23.0423Z" fill="#6D6D6D"/>
<path d="M28.4627 44.7535H34.8599C34.7126 44.5898 34.5981 44.3608 34.5981 44.1154C34.5981 43.87 34.6963 43.6409 34.8599 43.4773H27.8246C27.4647 43.4773 27.1865 43.7554 27.1865 44.1154V61.4581H28.4627V44.7535Z" fill="#6D6D6D"/>
<path d="M36.2015 61.4747V45.0645H35.5634C35.318 45.0645 35.089 44.9663 34.9254 44.8027V61.4583H36.2015V61.4747Z" fill="#6D6D6D"/>
<path d="M36.2015 62.4066V61.7849H34.9254V62.423C34.9254 62.7829 35.2035 63.0611 35.5634 63.0611C35.907 63.0611 36.2015 62.7666 36.2015 62.4066Z" fill="#6D6D6D"/>
<path d="M27.8246 63.0447C28.1846 63.0447 28.4627 62.7666 28.4627 62.4066V61.7849H27.1866V62.4066C27.1702 62.7502 27.4647 63.0447 27.8246 63.0447Z" fill="#6D6D6D"/>
<path d="M36.1851 61.4744H34.909V61.6216H36.1851V61.4744Z" fill="#6D6D6D"/>
<path d="M28.4464 61.4744H27.1702V61.6216H28.4464V61.4744Z" fill="#6D6D6D"/>
<path d="M36.1851 61.6213H34.909V61.7686H36.1851V61.6213Z" fill="#6D6D6D"/>
<path d="M28.4464 61.6213H27.1702V61.7686H28.4464V61.6213Z" fill="#6D6D6D"/>
<path d="M36.496 44.7535H42.6478V61.4581H43.9239V44.1154C43.9239 43.7554 43.6458 43.4773 43.2859 43.4773H36.2506C36.3979 43.6409 36.5124 43.87 36.5124 44.1154V44.7535H36.496Z" fill="#6D6D6D"/>
<path d="M42.6478 62.4069C42.6478 62.7505 42.9095 63.0286 43.2531 63.045H43.2858C43.6458 63.045 43.9239 62.7505 43.9239 62.3905V61.7688H42.6478V62.4069Z" fill="#6D6D6D"/>
<path d="M43.9239 61.4744H42.6478V61.6216H43.9239V61.4744Z" fill="#6D6D6D"/>
<path d="M43.9239 61.6213H42.6478V61.7686H43.9239V61.6213Z" fill="#6D6D6D"/>
<path d="M34.909 44.1154C34.909 44.4753 35.1871 44.7535 35.547 44.7535H36.1851V44.1154C36.1851 43.7554 35.907 43.4773 35.547 43.4773C35.1871 43.4773 34.909 43.7554 34.909 44.1154Z" fill="#6D6D6D"/>
<path d="M36.3488 44.1154V44.7535H36.496V44.1154C36.496 43.87 36.3979 43.6409 36.2342 43.4773H35.9888C36.2015 43.6245 36.3488 43.8372 36.3488 44.1154Z" fill="#6D6D6D"/>
<path d="M36.2015 44.1154V44.7535H36.3488V44.1154C36.3488 43.8372 36.2015 43.6082 36.0052 43.4773H35.5634C35.907 43.4773 36.2015 43.7554 36.2015 44.1154Z" fill="#6D6D6D"/>
<path d="M17.599 29.3411H7.5533C7.19336 29.3411 6.91522 29.6192 6.91522 29.9791V33.6931C6.91522 34.0531 7.19336 34.3312 7.5533 34.3312H17.599C17.9589 34.3312 18.2371 34.0367 18.2371 33.6931V29.9791C18.2534 29.6192 17.9589 29.3411 17.599 29.3411ZM16.9609 33.055H8.19139V30.6172H16.9609V33.055Z" fill="#6D6D6D"/>
<path d="M17.599 37.2761H7.5533C7.19336 37.2761 6.91522 37.5543 6.91522 37.9142V41.6282C6.91522 41.9881 7.19336 42.2662 7.5533 42.2662H17.599C17.9426 42.2662 18.2371 41.9717 18.2371 41.6282V37.9142C18.2534 37.5706 17.9589 37.2761 17.599 37.2761ZM16.9609 41.0064H8.19139V38.5686H16.9609V41.0064Z" fill="#6D6D6D"/>
<path d="M17.599 45.2114H7.5533C7.19336 45.2114 6.91522 45.4896 6.91522 45.8495V49.5635C6.91522 49.9234 7.19336 50.2015 7.5533 50.2015H17.599C17.9589 50.2015 18.2371 49.9071 18.2371 49.5635V45.8495C18.2534 45.4896 17.9589 45.2114 17.599 45.2114ZM16.9609 48.9254H8.19139V46.4876H16.9609V48.9254Z" fill="#6D6D6D"/>
<path d="M17.599 53.1299H7.5533C7.19336 53.1299 6.91522 53.408 6.91522 53.768V57.4819C6.91522 57.8419 7.19336 58.12 7.5533 58.12H17.599C17.9589 58.12 18.2371 57.8255 18.2371 57.4819V53.768C18.2534 53.408 17.9589 53.1299 17.599 53.1299ZM16.9609 56.8438H8.19139V54.4061H16.9609V56.8438Z" fill="#6D6D6D"/>
<path d="M63.5408 29.3411H53.5115C53.1516 29.3411 52.8734 29.6192 52.8734 29.9791V33.6931C52.8734 34.0531 53.1516 34.3312 53.5115 34.3312H63.5572C63.7208 34.3312 63.9008 34.2657 64.0153 34.1349C64.1298 34.0203 64.1953 33.8567 64.1789 33.6931V29.9628C64.1789 29.6192 63.9008 29.3411 63.5408 29.3411ZM62.8864 33.055H54.1332V30.6172H62.8864V33.055Z" fill="#6D6D6D"/>
<path d="M63.5408 37.2761H53.5115C53.1516 37.2761 52.8734 37.5543 52.8734 37.9142V41.6282C52.8734 41.9881 53.1516 42.2662 53.5115 42.2662H63.5572C63.7208 42.2662 63.8844 42.2008 64.0153 42.0699C64.1298 41.939 64.1953 41.7918 64.1953 41.6282V37.8978C64.1789 37.5706 63.9008 37.2761 63.5408 37.2761ZM62.8864 41.0064H54.1332V38.5686H62.8864V41.0064Z" fill="#6D6D6D"/>
<path d="M63.5408 45.2114H53.5115C53.1516 45.2114 52.8734 45.4896 52.8734 45.8495V49.5635C52.8734 49.9234 53.1516 50.2015 53.5115 50.2015H63.5572C63.7208 50.2015 63.9008 50.1361 64.0153 50.0052C64.1298 49.8907 64.1953 49.7271 64.1789 49.5635V45.8495C64.1789 45.4896 63.9008 45.2114 63.5408 45.2114ZM62.8864 48.9254H54.1332V46.4876H62.8864V48.9254Z" fill="#6D6D6D"/>
<path d="M63.5408 53.1299H53.5115C53.1516 53.1299 52.8734 53.408 52.8734 53.768V57.4819C52.8734 57.8419 53.1516 58.12 53.5115 58.12H63.5572C63.7208 58.12 63.9008 58.0546 64.0153 57.9237C64.1298 57.8091 64.1953 57.6455 64.1789 57.4819V53.7516C64.1789 53.408 63.9008 53.1299 63.5408 53.1299ZM62.8864 56.8438H54.1332V54.4061H62.8864V56.8438Z" fill="#6D6D6D"/>
</svg>
