<svg width="79" height="78" viewBox="0 0 79 78" fill="none" xmlns="http://www.w3.org/2000/svg">
<path d="M36.0375 14.9884L31.3637 22.0007L32.9238 23.0405L37.5975 16.0282L36.0375 14.9884Z" fill="#6D6D6D"/>
<path d="M46.0893 14.9816L41.4155 21.9939L42.9756 23.0337L47.6493 16.0213L46.0893 14.9816Z" fill="#6D6D6D"/>
<path d="M58.3557 43.2007C56.4619 43.2007 54.9091 44.7536 54.9091 46.6473C54.9091 48.5411 56.4619 50.094 58.3557 50.094C60.2495 50.094 61.8024 48.5411 61.8024 46.6473C61.8024 44.7536 60.2495 43.2007 58.3557 43.2007ZM58.3557 48.2192C57.4846 48.2192 56.7839 47.5185 56.7839 46.6473C56.7839 45.7762 57.4846 45.0755 58.3557 45.0755C59.2269 45.0755 59.9275 45.7762 59.9275 46.6473C59.9275 47.5185 59.2269 48.2192 58.3557 48.2192Z" fill="#6D6D6D"/>
<path d="M47.0499 43.2007H31.9755C30.7635 43.2007 29.7787 44.1854 29.7787 45.3975V47.9162C29.7787 49.1282 30.7635 50.1129 31.9755 50.1129H47.0499C48.262 50.1129 49.2467 49.1282 49.2467 47.9162V45.3975C49.2467 44.1854 48.262 43.2007 47.0499 43.2007ZM31.6536 48.2192V45.0755H47.3719V48.2192H31.6536Z" fill="#6D6D6D"/>
<path d="M20.6697 43.2007C18.7759 43.2007 17.223 44.7536 17.223 46.6473C17.223 48.5411 18.7759 50.094 20.6697 50.094C22.5635 50.094 24.1163 48.5411 24.1163 46.6473C24.1163 44.7536 22.5824 43.2007 20.6697 43.2007ZM20.6697 48.2192C19.7986 48.2192 19.0979 47.5185 19.0979 46.6473C19.0979 45.7762 19.7986 45.0755 20.6697 45.0755C21.5408 45.0755 22.2415 45.7762 22.2415 46.6473C22.2415 47.5185 21.5408 48.2192 20.6697 48.2192Z" fill="#6D6D6D"/>
<path d="M60.5525 62.5928L60.8176 62.555C62.9765 62.1762 64.7377 60.6423 65.4195 58.578L66.8398 54.336V21.0246C66.8398 17.1423 64.7566 13.5063 61.3857 11.5368L51.7654 5.93122V3.94276C51.7654 2.04899 50.2125 0.496094 48.3187 0.496094H30.7445C28.8507 0.496094 27.2978 2.04899 27.2978 3.94276V5.91228L17.6586 11.5368C14.3066 13.5063 12.2045 17.1423 12.2045 21.0246V54.336L13.6248 58.578C14.3066 60.6423 16.0678 62.1762 18.2267 62.555L18.4918 62.5928V75.8492H5.91718V77.7241H73.1082V75.8492H60.5525V62.5928ZM29.1537 3.94276C29.1537 3.07162 29.8544 2.37093 30.7256 2.37093H48.2998C49.1709 2.37093 49.8716 3.07162 49.8716 3.94276V5.51459H29.1537V3.94276ZM14.0793 21.0246C14.0793 17.8052 15.8027 14.7751 18.6054 13.1654L28.472 7.40836H50.5723L60.4388 13.1654C63.2227 14.7941 64.965 17.8052 64.965 21.0246V53.2565H14.0793V21.0246ZM26.0101 75.8492H20.3477V62.6496H26.0101V75.8492ZM51.1404 75.8492H27.8849V72.7056H51.1215V75.8492H51.1404ZM51.1404 70.8307H27.8849V67.6871H51.1215V70.8307H51.1404ZM51.1404 65.8122H27.8849V62.6686H51.1215V65.8122H51.1404ZM58.6776 75.8492H53.0153V62.6496H58.6776V75.8492ZM19.2683 60.7748C17.5071 60.7748 15.9542 59.6575 15.386 57.972L14.4391 55.1124H64.5862L63.6393 57.972C63.0901 59.6386 61.5183 60.7748 59.7571 60.7748H19.2683Z" fill="#6D6D6D"/>
<path d="M2.77358 75.8494H0.898743V77.7242H2.77358V75.8494Z" fill="#6D6D6D"/>
<path d="M78.1267 75.8494H76.2519V77.7242H78.1267V75.8494Z" fill="#6D6D6D"/>
<path d="M59.1322 15.8546L52.5987 11.5368C51.6139 10.8929 50.4776 10.552 49.3035 10.552H29.7219C28.5478 10.552 27.4115 10.8929 26.4267 11.5368L19.8932 15.8546C18.2267 16.9719 17.223 18.8278 17.223 20.8352V36.6103C17.223 38.5041 18.7759 40.0569 20.6697 40.0569H58.3557C60.2495 40.0569 61.8024 38.5041 61.8024 36.6103V20.8352C61.8024 18.8278 60.7987 16.9719 59.1322 15.8546ZM29.1538 12.4647L29.4568 12.4458C29.6083 12.4268 29.6651 12.4268 29.7408 12.4268H49.3224C49.3982 12.4268 49.455 12.4268 49.5308 12.4458L49.8338 12.4647L49.9095 12.7677V25.6264H29.1538V12.4647ZM19.0979 20.8352C19.0979 19.4717 19.7796 18.1839 20.9348 17.4264L27.2789 13.2222V25.6075H19.0979V20.8352ZM59.9276 36.5913C59.9276 37.4625 59.2269 38.1632 58.3557 38.1632H20.6697C19.7986 38.1632 19.0979 37.4625 19.0979 36.5913V32.5008H31.5967L34.1155 35.0195H44.9478L47.4665 32.5008H59.9465V36.5913H59.9276ZM59.9276 30.6449H46.6712L44.1524 33.1636H34.873L32.3543 30.6449H19.0979V27.5013H59.9276V30.6449ZM59.9276 25.6075H51.7465V13.2222L58.0906 17.4264C59.2458 18.1839 59.9276 19.4527 59.9276 20.8352V25.6075Z" fill="#6D6D6D"/>
</svg>
