<svg width="72" height="61" viewBox="0 0 72 61" fill="none" xmlns="http://www.w3.org/2000/svg">
<path d="M31.0788 34.3147C30.8895 34.1253 30.6054 34.0117 30.3213 34.0117H15.1333C14.5462 34.0117 14.0728 34.4852 14.0728 35.0722V57.646H16.1938V36.1138H29.2798V57.627H31.4008V35.0533C31.3818 34.7692 31.2682 34.5041 31.0788 34.3147Z" fill="#6D6D6D"/>
<path d="M37.4799 50.7336C37.4799 51.3207 37.9533 51.7941 38.5404 51.7941H57.9894C58.2735 51.7941 58.5386 51.6805 58.7469 51.4911C58.9552 51.3017 59.0499 51.0177 59.0499 50.7336V35.0532C59.0499 34.7691 58.9363 34.504 58.7469 34.2957C58.5386 34.0874 58.2735 33.9927 57.9894 33.9927H38.5404C37.9533 33.9927 37.4799 34.4661 37.4799 35.0532V50.7336ZM39.6009 36.1137H56.9289V49.6542H39.6009V36.1137Z" fill="#6D6D6D"/>
<path d="M2.88062 21.5697L9.07325 2.25324H17.6331L17.8793 0.927603C17.955 0.586724 18.1255 0.321596 18.3527 0.113281H8.22106C7.74761 0.113281 7.34992 0.416285 7.21736 0.851852L0.570221 21.797C0.797473 21.6644 1.02473 21.5508 1.30879 21.5508H2.88062V21.5697Z" fill="#6D6D6D"/>
<path d="M14.4895 29.5617C14.641 29.4102 14.7735 29.2398 14.9061 29.0694C14.3948 28.3497 14.016 27.5543 13.8456 26.7021C13.6562 27.2135 13.3911 27.668 12.9934 28.0657C12.2927 28.7664 11.3647 29.1451 10.3989 29.1451H6.06217C6.0243 29.1451 5.98642 29.1262 5.94855 29.1262C6.27049 29.3913 6.4788 29.7701 6.4788 30.2056V31.2661H10.38C11.9329 31.2661 13.3911 30.6601 14.4895 29.5617Z" fill="#6D6D6D"/>
<path d="M4.69865 28.8607C4.24415 28.6714 3.80858 28.4062 3.44876 28.0464C2.74807 27.3457 2.36931 26.4178 2.36931 25.433V24.3725H1.3088C0.911111 24.3725 0.513419 24.1831 0.248291 23.8801V25.452C0.248291 27.0048 0.854298 28.4631 1.95268 29.5614C2.44507 30.0538 3.03213 30.4515 3.65708 30.7356V30.2053C3.65708 29.5614 4.09265 29.0312 4.69865 28.8607Z" fill="#6D6D6D"/>
<path d="M0.45661 23.5964C0.645987 23.8616 0.967928 24.032 1.30881 24.032H13.713V22.9904C13.713 22.9336 13.7319 22.8768 13.7509 22.8389C13.7509 22.8011 13.7319 22.7632 13.7509 22.7064L13.9024 21.9299H1.30881C0.797489 21.9299 0.399797 22.2897 0.286171 22.7632C0.229358 23.0473 0.267233 23.3503 0.45661 23.5964Z" fill="#6D6D6D"/>
<path d="M1.3088 24.3724H2.36931V24.202H1.3088C0.911111 24.202 0.532357 24.0126 0.305104 23.6907C0.267229 23.6528 0.267229 23.596 0.248291 23.5581V23.899C0.513419 24.1831 0.892173 24.3724 1.3088 24.3724Z" fill="#6D6D6D"/>
<path d="M1.3088 24.2022H2.36931V24.0318H13.713H1.3088C0.967924 24.0318 0.645983 23.8613 0.456606 23.5962C0.286166 23.35 0.229353 23.047 0.305104 22.7629C0.286166 22.8198 0.248291 22.8955 0.248291 22.9713V23.5394C0.267229 23.5773 0.267229 23.6341 0.305104 23.6719C0.532357 24.0128 0.911111 24.2022 1.3088 24.2022Z" fill="#6D6D6D"/>
<path d="M20.6631 1.41998L20.5116 2.2343H28.8442L28.9199 1.0791C28.9578 0.681413 29.1472 0.359471 29.4123 0.113281H20.1518C20.2086 0.170094 20.3033 0.20797 20.3601 0.264783C20.6252 0.586724 20.7388 1.02229 20.6631 1.41998Z" fill="#6D6D6D"/>
<path d="M18.2391 0.965478L17.9929 2.2343H18.0687L18.0308 2.44262L14.3569 21.5697H15.1144H16.4211L20.1329 2.25324H20.1518L20.3223 1.38211C20.3791 1.0791 20.2844 0.757163 20.095 0.510973C19.8867 0.245845 19.5837 0.113281 19.2807 0.113281C18.7694 0.113281 18.3338 0.473098 18.2391 0.965478Z" fill="#6D6D6D"/>
<path d="M20.4927 1.40105L20.3412 2.2343H20.5116L20.6631 1.41998C20.7389 1.00335 20.6252 0.586724 20.3601 0.264783C20.3033 0.20797 20.2276 0.170094 20.1518 0.113281H19.8677C20.0003 0.189032 20.1139 0.264783 20.2086 0.378409C20.4548 0.662475 20.5684 1.04123 20.4927 1.40105Z" fill="#6D6D6D"/>
<path d="M20.3222 1.36317L20.1518 2.2343H20.3412L20.4927 1.40105C20.5495 1.04123 20.4548 0.662475 20.2275 0.378409C20.1329 0.264783 20.0003 0.189032 19.8677 0.113281H19.2807H19.2617C19.5837 0.113281 19.8677 0.245845 20.076 0.492035C20.2844 0.738226 20.379 1.06017 20.3222 1.36317Z" fill="#6D6D6D"/>
<path d="M14.3568 21.5698L18.0308 2.44269L18.0686 2.23438H17.9929L14.319 21.5698H14.3568Z" fill="#6D6D6D"/>
<path d="M14.4705 21.74C14.6598 21.6453 14.8871 21.5696 15.1144 21.5696H14.3568L14.319 21.74H14.4705Z" fill="#6D6D6D"/>
<path d="M14.2811 21.74H14.319L14.3569 21.5696H14.319L14.2811 21.74Z" fill="#6D6D6D"/>
<path d="M14.4705 21.7402H14.319L14.3 21.8539C14.3569 21.816 14.4137 21.7781 14.4705 21.7402Z" fill="#6D6D6D"/>
<path d="M14.3001 21.8539L14.319 21.7402H14.2811L14.2433 21.8917C14.2622 21.8728 14.2811 21.8728 14.3001 21.8539Z" fill="#6D6D6D"/>
<path d="M26.799 28.0464C26.0983 28.7471 25.1703 29.1258 24.1856 29.1258H19.8678C18.883 29.1258 17.955 28.7471 17.2544 28.0464C16.8567 27.6487 16.5915 27.1942 16.4022 26.6829C16.2317 27.554 15.853 28.3494 15.3416 29.069C15.4742 29.2395 15.6068 29.4099 15.7583 29.5803C16.8567 30.6787 18.3149 31.2847 19.8678 31.2847H24.1856C25.7384 31.2847 27.1967 30.6787 28.295 29.5803C28.4465 29.4288 28.5791 29.2395 28.7117 29.069C28.2003 28.3494 27.8216 27.554 27.6512 26.6829C27.4807 27.1752 27.1967 27.6487 26.799 28.0464Z" fill="#6D6D6D"/>
<path d="M16.1938 25.452C16.1938 25.452 16.1749 25.452 16.1938 25.452V24.3726H15.1333C15.1333 24.3726 15.1333 24.3726 15.1144 24.3726H14.0728V25.4331C14.0728 25.4331 14.0728 25.4331 14.0728 25.452C14.0728 26.664 14.4515 27.8192 15.1333 28.785C15.8151 27.8192 16.1938 26.664 16.1938 25.452Z" fill="#6D6D6D"/>
<path d="M14.0539 23.8801V24.0127H14.2243C14.1864 23.9748 14.1107 23.9369 14.0539 23.8801Z" fill="#6D6D6D"/>
<path d="M14.4705 24.2021H14.0728V24.3726H15.1334C14.8872 24.3726 14.6599 24.3158 14.4705 24.2021Z" fill="#6D6D6D"/>
<path d="M14.0728 24.2022H14.4705C14.3758 24.1643 14.319 24.0886 14.2432 24.0317H14.0539V24.2022H14.0728Z" fill="#6D6D6D"/>
<path d="M16.2885 26.2473C16.156 27.2131 15.8151 28.1221 15.2469 28.9175C15.2848 28.9743 15.3227 29.0122 15.3606 29.0501C15.8719 28.3305 16.2506 27.5351 16.4211 26.6639C16.3643 26.5314 16.3075 26.3988 16.2885 26.2473Z" fill="#6D6D6D"/>
<path d="M16.1938 25.4517C16.1938 26.6637 15.8151 27.8189 15.1333 28.7847C15.1712 28.8415 15.2091 28.8794 15.2469 28.9173C15.8151 28.1219 16.1559 27.2129 16.2885 26.247C16.2317 25.9819 16.1938 25.7168 16.1938 25.4517Z" fill="#6D6D6D"/>
<path d="M14.0539 25.452L14.0728 25.4331V24.3726H14.0539V25.452Z" fill="#6D6D6D"/>
<path d="M16.5347 24.032H27.5375V22.9904C27.5375 22.9715 27.5375 22.9715 27.5375 22.9526C27.5375 22.9336 27.5186 22.9147 27.5375 22.8958L27.5943 21.9299H16.7809L16.5347 23.1609V24.032Z" fill="#6D6D6D"/>
<path d="M16.3453 22.2894L16.4211 21.9106H16.0423C16.0613 21.9296 16.0991 21.9485 16.137 21.9675C16.2128 22.0621 16.2696 22.1758 16.3453 22.2894Z" fill="#6D6D6D"/>
<path d="M16.5347 23.1609L16.762 21.9299H16.5915L16.459 22.6117C16.4968 22.7253 16.5347 22.8389 16.5347 22.9715V23.1609Z" fill="#6D6D6D"/>
<path d="M16.459 22.5924L16.5915 21.9106H16.4022L16.3264 22.2894C16.4022 22.403 16.44 22.4977 16.459 22.5924Z" fill="#6D6D6D"/>
<path d="M16.0613 24.0316H16.1938V23.8801C16.137 23.918 16.0992 23.9748 16.0613 24.0316Z" fill="#6D6D6D"/>
<path d="M15.1143 24.032C15.1333 24.032 15.1333 24.032 15.1143 24.032C15.6446 24.032 16.0802 23.6722 16.1749 23.1798L16.1938 23.123V22.9904C16.1938 22.7064 16.0802 22.4412 15.8908 22.2329C15.6825 22.0246 15.4174 21.9299 15.1333 21.9299C14.5841 21.9299 14.1675 22.3466 14.0917 22.8579C14.0538 23.1419 14.1296 23.426 14.319 23.6533C14.5083 23.8805 14.8113 24.032 15.1143 24.032Z" fill="#6D6D6D"/>
<path d="M16.1938 23.8796V23.6145C16.0802 23.7849 15.9287 23.9175 15.7393 24.0311H16.0613C16.0991 23.9743 16.137 23.9175 16.1938 23.8796Z" fill="#6D6D6D"/>
<path d="M16.1938 23.6147V23.1223L16.1749 23.1791C16.0802 23.6715 15.6446 24.0313 15.1333 24.0313H15.7393C15.9097 23.9177 16.0802 23.7851 16.1938 23.6147Z" fill="#6D6D6D"/>
<path d="M16.5347 24.0315V23.1604L16.5157 23.2362C16.4779 23.3877 16.4211 23.5202 16.3453 23.6528V24.0315H16.5347Z" fill="#6D6D6D"/>
<path d="M16.2885 22.5928L16.3453 22.3087C16.2885 22.1951 16.2317 22.0814 16.137 21.9867C16.1181 21.9678 16.0802 21.9489 16.0423 21.9299H15.7204C15.8151 21.9867 15.9097 22.0436 16.0044 22.1193C16.137 22.2329 16.2317 22.4034 16.2885 22.5928Z" fill="#6D6D6D"/>
<path d="M16.3643 23.6527C16.44 23.5201 16.4968 23.3875 16.5347 23.236L16.5536 23.1603V22.9898C16.5536 22.8573 16.5158 22.7436 16.4779 22.6111L16.3832 23.1413V23.6527H16.3643Z" fill="#6D6D6D"/>
<path d="M16.3643 23.1416L16.459 22.6114C16.4211 22.4977 16.3832 22.403 16.3264 22.3083L16.2696 22.5924C16.3075 22.725 16.3453 22.8386 16.3453 22.9712V23.1416H16.3643Z" fill="#6D6D6D"/>
<path d="M16.1938 24.0316H16.3643V23.6528C16.3074 23.7475 16.2506 23.8043 16.1938 23.8801V24.0316Z" fill="#6D6D6D"/>
<path d="M16.1938 22.9713V23.1039L16.2885 22.5736C16.2317 22.3842 16.137 22.2138 16.0044 22.0812C15.9287 22.0055 15.8151 21.9487 15.7204 21.8918H15.1333C15.4174 21.8918 15.6825 22.0055 15.8908 22.1948C16.0802 22.4221 16.1938 22.6872 16.1938 22.9713Z" fill="#6D6D6D"/>
<path d="M16.3643 23.6527V23.1414L16.3453 23.1982C16.3075 23.3497 16.2506 23.4822 16.1749 23.6148V23.8799C16.2506 23.8042 16.3075 23.7284 16.3643 23.6527Z" fill="#6D6D6D"/>
<path d="M16.3453 23.1982L16.3643 23.1413V22.9898C16.3643 22.8573 16.3264 22.7247 16.2885 22.6111L16.1938 23.1413V23.6337C16.2696 23.4822 16.3264 23.3497 16.3453 23.1982Z" fill="#6D6D6D"/>
<path d="M15.7772 24.2021C15.5878 24.2968 15.3606 24.3726 15.1333 24.3726H16.1749V24.2021H15.7772Z" fill="#6D6D6D"/>
<path d="M14.5273 24.0315C14.3947 23.9558 14.2811 23.88 14.1864 23.7664C14.1296 23.7096 14.1107 23.6149 14.0728 23.5581V23.899C14.1296 23.9558 14.1864 23.9937 14.2432 24.0315H14.5273Z" fill="#6D6D6D"/>
<path d="M15.1144 24.3726C15.1333 24.3726 15.1333 24.3726 15.1144 24.3726C15.3606 24.3726 15.5689 24.2968 15.7772 24.2021H15.1333H14.4705C14.6599 24.3158 14.8871 24.3726 15.1144 24.3726Z" fill="#6D6D6D"/>
<path d="M15.1333 24.2022C14.9061 24.2022 14.7167 24.1264 14.5273 24.0317H14.2433C14.319 24.0886 14.3948 24.1643 14.4705 24.2022H15.1333Z" fill="#6D6D6D"/>
<path d="M16.1749 24.0317H16.0423C15.9666 24.1075 15.853 24.1643 15.7583 24.2022H16.156V24.0317H16.1749Z" fill="#6D6D6D"/>
<path d="M14.5273 24.0316H15.1333C14.8114 24.0316 14.5273 23.899 14.319 23.6528C14.1296 23.4256 14.0728 23.1415 14.0917 22.8574C14.0917 22.8953 14.0728 22.9332 14.0728 22.99V23.5581C14.1107 23.6339 14.1296 23.7096 14.1864 23.7664C14.2622 23.8801 14.3947 23.9558 14.5273 24.0316Z" fill="#6D6D6D"/>
<path d="M16.0612 24.0317H15.7393C15.5499 24.1454 15.3606 24.2022 15.1333 24.2022H15.7772C15.8719 24.1454 15.9666 24.0886 16.0612 24.0317Z" fill="#6D6D6D"/>
<path d="M15.1333 24.2022C15.3606 24.2022 15.5689 24.1264 15.7393 24.0317H15.1333C15.1333 24.0317 15.1333 24.0317 15.1144 24.0317H14.5273C14.6978 24.1264 14.9061 24.2022 15.1333 24.2022Z" fill="#6D6D6D"/>
<path d="M31.7607 1.26848L31.7039 2.25324H40.0364L39.9796 1.26848C39.9607 0.87079 40.0933 0.492035 40.3584 0.20797C40.3963 0.170094 40.4531 0.151157 40.4909 0.113281H31.2683C31.3062 0.151157 31.363 0.170094 31.4008 0.20797C31.647 0.492035 31.7985 0.87079 31.7607 1.26848Z" fill="#6D6D6D"/>
<path d="M29.2798 1.09804L27.9731 21.5508H28.9578H30.0941L31.3251 2.2343H31.344L31.4008 1.23061C31.4197 0.94654 31.3061 0.643537 31.1167 0.435222C30.9274 0.226908 30.6433 0.113281 30.3592 0.113281H30.3403C29.7722 0.113281 29.3177 0.548849 29.2798 1.09804Z" fill="#6D6D6D"/>
<path d="M31.5902 1.24954L31.5334 2.2343H31.7038L31.7606 1.24954C31.7796 0.851852 31.647 0.473098 31.3819 0.189032C31.344 0.170094 31.3061 0.151157 31.2682 0.113281H30.9652C31.0789 0.170094 31.1736 0.226908 31.2682 0.321596C31.4955 0.567786 31.6091 0.908665 31.5902 1.24954Z" fill="#6D6D6D"/>
<path d="M31.4197 1.23061L31.3629 2.2343H31.5334L31.5902 1.24954C31.6091 0.908665 31.4955 0.567786 31.2493 0.321596C31.1546 0.226908 31.0599 0.170094 30.9463 0.113281H30.3592C30.6433 0.113281 30.9274 0.226908 31.1167 0.435222C31.325 0.662475 31.4387 0.94654 31.4197 1.23061Z" fill="#6D6D6D"/>
<path d="M28.0469 21.9106H27.9542V21.9848C27.9727 21.9477 28.0098 21.9477 28.0469 21.9106Z" fill="#6D6D6D"/>
<path d="M28.295 21.74C28.4844 21.6453 28.7116 21.5696 28.9389 21.5696H27.9541L27.9352 21.74H28.295Z" fill="#6D6D6D"/>
<path d="M28.0489 21.9107C28.1246 21.8349 28.2193 21.7781 28.314 21.7402H27.9731L27.9542 21.9107H28.0489Z" fill="#6D6D6D"/>
<path d="M40.6235 28.0464C39.9228 28.7471 38.9948 29.1258 38.0101 29.1258H33.6923C32.7075 29.1258 31.7796 28.7471 31.0789 28.0464C30.6812 27.6487 30.4161 27.1942 30.2267 26.6829C30.0562 27.5351 29.6775 28.3494 29.1662 29.0501C29.2987 29.2205 29.4313 29.391 29.5828 29.5614C30.6812 30.6598 32.1394 31.2658 33.6923 31.2658H38.0101C39.563 31.2658 41.0212 30.6598 42.1196 29.5614C42.2711 29.4099 42.4036 29.2205 42.5362 29.0501C42.0249 28.3304 41.6461 27.5351 41.4757 26.6829C41.2863 27.1942 41.0212 27.6676 40.6235 28.0464Z" fill="#6D6D6D"/>
<path d="M30.0184 24.3726H28.9958C28.9958 24.3726 28.9768 24.3726 28.9579 24.3726H27.8974V25.452C27.8974 26.664 28.2762 27.8192 28.9579 28.785C29.6397 27.8192 30.0184 26.664 30.0184 25.452V24.3726Z" fill="#6D6D6D"/>
<path d="M27.9163 23.937C27.8974 23.9181 27.8974 23.8992 27.8974 23.8992V24.0317H28.0489C28.011 23.9939 27.9542 23.9749 27.9163 23.937Z" fill="#6D6D6D"/>
<path d="M28.2951 24.2021H27.8974V24.3726H28.9579C28.7117 24.3726 28.5034 24.2968 28.2951 24.2021Z" fill="#6D6D6D"/>
<path d="M28.0489 24.0317H27.8974V24.2022H28.314C28.2193 24.1454 28.1247 24.0886 28.0489 24.0317Z" fill="#6D6D6D"/>
<path d="M30.113 26.2473C29.9805 27.2131 29.6396 28.1221 29.0715 28.9175C29.1093 28.9743 29.1472 29.0122 29.1851 29.0501C29.6964 28.3305 30.0752 27.5351 30.2456 26.6829C30.1888 26.5503 30.1509 26.3988 30.113 26.2473Z" fill="#6D6D6D"/>
<path d="M30.0184 25.4331V24.3726V25.4331C30.0184 26.664 29.6396 27.8003 28.9579 28.785C28.9957 28.8419 29.0336 28.8797 29.0715 28.9176C29.6396 28.1222 29.9805 27.2132 30.1131 26.2474C30.0562 25.9823 30.0184 25.7171 30.0184 25.4331Z" fill="#6D6D6D"/>
<path d="M30.3592 23.1605V24.0317H41.3431V23.0469L41.2673 21.9106H30.4539L30.3782 23.0469C30.3971 23.0848 30.3782 23.1227 30.3592 23.1605Z" fill="#6D6D6D"/>
<path d="M30.0941 22.1758L30.1131 21.9106H29.8669C29.8858 21.9296 29.9237 21.9485 29.9616 21.9675C30.0184 22.0432 30.0373 22.119 30.0941 22.1758Z" fill="#6D6D6D"/>
<path d="M30.3592 23.1609C30.3592 23.123 30.3782 23.1041 30.3782 23.0662L30.4539 21.9299H30.2835L30.2456 22.4412C30.3214 22.6117 30.3592 22.8011 30.3592 22.9904V23.1609Z" fill="#6D6D6D"/>
<path d="M30.2456 22.422L30.2835 21.9106H30.1131L30.0941 22.1758C30.151 22.2705 30.2078 22.3462 30.2456 22.422Z" fill="#6D6D6D"/>
<path d="M30.0176 23.9177C29.9799 23.9553 29.9423 23.9929 29.9047 24.0306H30.0176V23.9177Z" fill="#6D6D6D"/>
<path d="M27.8974 22.9524C27.8974 23.2175 27.9921 23.5016 28.1815 23.691C28.3898 23.8993 28.6549 24.0318 28.9579 24.0318H28.9768C29.5071 24.0318 29.9237 23.6531 29.9995 23.1418V22.9903C29.9995 22.7062 29.8859 22.4411 29.6965 22.2328C29.5071 22.0434 29.223 21.9297 28.939 21.9297C28.3708 21.9108 27.9163 22.3843 27.8974 22.9524Z" fill="#6D6D6D"/>
<path d="M30.0184 23.9175V23.6145C29.9047 23.7849 29.7532 23.9175 29.5828 24.0311H29.9047C29.9426 23.9933 29.9805 23.9554 30.0184 23.9175Z" fill="#6D6D6D"/>
<path d="M30.0184 23.6148V23.1414C29.9426 23.6527 29.507 24.0314 28.9957 24.0314H28.9768H29.6017C29.7532 23.9178 29.9047 23.7852 30.0184 23.6148Z" fill="#6D6D6D"/>
<path d="M30.3592 24.0315V23.1604C30.3403 23.3498 30.2645 23.5202 30.1888 23.6717V24.0315H30.3592Z" fill="#6D6D6D"/>
<path d="M30.0752 22.4791L30.0941 22.1951C30.0373 22.1193 30.0184 22.0436 29.9616 21.9867C29.9426 21.9678 29.9047 21.9489 29.8669 21.9299H29.5449C29.6396 21.9867 29.7343 22.0436 29.829 22.1193C29.9426 22.214 30.0184 22.3276 30.0752 22.4791Z" fill="#6D6D6D"/>
<path d="M30.1888 23.1416V23.6719C30.2835 23.5204 30.3403 23.3499 30.3593 23.1606V22.9901C30.3593 22.8007 30.3214 22.6114 30.2457 22.4409L30.2078 23.0469C30.2078 23.0659 30.1888 23.1037 30.1888 23.1416Z" fill="#6D6D6D"/>
<path d="M30.1888 23.1415C30.1888 23.1036 30.2078 23.0847 30.2078 23.0468L30.2457 22.4408C30.2078 22.3461 30.132 22.2703 30.0752 22.1946L30.0563 22.4786C30.132 22.6301 30.1699 22.8006 30.1699 22.99V23.1415H30.1888Z" fill="#6D6D6D"/>
<path d="M30.0184 24.0312H30.1888V23.6714C30.132 23.7661 30.0752 23.8418 30.0184 23.9176V24.0312Z" fill="#6D6D6D"/>
<path d="M30.0184 22.9715V23.123C30.0184 23.0851 30.0373 23.0662 30.0373 23.0283L30.0752 22.4791C30.0184 22.3466 29.9426 22.214 29.829 22.1193C29.7532 22.0436 29.6396 21.9867 29.5449 21.9299H28.9579C29.2419 21.9299 29.507 22.0436 29.7154 22.2329C29.9047 22.4223 30.0184 22.6874 30.0184 22.9715Z" fill="#6D6D6D"/>
<path d="M30.1888 23.6716V23.1414C30.1699 23.3118 30.0941 23.4822 30.0184 23.6148V23.9178C30.0752 23.8421 30.132 23.7474 30.1888 23.6716Z" fill="#6D6D6D"/>
<path d="M30.1888 23.1417V22.9713C30.1888 22.8008 30.1509 22.6304 30.0752 22.46L30.0373 23.0092C30.0373 23.047 30.0184 23.0849 30.0184 23.1038V23.5773C30.0941 23.4637 30.1699 23.3122 30.1888 23.1417Z" fill="#6D6D6D"/>
<path d="M30.0184 24.2021H29.6396C29.4502 24.2968 29.223 24.3726 28.9957 24.3726H30.0184V24.2021Z" fill="#6D6D6D"/>
<path d="M27.9163 23.9367C27.9542 23.9746 28.011 23.9935 28.0489 24.0314H28.3519C28.2383 23.9746 28.1436 23.9178 28.0489 23.8231C27.9732 23.7473 27.9353 23.6527 27.8974 23.5769V23.8988C27.8974 23.8988 27.9163 23.9178 27.9163 23.9367Z" fill="#6D6D6D"/>
<path d="M28.9389 24.3726C28.9578 24.3726 28.9578 24.3726 28.9389 24.3726C28.9578 24.3726 28.9578 24.3726 28.9768 24.3726C29.204 24.3726 29.4313 24.2968 29.6207 24.2021H28.9389H28.295C28.5033 24.2968 28.7116 24.3726 28.9389 24.3726Z" fill="#6D6D6D"/>
<path d="M28.295 24.2022H28.9389C28.7306 24.2022 28.5223 24.1264 28.3329 24.0317H28.0299C28.1246 24.0886 28.2193 24.1454 28.295 24.2022Z" fill="#6D6D6D"/>
<path d="M30.0184 24.0317H29.9047C29.829 24.1075 29.7343 24.1643 29.6207 24.2022H29.9994V24.0317H30.0184Z" fill="#6D6D6D"/>
<path d="M27.8973 23.5583C27.9541 23.653 27.992 23.7477 28.0488 23.8045C28.1435 23.8992 28.2382 23.956 28.3518 24.0128H28.9389C28.6548 24.0128 28.3707 23.8992 28.1624 23.6719C27.973 23.4636 27.8784 23.1985 27.8784 22.9333C27.8784 22.9523 27.8784 22.9523 27.8784 22.9523V23.5583H27.8973Z" fill="#6D6D6D"/>
<path d="M29.9047 24.0317H29.5828C29.3934 24.1454 29.1851 24.2211 28.9579 24.2022H29.6396C29.7154 24.1454 29.829 24.0886 29.9047 24.0317Z" fill="#6D6D6D"/>
<path d="M28.9579 24.2022C29.1851 24.2022 29.3934 24.1264 29.5828 24.0317H28.9579H28.3708C28.5412 24.1264 28.7306 24.2022 28.9579 24.2022Z" fill="#6D6D6D"/>
<path d="M30.0184 24.2022V24.0317H30.1888H30.0184V24.2022Z" fill="#6D6D6D"/>
<path d="M42.8203 1.0791L42.896 2.2343H51.2097L51.0393 1.43892C50.9635 1.02229 51.0771 0.605662 51.3423 0.283721C51.418 0.20797 51.5127 0.170094 51.5695 0.113281H42.3279C42.612 0.359471 42.8014 0.681413 42.8203 1.0791Z" fill="#6D6D6D"/>
<path d="M40.3394 1.23061L41.6272 21.5508H42.7824H43.7671L42.5362 2.2343H42.574L42.4983 1.09804C42.4225 0.548849 41.968 0.113281 41.4188 0.113281H41.3999C41.1158 0.113281 40.8318 0.226908 40.6424 0.435222C40.4151 0.662475 40.3205 0.94654 40.3394 1.23061Z" fill="#6D6D6D"/>
<path d="M42.6498 1.0791L42.7256 2.2343H42.896L42.8202 1.0791C42.8013 0.681413 42.6119 0.359471 42.3279 0.113281H42.0059C42.3657 0.321596 42.6119 0.662475 42.6498 1.0791Z" fill="#6D6D6D"/>
<path d="M42.4604 1.09804L42.5362 2.2343H42.7066L42.6309 1.0791C42.6119 0.662475 42.3658 0.321596 42.0059 0.113281H41.3999C41.9681 0.113281 42.4226 0.548849 42.4604 1.09804Z" fill="#6D6D6D"/>
<path d="M41.8544 21.9106H41.6272L41.6461 22.1379C41.7219 22.0621 41.7787 21.9864 41.8544 21.9106Z" fill="#6D6D6D"/>
<path d="M42.1196 21.74C42.3089 21.6453 42.5362 21.5696 42.7634 21.5696H41.6082L41.6272 21.74H42.1196Z" fill="#6D6D6D"/>
<path d="M41.8544 21.9107C41.9302 21.8349 42.0249 21.7781 42.1196 21.7402H41.6272L41.6461 21.9107H41.8544Z" fill="#6D6D6D"/>
<path d="M54.448 28.0464C53.7473 28.7471 52.8194 29.1258 51.8346 29.1258H47.5168C46.5321 29.1258 45.6041 28.7471 44.9034 28.0464C44.5057 27.6487 44.2406 27.1942 44.0512 26.6829C43.8808 27.554 43.502 28.3494 42.9907 29.069C43.1233 29.2395 43.2559 29.4099 43.4074 29.5803C44.5057 30.6787 45.9639 31.2847 47.5168 31.2847H51.8346C53.3875 31.2847 54.8457 30.6787 55.9441 29.5803C56.0956 29.4288 56.2282 29.2395 56.3607 29.069C55.8494 28.3494 55.4707 27.554 55.3002 26.6829C55.1298 27.1752 54.8457 27.6487 54.448 28.0464Z" fill="#6D6D6D"/>
<path d="M42.8013 24.3726H42.7635H41.7029V25.4331V25.452C41.7029 26.664 42.0817 27.8192 42.7635 28.785C43.4452 27.8192 43.824 26.664 43.824 25.452V25.4331V24.3726H42.8013Z" fill="#6D6D6D"/>
<path d="M41.7029 23.8801V24.0316H41.8355C41.7976 23.9748 41.7598 23.918 41.7029 23.8801Z" fill="#6D6D6D"/>
<path d="M41.7029 24.3726H42.7635C42.5362 24.3726 42.309 24.2968 42.1196 24.2021H41.7029V24.3726Z" fill="#6D6D6D"/>
<path d="M42.1196 24.2022C42.0249 24.1454 41.9302 24.0886 41.8355 24.0317H41.7029V24.2022H42.1196Z" fill="#6D6D6D"/>
<path d="M43.9186 26.2473C43.7861 27.2131 43.4452 28.1221 42.8771 28.9175C42.915 28.9743 42.9528 29.0122 42.9907 29.0501C43.502 28.3305 43.8808 27.5351 44.0512 26.6639C44.0133 26.5314 43.9565 26.3988 43.9186 26.2473Z" fill="#6D6D6D"/>
<path d="M43.8239 25.4333C43.8239 26.6643 43.4452 27.8006 42.7634 28.7853C42.8013 28.8421 42.8392 28.88 42.8771 28.9179C43.4452 28.1225 43.7861 27.2135 43.9186 26.2477C43.8618 25.9825 43.8239 25.7174 43.8239 25.4333Z" fill="#6D6D6D"/>
<path d="M44.1838 23.0469V24.0317H55.1866V23.2173L54.9404 21.9106H44.1459L44.2027 22.8765C44.2027 22.9333 44.1838 22.9901 44.1838 23.0469Z" fill="#6D6D6D"/>
<path d="M43.8042 22.024V21.9299H43.6914C43.7102 21.9487 43.7478 21.9675 43.7854 21.9863C43.7854 21.9863 43.7854 22.0051 43.8042 22.024Z" fill="#6D6D6D"/>
<path d="M44.1838 23.0469C44.1838 22.9901 44.2027 22.9333 44.2027 22.8765L44.1459 21.9106H43.9755L43.9944 22.3083C44.108 22.5167 44.1838 22.725 44.1838 22.9712V23.0469Z" fill="#6D6D6D"/>
<path d="M43.9944 22.3083L43.9755 21.9106H43.8051V22.0053C43.8808 22.1 43.9376 22.2136 43.9944 22.3083Z" fill="#6D6D6D"/>
<path d="M43.8239 23.9177C43.8239 23.9177 43.8239 23.9367 43.8239 23.9177C43.7861 23.9745 43.7293 23.9935 43.6914 24.0124H43.8239V23.9177Z" fill="#6D6D6D"/>
<path d="M41.7029 22.9712V23.028C41.7408 23.5961 42.1953 24.0317 42.7635 24.0317H42.8013C43.0854 24.0317 43.3695 23.918 43.5588 23.6908C43.7293 23.5203 43.805 23.2931 43.824 23.0658V22.9712C43.824 22.6871 43.7103 22.422 43.521 22.2136C43.3316 22.0243 43.0475 21.9106 42.7635 21.9106C42.1764 21.9106 41.7029 22.3841 41.7029 22.9712Z" fill="#6D6D6D"/>
<path d="M43.824 23.9368C43.824 23.9368 43.824 23.9179 43.824 23.9368V23.5959C43.7861 23.6717 43.7482 23.7475 43.6914 23.8232C43.5967 23.9179 43.502 23.9747 43.3884 24.0315H43.6914C43.7293 23.9936 43.7861 23.9747 43.824 23.9368Z" fill="#6D6D6D"/>
<path d="M43.6914 23.8044C43.7482 23.7476 43.7861 23.6529 43.8239 23.5771V23.0469C43.805 23.2741 43.7293 23.5014 43.5588 23.6718C43.3694 23.8801 43.0854 23.9938 42.8013 24.0127H43.3884C43.502 23.9559 43.6156 23.8991 43.6914 23.8044Z" fill="#6D6D6D"/>
<path d="M44.1838 24.0316V23.0469C44.1649 23.2552 44.1081 23.4635 44.0134 23.6529V24.0316H44.1838Z" fill="#6D6D6D"/>
<path d="M43.824 22.3655L43.805 22.0246C43.7861 22.0057 43.7861 21.9867 43.7861 21.9867C43.7671 21.9678 43.7293 21.9489 43.6914 21.9299H43.3694C43.4641 21.9867 43.5588 22.0436 43.6535 22.1193C43.7103 22.1761 43.7671 22.2708 43.824 22.3655Z" fill="#6D6D6D"/>
<path d="M44.0323 22.8955C44.0323 22.9523 44.0133 23.0092 44.0133 23.066V23.653C44.108 23.4637 44.1838 23.2743 44.1838 23.047V22.9902C44.1838 22.744 44.108 22.5357 43.9944 22.3274L44.0323 22.8955Z" fill="#6D6D6D"/>
<path d="M44.0134 23.0469C44.0134 22.9901 44.0323 22.9333 44.0323 22.8765L43.9944 22.2894C43.9376 22.1947 43.8808 22.0811 43.8051 22.0054L43.824 22.3462C43.9376 22.5356 44.0134 22.7439 44.0134 22.9523V23.0469Z" fill="#6D6D6D"/>
<path d="M43.8239 24.0316H43.9944V23.6528C43.9376 23.7475 43.8997 23.8611 43.8239 23.9369V24.0316Z" fill="#6D6D6D"/>
<path d="M43.824 22.9712V23.0658C43.824 23.009 43.8429 22.9522 43.8429 22.8954L43.805 22.3651C43.7482 22.2705 43.7103 22.1758 43.6346 22.1C43.5588 22.0243 43.4452 21.9675 43.3505 21.9106H42.7445C43.0286 21.9106 43.2937 22.0243 43.502 22.2136C43.7103 22.422 43.824 22.6871 43.824 22.9712Z" fill="#6D6D6D"/>
<path d="M44.0133 23.6339V23.0469C43.9944 23.2363 43.9376 23.4256 43.8429 23.5961V23.918C43.8997 23.8423 43.9565 23.7286 44.0133 23.6339Z" fill="#6D6D6D"/>
<path d="M44.0133 23.0467V22.971C44.0133 22.7437 43.9376 22.5544 43.8239 22.365L43.8618 22.8952C43.8618 22.9521 43.8429 23.0089 43.8429 23.0657V23.5959C43.9376 23.4255 43.9944 23.2551 44.0133 23.0467Z" fill="#6D6D6D"/>
<path d="M43.8239 24.2021H43.4262C43.2179 24.3158 43.0096 24.3726 42.7823 24.3726H43.805V24.2021H43.8239Z" fill="#6D6D6D"/>
<path d="M41.8355 24.0314H42.1574C41.9681 23.9178 41.7976 23.7663 41.7029 23.5769V23.8799C41.7598 23.9178 41.7976 23.9746 41.8355 24.0314Z" fill="#6D6D6D"/>
<path d="M42.7635 24.2021H42.1196C42.3089 24.2968 42.5362 24.3726 42.7635 24.3726H42.8013C43.0286 24.3726 43.2369 24.2968 43.4452 24.2021H42.8013H42.7635Z" fill="#6D6D6D"/>
<path d="M42.1195 24.2022H42.7634H42.7824H42.7634C42.5362 24.2022 42.3468 24.1264 42.1574 24.0317H41.8355C41.9302 24.0886 42.0249 24.1454 42.1195 24.2022Z" fill="#6D6D6D"/>
<path d="M43.8239 24.0317H43.6914C43.6156 24.1075 43.5209 24.1643 43.4452 24.2022H43.8429V24.0317H43.8239Z" fill="#6D6D6D"/>
<path d="M42.1574 24.0318H42.8013H42.7635C42.1953 24.0318 41.7408 23.5962 41.7029 23.0281V23.5773C41.8166 23.7666 41.9681 23.9181 42.1574 24.0318Z" fill="#6D6D6D"/>
<path d="M43.6914 24.0317H43.3884C43.199 24.1264 43.0096 24.2022 42.7824 24.2022H43.4263C43.5399 24.1454 43.6156 24.0886 43.6914 24.0317Z" fill="#6D6D6D"/>
<path d="M42.1575 24.0317C42.3468 24.1264 42.5362 24.2022 42.7635 24.2022H42.7824C42.9907 24.2022 43.199 24.1264 43.3884 24.0317H42.8014H42.1575Z" fill="#6D6D6D"/>
<path d="M54.1071 2.2343H62.7238L62.7616 2.34793L68.8785 21.5508H70.4125C70.7155 21.5508 70.9806 21.6644 71.2268 21.8348L64.5797 0.851852C64.4282 0.416285 64.0305 0.113281 63.576 0.113281C63.557 0.113281 63.5381 0.113281 63.5192 0.113281H53.4254C53.6526 0.321596 53.823 0.586724 53.8799 0.889727L54.1071 2.2343Z" fill="#6D6D6D"/>
<path d="M52.4406 0.132219C52.1187 0.132219 51.8346 0.264783 51.6263 0.510973C51.418 0.757163 51.3422 1.06017 51.399 1.36317L55.2244 21.5508H56.588H57.3833L53.7094 2.2343H53.7473L53.5011 0.965478C53.4064 0.492035 53.0087 0.151157 52.5353 0.113281H52.4406C52.4406 0.132219 52.4406 0.132219 52.4406 0.132219Z" fill="#6D6D6D"/>
<path d="M53.6905 0.946646L53.9367 2.23441H54.126L53.8798 0.90877C53.823 0.586829 53.6526 0.321701 53.4253 0.132324H53.1034C53.3875 0.302764 53.6147 0.586829 53.6905 0.946646Z" fill="#6D6D6D"/>
<path d="M53.5201 0.965583L53.7663 2.23441H53.9556L53.7094 0.946646C53.6337 0.586829 53.4064 0.302764 53.1224 0.132324H52.5732C53.0087 0.151262 53.4254 0.492141 53.5201 0.965583Z" fill="#6D6D6D"/>
<path d="M55.679 21.9106H55.2813L55.357 22.3083C55.4517 22.1568 55.5464 22.0243 55.679 21.9106Z" fill="#6D6D6D"/>
<path d="M55.9441 21.74C56.1335 21.6453 56.3607 21.5696 56.588 21.5696H55.2245L55.2623 21.74H55.9441Z" fill="#6D6D6D"/>
<path d="M55.679 21.9107C55.7547 21.8349 55.8494 21.7781 55.9441 21.7402H55.2623L55.3002 21.9107H55.679Z" fill="#6D6D6D"/>
<path d="M70.3936 24.3726H70.3746H69.333V25.4331C69.333 26.4179 68.9543 27.3458 68.2536 28.0465C67.8748 28.4252 67.4203 28.7093 66.9469 28.8798C67.4961 29.0881 67.8748 29.5805 67.8748 30.2054V30.8114C68.5755 30.5273 69.2194 30.0918 69.7497 29.5615C70.8481 28.4631 71.4541 27.0049 71.4541 25.452V23.937C71.1889 24.2021 70.8481 24.3915 70.4693 24.3915C70.4504 24.3726 70.4314 24.3726 70.3936 24.3726Z" fill="#6D6D6D"/>
<path d="M58.7279 28.0464C58.3492 27.6487 58.0651 27.1942 57.8757 26.6829C57.7053 27.5351 57.3265 28.3494 56.8152 29.0501C56.9478 29.2205 57.0803 29.391 57.2318 29.5425C58.3302 30.6408 59.7884 31.2469 61.3413 31.2469H65.0721V30.1863C65.0721 29.7508 65.2804 29.372 65.6023 29.1069H61.3603C60.3566 29.1258 59.4286 28.7471 58.7279 28.0464Z" fill="#6D6D6D"/>
<path d="M56.6069 24.3726H56.4176H55.5275V25.4331V25.452C55.5275 26.6451 55.9062 27.8003 56.588 28.785C57.2698 27.8192 57.6485 26.6451 57.6485 25.452C57.6485 25.452 57.6485 25.452 57.6485 25.4331V24.3726H56.6069Z" fill="#6D6D6D"/>
<path d="M55.66 24.0317C55.6221 23.9939 55.5843 23.937 55.5464 23.8992V24.0317H55.66Z" fill="#6D6D6D"/>
<path d="M55.5275 24.3726H56.4176H56.6069H56.588C56.3418 24.3726 56.1335 24.2968 55.9252 24.2021H55.5275V24.3726Z" fill="#6D6D6D"/>
<path d="M55.66 24.0317H55.5464V24.2022H55.9441C55.8305 24.1454 55.7358 24.0886 55.66 24.0317Z" fill="#6D6D6D"/>
<path d="M56.7016 28.9175C56.7395 28.9743 56.7774 29.0122 56.8152 29.0501C57.3265 28.3305 57.7053 27.5351 57.8757 26.6829C57.8189 26.5503 57.7811 26.3988 57.7432 26.2473C57.6295 27.2131 57.2697 28.1221 56.7016 28.9175Z" fill="#6D6D6D"/>
<path d="M56.7016 28.9173C57.2697 28.1219 57.6106 27.2129 57.7432 26.247C57.6863 25.9819 57.6485 25.7168 57.6485 25.4517C57.6485 26.6447 57.2697 27.7999 56.588 28.7847C56.6258 28.8226 56.6826 28.8794 56.7016 28.9173Z" fill="#6D6D6D"/>
<path d="M71.151 22.2329C70.9616 22.0436 70.6776 21.9299 70.3935 21.9299H57.8189L57.9514 22.6685C57.9704 22.7253 57.9514 22.7821 57.9514 22.8389C57.9514 22.8958 57.9893 22.9526 57.9893 23.0094V24.051H70.545C70.848 24.032 71.1321 23.8805 71.3025 23.6343C71.3783 23.5396 71.4162 23.4071 71.4351 23.2934V23.0094C71.473 22.6874 71.3593 22.4223 71.151 22.2329Z" fill="#6D6D6D"/>
<path d="M57.7053 22.138C57.8568 22.3274 57.9515 22.5547 57.9705 22.8009C57.9705 22.744 57.9894 22.6872 57.9705 22.6304L57.8379 21.8918H57.6674L57.7053 22.138Z" fill="#6D6D6D"/>
<path d="M57.5917 21.9675C57.6296 22.0243 57.6674 22.0811 57.7053 22.1379L57.6674 21.9106H57.5159C57.5349 21.9296 57.5727 21.9485 57.5917 21.9675Z" fill="#6D6D6D"/>
<path d="M57.6484 24.0319V23.8425C57.5916 23.9183 57.4969 23.9562 57.4401 24.0319H57.6484Z" fill="#6D6D6D"/>
<path d="M56.588 21.9106C56.0009 21.9106 55.5275 22.3841 55.5275 22.9712V23.1605C55.6222 23.6529 56.0578 24.0127 56.5691 24.0127H56.588H56.6259C56.9289 23.9938 57.2319 23.8423 57.4023 23.5961C57.5728 23.3878 57.6485 23.1037 57.6296 22.8386C57.5917 22.6113 57.516 22.3841 57.3455 22.2136C57.1561 22.0243 56.8721 21.9106 56.588 21.9106Z" fill="#6D6D6D"/>
<path d="M57.175 24.032H57.4402C57.5159 23.9752 57.5917 23.9183 57.6485 23.8426V23.5017C57.6106 23.5775 57.5917 23.6532 57.5349 23.71C57.4402 23.8426 57.3076 23.9373 57.175 24.032Z" fill="#6D6D6D"/>
<path d="M56.6259 24.0316H57.175C57.3076 23.9558 57.4402 23.8422 57.5538 23.7096C57.6106 23.6528 57.6296 23.5581 57.6674 23.5013V22.99C57.6674 22.9521 57.6485 22.9142 57.6485 22.8574C57.6674 23.1225 57.6106 23.3877 57.4212 23.6149C57.2129 23.8422 56.9289 24.0126 56.6259 24.0316Z" fill="#6D6D6D"/>
<path d="M57.8378 24.0316H58.0083V22.99C58.0083 22.9332 57.9893 22.8764 57.9704 22.8196C57.9893 23.0658 57.9325 23.312 57.8189 23.5392V24.0316H57.8378Z" fill="#6D6D6D"/>
<path d="M57.478 22.1C57.5159 22.1379 57.5159 22.1758 57.5538 22.1947L57.497 21.9106H57.2129C57.2886 21.9675 57.3833 22.0243 57.478 22.1Z" fill="#6D6D6D"/>
<path d="M57.8 22.687C57.819 22.7438 57.8 22.7817 57.8 22.8385C57.8 22.8953 57.8379 22.9332 57.8379 22.99V23.5392C57.9515 23.3119 58.0083 23.0847 57.9894 22.8196C57.9515 22.5734 57.8568 22.3461 57.7243 22.1567L57.8 22.687Z" fill="#6D6D6D"/>
<path d="M57.497 21.9106H57.4781L57.5349 22.1947C57.6864 22.3841 57.7811 22.5924 57.8 22.8197C57.8 22.7628 57.8189 22.725 57.8 22.6682L57.7053 22.1379C57.6674 22.0811 57.6485 22.0243 57.5917 21.9675C57.5727 21.9485 57.5349 21.9296 57.497 21.9106Z" fill="#6D6D6D"/>
<path d="M57.6485 23.8426V24.0319H57.8189V23.5396C57.7621 23.6342 57.7432 23.7479 57.6674 23.8236C57.6674 23.8236 57.6674 23.8236 57.6485 23.8426Z" fill="#6D6D6D"/>
<path d="M57.194 21.9106H56.6069C56.891 21.9106 57.1561 22.0243 57.3644 22.2136C57.5349 22.3841 57.6295 22.6113 57.6485 22.8386C57.6485 22.8007 57.6674 22.7439 57.6485 22.706L57.5538 22.1947C57.5349 22.1568 57.5159 22.119 57.478 22.1C57.3833 22.0243 57.2887 21.9675 57.194 21.9106Z" fill="#6D6D6D"/>
<path d="M57.6485 23.8421C57.6485 23.8231 57.6674 23.8231 57.6674 23.8231C57.7432 23.7285 57.7621 23.6338 57.8189 23.5391V22.9899C57.8189 22.9331 57.8 22.8952 57.781 22.8384C57.8 23.0656 57.7432 23.2929 57.6295 23.5012V23.8421H57.6485Z" fill="#6D6D6D"/>
<path d="M57.6295 22.7059C57.6295 22.7438 57.6295 22.8006 57.6295 22.8385C57.6295 22.8763 57.6485 22.9142 57.6485 22.971V23.4823C57.7621 23.274 57.8189 23.0468 57.8 22.8195C57.781 22.5923 57.6864 22.365 57.5349 22.1946L57.6295 22.7059Z" fill="#6D6D6D"/>
<path d="M70.4125 24.2017H69.352V24.3722H70.3935H70.4125C70.4314 24.3722 70.4693 24.3722 70.4882 24.3722C70.867 24.3722 71.2079 24.2017 71.473 23.9177V23.6904C71.2268 24.0313 70.8291 24.2207 70.4125 24.2017Z" fill="#6D6D6D"/>
<path d="M57.6485 24.3726V24.2021H57.2318C57.0425 24.2968 56.8342 24.3726 56.6069 24.3726H57.6485Z" fill="#6D6D6D"/>
<path d="M55.66 24.0312H55.982C55.8115 23.9365 55.66 23.804 55.5464 23.6335V23.8987C55.5653 23.9365 55.6032 23.9934 55.66 24.0312Z" fill="#6D6D6D"/>
<path d="M56.588 24.2021H55.9251C56.1335 24.2968 56.3418 24.3726 56.588 24.3726H56.6069C56.8342 24.3726 57.0425 24.2968 57.2318 24.2021H56.588Z" fill="#6D6D6D"/>
<path d="M55.944 24.2022H56.6069C56.3796 24.2022 56.1713 24.1264 55.9819 24.0317H55.66C55.7357 24.0886 55.8304 24.1454 55.944 24.2022Z" fill="#6D6D6D"/>
<path d="M70.564 24.0316H58.0083H69.352V24.202H70.4125C70.8292 24.221 71.2269 24.0505 71.473 23.7096V23.2551C71.4352 23.3688 71.4162 23.5013 71.3405 23.596C71.1511 23.8422 70.867 23.9937 70.564 24.0316Z" fill="#6D6D6D"/>
<path d="M57.2318 24.2022H57.6485V24.0317H57.4402C57.3644 24.0886 57.3076 24.1643 57.2318 24.2022Z" fill="#6D6D6D"/>
<path d="M55.9631 24.0312H56.5691C56.0578 24.0312 55.6222 23.6713 55.5275 23.179V23.6335C55.6411 23.8039 55.7926 23.9175 55.9631 24.0312Z" fill="#6D6D6D"/>
<path d="M57.2318 24.2022C57.3076 24.1643 57.3644 24.0886 57.4402 24.0317H57.175C57.0046 24.1264 56.7963 24.2022 56.588 24.2022H57.2318Z" fill="#6D6D6D"/>
<path d="M56.588 24.2022C56.7963 24.2022 56.9856 24.1264 57.175 24.0317H56.6258H56.588H56.569H55.963C56.1524 24.1264 56.3607 24.2022 56.588 24.2022Z" fill="#6D6D6D"/>
<path d="M65.413 31.6257V57.9869H31.7417V59.0475C31.7417 59.4262 31.5902 59.786 31.3251 60.0512C31.3062 60.0701 31.2683 60.089 31.2304 60.108H66.4735C66.7575 60.108 67.0227 59.9943 67.231 59.805C67.4393 59.6156 67.534 59.3315 67.534 59.0475V31.3037C66.928 31.4931 66.303 31.6257 65.6592 31.6257H65.413Z" fill="#6D6D6D"/>
<path d="M13.713 59.0474V57.9869H6.13787V31.6256H6.06212C5.34249 31.6256 4.66073 31.493 4.01685 31.2468V59.0474C4.01685 59.6345 4.49029 60.1079 5.07736 60.1079H14.2243C13.9213 59.8428 13.713 59.483 13.713 59.0474Z" fill="#6D6D6D"/>
<path d="M31.3819 59.0476V57.9871H29.2608H16.1938H14.0539V59.0476C14.0539 59.6346 14.5273 60.1081 15.1144 60.1081H30.3214C30.6054 60.1081 30.8705 59.9945 31.0789 59.8051C31.2682 59.5968 31.3819 59.3316 31.3819 59.0476Z" fill="#6D6D6D"/>
<path d="M13.8834 59.0476V57.9871H13.713V59.0476C13.713 59.4831 13.9213 59.843 14.2243 60.1081H14.5273C14.1485 59.8998 13.8834 59.5021 13.8834 59.0476Z" fill="#6D6D6D"/>
<path d="M31.7417 59.0476V57.9871H31.5712V59.0476C31.5712 59.3695 31.4387 59.6915 31.2114 59.9187C31.1357 59.9945 31.022 60.0513 30.9273 60.1081H31.2493C31.2682 60.0891 31.3061 60.0702 31.344 60.0513C31.5902 59.7861 31.7417 59.4263 31.7417 59.0476Z" fill="#6D6D6D"/>
<path d="M14.0539 59.0476V57.9871H13.8834V59.0476C13.8834 59.5021 14.1486 59.8998 14.5273 60.1081H15.1333C14.5462 60.1081 14.0539 59.6346 14.0539 59.0476Z" fill="#6D6D6D"/>
<path d="M31.5713 59.0476V57.9871H31.4008V59.0476C31.4008 59.3316 31.2872 59.5968 31.0978 59.8051C30.9084 59.9945 30.6244 60.1081 30.3403 60.1081H30.9463C31.041 60.0513 31.1357 59.9945 31.2304 59.9187C31.4387 59.6915 31.5713 59.3695 31.5713 59.0476Z" fill="#6D6D6D"/>
<path d="M6.13787 31.2658V30.2053C6.13787 29.6182 5.66443 29.1448 5.07736 29.1448C4.49029 29.1448 4.01685 29.6182 4.01685 30.2053V30.887C4.66073 31.1332 5.36142 31.2658 6.06212 31.2658H6.13787Z" fill="#6D6D6D"/>
<path d="M6.13793 31.6261V31.4557H6.06218C5.36148 31.4557 4.66079 31.3042 4.01691 31.0769V31.2663C4.66079 31.4935 5.36148 31.645 6.06218 31.645H6.13793V31.6261Z" fill="#6D6D6D"/>
<path d="M6.13793 31.4362V31.2657H6.06218C5.34255 31.2657 4.66079 31.1332 4.01691 30.887V31.0763C4.66079 31.3225 5.36148 31.4551 6.06218 31.4551H6.13793V31.4362Z" fill="#6D6D6D"/>
<path d="M66.4735 29.1448C65.8864 29.1448 65.413 29.6182 65.413 30.2053V31.2658H65.6592C66.303 31.2658 66.928 31.1332 67.534 30.9249V30.2053C67.534 29.6182 67.0605 29.1448 66.4735 29.1448Z" fill="#6D6D6D"/>
<path d="M65.6592 31.4363H65.413V31.6068H65.6592C66.303 31.6068 66.928 31.4742 67.534 31.2848V31.0955C66.928 31.3038 66.303 31.4363 65.6592 31.4363Z" fill="#6D6D6D"/>
<path d="M65.413 31.2659V31.4364H65.6592C66.303 31.4364 66.928 31.3038 67.534 31.1144V30.925C66.928 31.1334 66.303 31.2659 65.6592 31.2659H65.413Z" fill="#6D6D6D"/>
</svg>
