<svg width="104" height="121" viewBox="0 0 104 121" fill="none" xmlns="http://www.w3.org/2000/svg">
<path d="M94.7319 117.996C94.7319 118.143 94.6096 118.271 94.4568 118.271H89.3346C89.1879 118.271 89.0595 118.149 89.0595 117.996V110.829H86.3273V117.996C86.3273 119.651 87.6781 121 89.3346 121H94.4568C96.1133 121 97.458 119.651 97.4641 117.996V110.829H94.7319V117.996Z" fill="#6D6D6D"/>
<path d="M14.9345 117.996C14.9345 118.143 14.8122 118.271 14.6594 118.271H9.53721C9.39051 118.271 9.26215 118.149 9.26215 117.996V110.829H6.53602V117.996C6.53602 119.651 7.88686 121 9.54332 121H14.6655C16.322 121 17.6728 119.651 17.6728 117.996V110.829H14.9406V117.996H14.9345Z" fill="#6D6D6D"/>
<path d="M7.89298 108.1H3.47371V91.6339H2.10454C1.35271 91.6339 0.74147 91.0234 0.74147 90.2725V109.467C0.74147 110.218 1.35271 110.829 2.10454 110.829H6.52991V109.467C6.53603 108.71 7.14115 108.1 7.89298 108.1Z" fill="#6D6D6D"/>
<path d="M9.26215 109.461V110.829H14.9283V109.467C14.9283 108.716 15.5396 108.106 16.2914 108.106H7.9052C8.65702 108.1 9.26215 108.71 9.26215 109.461Z" fill="#6D6D6D"/>
<path d="M101.883 69.515H100.52V88.905H101.883C102.635 88.905 103.246 89.5156 103.246 90.2665V68.1475C103.253 68.9045 102.641 69.515 101.883 69.515Z" fill="#6D6D6D"/>
<path d="M2.10454 88.905H3.4676V69.515H2.10454C1.35271 69.515 0.74147 68.9045 0.74147 68.1536V90.2726C0.74147 89.5156 1.35271 88.905 2.10454 88.905Z" fill="#6D6D6D"/>
<path d="M101.883 91.6339H100.52V108.1H96.101C96.8529 108.1 97.4641 108.71 97.4641 109.461V110.829H101.889C102.641 110.829 103.253 110.218 103.259 109.467V90.2725C103.253 91.0234 102.641 91.6339 101.883 91.6339Z" fill="#6D6D6D"/>
<path d="M89.0595 109.461V110.829H94.7257V109.467C94.7257 108.716 95.337 108.106 96.0888 108.106H87.6965C88.4544 108.1 89.0595 108.71 89.0595 109.461Z" fill="#6D6D6D"/>
<path d="M2.10452 66.7859H3.46759V3.66456H25.68V2.30311C25.68 1.55217 26.2913 0.941652 27.0431 0.941652C27.7949 0.941652 28.4062 1.55217 28.4062 2.30311V3.66456H50.6186V2.297C50.6186 1.54606 51.2299 0.935547 51.9817 0.935547H2.10452C1.3527 0.935547 0.741455 1.54606 0.741455 2.297V68.1474C0.741455 67.3965 1.3527 66.7859 2.10452 66.7859Z" fill="#6D6D6D"/>
<path d="M87.6904 108.1H16.3036C17.0555 108.1 17.6667 108.71 17.6667 109.461V110.829H86.3334V109.467C86.3334 108.71 86.9385 108.1 87.6904 108.1Z" fill="#6D6D6D"/>
<path d="M101.883 0.935669H51.9939C52.7458 0.935669 53.357 1.54619 53.357 2.29712V3.65858H75.5695V2.30323C75.5695 1.55229 76.1807 0.941774 76.9325 0.941774C77.6843 0.941774 78.2956 1.55229 78.2956 2.30323V3.66468H100.508V66.7861H101.871C102.623 66.7861 103.234 67.3966 103.234 68.1475V2.29712C103.253 1.54619 102.641 0.935669 101.883 0.935669Z" fill="#6D6D6D"/>
<path d="M96.101 108.1H96.0949C95.3431 108.1 94.7318 108.71 94.7318 109.461V110.829H97.4641V109.467C97.4641 108.71 96.8528 108.1 96.101 108.1Z" fill="#6D6D6D"/>
<path d="M89.0595 109.461C89.0595 108.71 88.4483 108.1 87.6965 108.1H87.6904C86.9385 108.1 86.3273 108.71 86.3273 109.461V110.829H89.0595V109.461Z" fill="#6D6D6D"/>
<path d="M9.26216 109.461C9.26216 108.71 8.65092 108.1 7.89909 108.1H7.89298C7.14115 108.1 6.52991 108.71 6.52991 109.461V110.829H9.26216V109.461Z" fill="#6D6D6D"/>
<path d="M16.3036 108.1H16.2975C15.5457 108.1 14.9345 108.71 14.9345 109.461V110.829H17.6667V109.467C17.6667 108.71 17.0555 108.1 16.3036 108.1Z" fill="#6D6D6D"/>
<path d="M53.3631 90.2665C53.3631 91.0174 52.7519 91.634 52 91.634H100.526V88.905H53.3631V90.2665Z" fill="#6D6D6D"/>
<path d="M50.6309 90.2665V88.905H3.4737V91.634H52C51.2421 91.634 50.6309 91.0235 50.6309 90.2665Z" fill="#6D6D6D"/>
<path d="M2.10454 91.634H3.4676V88.905H2.10454C1.35271 88.905 0.74147 89.5156 0.74147 90.2665C0.74147 91.0174 1.35271 91.634 2.10454 91.634Z" fill="#6D6D6D"/>
<path d="M101.883 88.905H100.52V91.634H101.883C102.635 91.634 103.246 91.0235 103.246 90.2726C103.246 89.5217 102.641 88.905 101.883 88.905Z" fill="#6D6D6D"/>
<path d="M28.4184 3.66455H25.6862V66.7859H28.4184V3.66455Z" fill="#6D6D6D"/>
<path d="M28.4184 2.3031C28.4184 1.55217 27.8072 0.94165 27.0553 0.94165C26.3035 0.94165 25.6923 1.55217 25.6923 2.3031V3.66456H28.4245V2.3031H28.4184Z" fill="#6D6D6D"/>
<path d="M28.4184 68.1475C28.4184 68.8984 27.8072 69.5089 27.0553 69.5089H50.637V68.1475V66.786H28.4184V68.1475Z" fill="#6D6D6D"/>
<path d="M25.6862 68.1475V66.786H3.4737V69.515H27.0553C26.2974 69.515 25.6862 68.9045 25.6862 68.1475Z" fill="#6D6D6D"/>
<path d="M2.10454 69.515H3.4676V66.786H2.10454C1.35271 66.786 0.74147 67.3965 0.74147 68.1475C0.74147 68.8984 1.35271 69.515 2.10454 69.515Z" fill="#6D6D6D"/>
<path d="M28.4184 68.1475V66.786H25.6862V68.1475C25.6862 68.8984 26.2974 69.5089 27.0492 69.5089C27.8011 69.5089 28.4184 68.9045 28.4184 68.1475Z" fill="#6D6D6D"/>
<path d="M53.3631 69.515H76.9448C76.1929 69.515 75.5817 68.9045 75.5817 68.1536V66.7921H53.3631V68.1536V69.515Z" fill="#6D6D6D"/>
<path d="M78.3078 68.1473C78.3078 68.8983 77.6966 69.5088 76.9448 69.5088H100.526V66.7798H78.3078V68.1473Z" fill="#6D6D6D"/>
<path d="M101.883 66.786H100.52V69.515H101.883C102.635 69.515 103.246 68.9045 103.246 68.1536C103.246 67.4026 102.641 66.786 101.883 66.786Z" fill="#6D6D6D"/>
<path d="M78.3078 3.66455H75.5756V66.7859H78.3078V3.66455Z" fill="#6D6D6D"/>
<path d="M78.3078 2.3031C78.3078 1.55217 77.6966 0.94165 76.9448 0.94165C76.1929 0.94165 75.5817 1.55217 75.5817 2.3031V3.66456H78.3139V2.3031H78.3078Z" fill="#6D6D6D"/>
<path d="M76.9387 69.515C77.6905 69.515 78.3017 68.9045 78.3017 68.1536V66.7921H75.5695V68.1536C75.5756 68.9045 76.1868 69.515 76.9387 69.515Z" fill="#6D6D6D"/>
<path d="M82.9838 38.8121C83.7356 38.8121 84.3469 38.2016 84.3469 37.4507V33C84.3469 32.2491 83.7356 31.6385 82.9838 31.6385C82.232 31.6385 81.6208 32.2491 81.6208 33V37.4507C81.6208 38.2016 82.232 38.8121 82.9838 38.8121Z" fill="#6D6D6D"/>
<path d="M70.8996 38.8121C71.6514 38.8121 72.2627 38.2016 72.2627 37.4507V33C72.2627 32.2491 71.6514 31.6385 70.8996 31.6385C70.1478 31.6385 69.5365 32.2491 69.5365 33V37.4507C69.5304 38.2016 70.1417 38.8121 70.8996 38.8121Z" fill="#6D6D6D"/>
<path d="M33.0944 38.8121C33.8462 38.8121 34.4575 38.2016 34.4575 37.4507V33C34.4575 32.2491 33.8462 31.6385 33.0944 31.6385C32.3426 31.6385 31.7313 32.2491 31.7313 33V37.4507C31.7313 38.2016 32.3426 38.8121 33.0944 38.8121Z" fill="#6D6D6D"/>
<path d="M21.0102 31.6385C20.2583 31.6385 19.6471 32.2491 19.6471 33V37.4507C19.6471 38.2016 20.2583 38.8121 21.0102 38.8121C21.762 38.8121 22.3732 38.2016 22.3732 37.4507V33C22.3732 32.2491 21.762 31.6385 21.0102 31.6385Z" fill="#6D6D6D"/>
<path d="M72.2688 79.2101C72.2688 79.9611 72.88 80.5716 73.6318 80.5716H80.2516C81.0034 80.5716 81.6146 79.9611 81.6146 79.2101C81.6146 78.4592 81.0034 77.8487 80.2516 77.8487H73.6318C72.88 77.8426 72.2688 78.4531 72.2688 79.2101Z" fill="#6D6D6D"/>
<path d="M30.3622 77.8424H23.7424C22.9906 77.8424 22.3794 78.4529 22.3794 79.2039C22.3794 79.9548 22.9906 80.5653 23.7424 80.5653H30.3622C31.114 80.5653 31.7252 79.9548 31.7252 79.2039C31.7252 78.4529 31.114 77.8424 30.3622 77.8424Z" fill="#6D6D6D"/>
<path d="M50.6309 69.515V88.905H53.3631V69.515H51.9939H50.6309Z" fill="#6D6D6D"/>
<path d="M50.6309 66.7859H51.9939H53.3631V3.66455H50.6309V66.7859Z" fill="#6D6D6D"/>
<path d="M50.6309 2.29712V3.65858H53.3631V2.29712C53.3631 1.54619 52.7519 0.935669 52 0.935669C51.2482 0.935669 50.6309 1.54619 50.6309 2.29712Z" fill="#6D6D6D"/>
<path d="M50.6309 90.2666C50.6309 91.0175 51.2421 91.6281 51.9939 91.6281C52.7458 91.6281 53.357 91.0175 53.357 90.2605V88.899H50.6248V90.2666H50.6309Z" fill="#6D6D6D"/>
<path d="M50.6309 68.1475V69.5089H51.9939C51.2421 69.515 50.6309 68.9045 50.6309 68.1475Z" fill="#6D6D6D"/>
<path d="M51.9939 66.786H50.6309V68.1475C50.6309 67.3965 51.2421 66.786 51.9939 66.786Z" fill="#6D6D6D"/>
<path d="M53.3631 68.1475V66.786H52C52.7519 66.786 53.3631 67.3965 53.3631 68.1475Z" fill="#6D6D6D"/>
<path d="M51.9939 69.515H53.357V68.1536C53.3631 68.9045 52.7519 69.515 51.9939 69.515Z" fill="#6D6D6D"/>
<path d="M50.6309 68.1475C50.6309 68.8984 51.2421 69.5089 51.9939 69.5089C52.7458 69.5089 53.357 68.8984 53.357 68.1475C53.357 67.3965 52.7458 66.786 51.9939 66.786C51.2421 66.786 50.6309 67.3965 50.6309 68.1475Z" fill="#6D6D6D"/>
</svg>
