<svg width="85" height="86" viewBox="0 0 85 86" fill="none" xmlns="http://www.w3.org/2000/svg">
<path d="M68.222 26.7315C68.222 25.2206 69.4362 24.0064 70.9471 24.0064C72.458 24.0064 73.6722 25.2206 73.6722 26.7315C73.6722 28.2424 72.458 29.4566 70.9471 29.4566C69.4362 29.4566 68.222 28.2424 68.222 26.7315ZM73.2945 39.6014C72.458 41.7059 70.4884 43.0549 68.222 43.0549C65.2272 43.0549 62.7719 40.5997 62.7719 37.6048V32.9641L67.0349 30.5358C68.0332 31.5611 69.4092 32.1816 70.9201 32.1816C73.915 32.1816 76.3703 29.7264 76.3703 26.7315C76.3703 23.7366 73.915 21.2813 70.9201 21.2813C67.9253 21.2813 65.47 23.7096 65.47 26.7315C65.47 27.2171 65.5509 27.7028 65.6589 28.1615L60.0199 31.3722V60.3227L58.8597 58.5959L56.2965 61.1591L54.5697 57.6786V31.3722L47.096 26.8934L45.693 29.2407L51.8446 32.9371V37.6048C51.8446 40.5997 49.4164 43.0549 46.3945 43.0549C44.7217 43.0549 43.1838 42.2995 42.1585 41.0314C43.8583 40.114 45.0185 38.3063 45.0185 36.2288C45.0185 33.2339 42.5632 30.7786 39.5683 30.7786C38.2733 30.7786 37.0861 31.2373 36.1418 31.9928C35.7101 31.2103 35.4942 30.3199 35.4942 29.4026C35.4942 28.5122 35.7101 27.6488 36.1418 26.8394L36.6274 25.9221L35.872 25.2206C34.7657 24.1683 34.1452 22.7653 34.1452 21.2544C34.1452 18.6642 35.9799 16.4248 38.4891 15.9121L39.5953 15.6963L39.5683 14.5631V14.4552C39.5683 11.4603 41.9966 9.00504 45.0185 9.00504C45.5041 9.00504 46.0168 9.08598 46.4754 9.1939L47.6626 9.51767L48.1213 8.38448C48.9307 6.27997 50.9273 4.93092 53.1937 4.93092C54.7046 4.93092 56.1076 5.5245 57.1599 6.63072L58.428 7.97976L59.3184 6.36091C60.2897 4.63413 62.0974 3.58188 64.067 3.58188C66.7111 3.58188 68.9505 5.47054 69.4362 8.06071L69.679 9.46371L71.055 9.16692C71.4598 9.08598 71.8375 9.03202 72.2422 9.03202C75.2371 9.03202 77.6923 11.4603 77.6923 14.4822C77.6923 14.9678 77.6114 15.4805 77.5035 15.9391L77.1797 17.1263L78.3129 17.585C80.4174 18.3944 81.7934 20.391 81.7934 22.6574C81.7934 24.3841 81.011 25.976 79.608 27.0013L78.151 28.0805L79.608 29.1598C80.984 30.185 81.7934 31.7769 81.7934 33.5037C81.7934 36.4986 79.3652 38.9538 76.3433 38.9538C75.8576 38.9538 75.372 38.8999 74.8863 38.765L73.6992 38.4412L73.2945 39.6014ZM70.9471 51.2301C69.4362 51.2301 68.222 50.016 68.222 48.5051C68.222 46.9941 69.4362 45.78 70.9471 45.78C72.458 45.78 73.6722 46.9941 73.6722 48.5051C73.6722 50.016 72.4311 51.2301 70.9471 51.2301ZM39.6493 82.528C34.334 82.528 29.8013 79.1284 28.1015 74.3528H51.1971C49.4973 79.1284 44.9645 82.528 39.6493 82.528ZM27.4 68.9296H51.8986V70.2786C51.8986 70.7373 51.8716 71.196 51.8177 71.6277H27.4809C27.4269 71.169 27.4 70.7373 27.4 70.2786V68.9296ZM30.125 64.8285C30.125 62.5891 31.9597 60.7544 34.1991 60.7544C36.4386 60.7544 38.2733 62.5891 38.2733 64.8285C38.2733 65.2872 38.1923 65.7459 38.0304 66.1776H30.3409C30.206 65.7728 30.125 65.3142 30.125 64.8285ZM45.0724 63.4795C46.8532 63.4795 48.3641 64.6127 48.9307 66.2045H41.2412C41.8078 64.6127 43.3187 63.4795 45.0724 63.4795ZM44.8566 60.7544C43.2108 60.8083 41.7268 61.4559 40.5936 62.4542C39.9461 60.7544 38.651 59.3784 37.0052 58.6229C37.3559 56.7342 39.0287 55.3042 41.0253 55.3042C43.2647 55.3042 45.0994 57.1389 45.0994 59.3784C45.0724 59.864 44.9915 60.3227 44.8566 60.7544ZM51.8986 57.8405L50.3607 63.2366C49.6322 62.3463 48.6609 61.6448 47.5817 61.2131C47.7435 60.6195 47.8245 59.9989 47.8245 59.3784C47.8245 55.628 44.7757 52.5792 41.0253 52.5792C37.7336 52.5792 34.9816 54.9265 34.361 58.0293C34.3071 58.0293 34.2801 58.0293 34.2261 58.0293C33.7674 58.0293 33.3088 58.0833 32.8771 58.1642V47.7766C34.3071 49.0717 36.2227 49.8541 38.3272 49.8541C41.3221 49.8541 43.9932 48.2622 45.4502 45.6991C45.8009 45.753 46.1517 45.78 46.5024 45.78C48.58 45.78 50.4956 44.9975 51.9526 43.7025V57.8405H51.8986ZM39.3795 41.7059C40.1619 43.0819 41.3221 44.1881 42.7251 44.8896C41.7268 46.2926 40.108 47.156 38.3002 47.156C35.3054 47.156 32.8501 44.7008 32.8501 41.7059V34.3131L33.9833 33.6386C34.1452 33.9084 34.334 34.1782 34.5229 34.421C34.3071 34.9876 34.1991 35.6082 34.1991 36.2557C34.1991 39.1697 36.4925 41.571 39.3795 41.7059ZM39.6493 38.9808C38.1384 38.9808 36.9242 37.7667 36.9242 36.2557C36.9242 34.7448 38.1384 33.5307 39.6493 33.5307C41.1602 33.5307 42.3744 34.7448 42.3744 36.2557C42.3744 37.7667 41.1332 38.9808 39.6493 38.9808ZM24.6749 60.1878V35.4733L14.4761 29.6454L13.1271 32.0197L21.9768 37.0652V41.7059C21.9768 44.7008 19.5485 47.156 16.5267 47.156C14.2603 47.156 12.2907 45.807 11.4543 43.7025L10.9956 42.5693L9.80842 42.893C9.16088 43.0819 8.48636 43.1359 7.81183 43.0819C5.16771 42.8391 3.03622 40.6266 2.90131 37.9825C2.79339 36.1478 3.60281 34.3941 5.05978 33.3148L6.51675 32.2356L5.05978 31.1563C3.68376 30.1041 2.87433 28.5392 2.87433 26.8124C2.87433 24.546 4.22337 22.5494 6.32788 21.74L7.48806 21.2813L7.19127 20.0402C7.05637 19.5546 6.97543 19.0689 6.97543 18.5833C6.97543 15.5884 9.40371 13.1331 12.4256 13.1331C12.8033 13.1331 13.208 13.1871 13.6127 13.268L14.9888 13.5648L15.2316 12.1618C15.6903 9.57164 17.9566 7.68297 20.6008 7.68297C22.5704 7.68297 24.4051 8.76221 25.3494 10.489L26.2398 12.1078L27.5079 10.7588C28.5601 9.65258 29.9631 9.059 31.4741 9.059C31.555 9.059 31.609 9.059 31.6899 9.059C34.1182 9.13994 36.2497 11.0286 36.7084 13.4839L36.7353 13.6727C33.6325 14.8599 31.4741 17.8818 31.4741 21.3083C31.4741 23.224 32.1486 25.0856 33.3897 26.5426C33.039 27.4869 32.8501 28.4852 32.8501 29.4835C32.8501 30.0232 32.9041 30.5628 33.012 31.0754L30.125 32.8022V59.4323C29.3426 60.0259 28.695 60.7544 28.2364 61.6178L26.2668 58.6499L24.6749 60.1878ZM68.222 77.0778C68.222 74.0829 70.6503 71.6277 73.6722 71.6277C76.6671 71.6277 79.1223 74.0829 79.1223 77.0778C79.1223 80.0727 76.694 82.528 73.6722 82.528C70.6503 82.528 68.222 80.0997 68.222 77.0778ZM9.7005 77.0778C9.7005 74.0829 12.1558 71.6277 15.1506 71.6277C18.1455 71.6277 20.6008 74.0829 20.6008 77.0778C20.6008 80.0727 18.1725 82.528 15.1506 82.528C12.1558 82.528 9.7005 80.0997 9.7005 77.0778ZM75.318 41.6249C75.6688 41.6789 76.0195 41.7059 76.3703 41.7059C80.8761 41.7059 84.5455 38.0365 84.5455 33.5307C84.5455 31.4801 83.817 29.5645 82.468 28.0805C83.817 26.5966 84.5455 24.6809 84.5455 22.6304C84.5455 19.6355 82.9536 16.9644 80.3904 15.5344C80.4444 15.1837 80.4714 14.8329 80.4714 14.4822C80.4714 9.97635 76.802 6.30695 72.2962 6.30695C72.1343 6.30695 71.9994 6.30695 71.8375 6.30695C70.7043 3.1232 67.6554 0.883789 64.121 0.883789C61.7197 0.883789 59.4802 1.93604 57.9423 3.71678C56.5933 2.77245 54.9474 2.23283 53.2477 2.23283C50.2528 2.23283 47.5817 3.82471 46.1517 6.38789C45.8009 6.33393 45.4502 6.33393 45.0994 6.33393C42.2394 6.33393 39.7032 7.81788 38.2463 10.0843C36.8433 7.89882 34.469 6.44185 31.8248 6.33393C31.7169 6.33393 31.609 6.33393 31.5011 6.33393C29.8013 6.33393 28.1554 6.84657 26.8064 7.81788C25.2685 6.03714 23.0291 4.98488 20.6278 4.98488C17.1202 4.98488 14.0444 7.2243 12.9112 10.435C12.7493 10.435 12.6144 10.435 12.4525 10.435C7.94674 10.435 4.27734 14.1044 4.27734 18.6102C4.27734 18.961 4.30432 19.3117 4.35828 19.6625C1.76811 21.0655 0.176241 23.7366 0.176241 26.7315C0.176241 28.782 0.931706 30.6977 2.25377 32.1816C0.823782 33.7735 0.0683175 35.905 0.176241 38.0904C0.392088 42.0836 3.57583 45.3753 7.54202 45.753C8.16258 45.807 8.78315 45.807 9.37673 45.726C10.8067 48.2892 13.5048 49.8811 16.4997 49.8811C18.5772 49.8811 20.4929 49.0986 21.9498 47.8036V60.2148L18.847 57.112L16.3378 62.1304L13.7746 58.2991L9.91634 64.073L12.1827 65.584L13.7746 63.2096L16.6616 67.5536L19.6025 61.6987L23.2989 65.4221L25.8081 62.9129L27.4 65.2872C27.4269 65.6109 27.4539 65.9077 27.5349 66.2045H24.6749V70.2786C24.6749 75.3241 27.1841 79.8029 31.0424 82.528H21.2213C22.5164 81.071 23.2989 79.1823 23.2989 77.0778C23.2989 72.572 19.6295 68.9026 15.1237 68.9026C10.6178 68.9026 6.94844 72.572 6.94844 77.0778C6.94844 79.1554 7.73089 81.071 9.02597 82.528H0.176241V85.253H84.5455V82.528H79.7429C81.038 81.071 81.8204 79.1823 81.8204 77.0778C81.8204 72.572 78.151 68.9026 73.6452 68.9026C69.1394 68.9026 65.47 72.572 65.47 77.0778C65.47 79.1554 66.2524 81.071 67.5475 82.528H48.2022C52.0605 79.8299 54.5697 75.351 54.5697 70.2786V66.2045H52.3033L53.5714 61.7797L55.568 65.7728L58.455 62.8859L61.18 66.96L65.0923 63.0478L66.2255 65.2872L68.7617 64.0191L69.6251 66.6092L72.2152 65.7459L70.3535 60.1878L67.4396 61.6448L65.8477 58.461L62.7449 61.5638V43.7025C63.7432 44.5928 64.9843 45.2674 66.3334 45.5641C65.7938 46.4275 65.47 47.4258 65.47 48.5051C65.47 51.4999 67.8983 53.9552 70.9201 53.9552C73.915 53.9552 76.3703 51.4999 76.3703 48.5051C76.3703 46.4815 75.2371 44.7008 73.5912 43.7564C74.2927 43.1628 74.8594 42.4613 75.318 41.6249Z" fill="#6D6D6D"/>
<path d="M47.7975 22.6574C46.2866 22.6574 45.0724 21.4432 45.0724 19.9323C45.0724 18.4214 46.2866 17.2073 47.7975 17.2073C49.3084 17.2073 50.5226 18.4214 50.5226 19.9323C50.5226 21.4432 49.3084 22.6574 47.7975 22.6574ZM55.0014 13.1331H54.9474C53.1667 13.1331 51.5209 13.8616 50.3607 15.1297C49.6052 14.725 48.7418 14.5092 47.8245 14.5092C44.8296 14.5092 42.3743 16.9374 42.3743 19.9593C42.3743 22.9542 44.8296 25.4094 47.8245 25.4094C50.8193 25.4094 53.2746 22.9812 53.2746 19.9593C53.2746 18.8531 52.9508 17.8278 52.3842 16.9644C53.0588 16.2629 53.9761 15.8582 54.9744 15.8582H56.998L57.5376 14.2124C58.0232 12.7554 59.3723 11.7841 60.9102 11.7841H61.4498V9.05902H60.9102C58.2391 9.05902 55.9187 10.6779 55.0014 13.1331Z" fill="#6D6D6D"/>
<path d="M19.2247 25.3823C17.7138 25.3823 16.4997 24.1682 16.4997 22.6572C16.4997 21.1463 17.7138 19.9322 19.2247 19.9322C20.7357 19.9322 21.9498 21.1463 21.9498 22.6572C21.9498 24.1682 20.7357 25.3823 19.2247 25.3823ZM26.3477 18.5831H28.3713L28.9109 16.9373C29.3965 15.4803 30.7456 14.509 32.2835 14.509H32.8231V11.757H32.2835C29.6394 11.757 27.319 13.3758 26.4017 15.8311H26.3477C24.567 15.8311 22.9211 16.5596 21.7609 17.8277C21.0055 17.4499 20.1421 17.2071 19.2247 17.2071C16.2299 17.2071 13.7746 19.6354 13.7746 22.6572C13.7746 25.6521 16.2029 28.1074 19.2247 28.1074C22.2196 28.1074 24.6749 25.6791 24.6749 22.6572C24.6749 21.551 24.3511 20.5257 23.7845 19.6893C24.4321 18.9878 25.3494 18.5831 26.3477 18.5831Z" fill="#6D6D6D"/>
</svg>
