<svg width="104" height="108" viewBox="0 0 104 108" fill="none" xmlns="http://www.w3.org/2000/svg">
<path d="M94.5012 59.4621H94.161V47.2626H99.862C100.515 47.2626 101.052 46.7304 101.052 46.0686V17.9374C101.052 17.2824 100.522 16.7433 99.862 16.7433H94.161V16.0201C94.161 11.2304 90.6031 7.08197 85.8818 6.35874L85.596 6.3178V5.08284C85.596 2.40822 83.4259 0.231689 80.7591 0.231689C78.0923 0.231689 75.9221 2.40822 75.9221 5.08284V6.23592H70.1804V5.08284C70.1804 2.40822 67.7381 0.231689 64.7312 0.231689C61.7243 0.231689 59.282 2.40822 59.282 5.08284V6.23592H53.5402V5.08284C53.5402 2.40822 51.098 0.231689 48.091 0.231689C45.0841 0.231689 42.6418 2.40822 42.6418 5.08284V6.23592H36.9001V5.08284C36.9001 2.40822 34.4578 0.231689 31.4509 0.231689C28.4439 0.231689 26.0016 2.40822 26.0016 5.08284V6.23592H20.2599V5.08284C20.2599 2.40822 17.8176 0.231689 14.8107 0.231689C11.8038 0.231689 9.36147 2.40822 9.36147 5.08284V6.24957L9.04853 6.27686C4.03471 6.68624 0.109375 10.9711 0.109375 16.0269V83.5063C0.109375 87.6479 2.73534 91.3528 6.64707 92.731L7.10967 92.8948L6.78993 93.27C6.55183 93.5566 6.32053 93.8295 6.10283 94.0956C3.74218 96.9203 2.32035 98.6261 2.17069 103.586C2.15708 103.682 2.15708 103.723 2.15708 103.771V104.439C2.15708 104.712 2.25913 104.985 2.43601 105.203L2.48363 105.279C3.08229 106.589 4.38847 107.441 5.82391 107.441C7.63351 107.441 9.1982 106.09 9.44991 104.289C9.47032 104.18 9.49073 104.084 9.49073 103.989C9.49073 100.298 10.103 99.7246 11.1847 99.0286C11.348 98.9195 11.5316 98.7898 11.7221 98.6534L11.8922 98.5374L12.0759 98.6329C12.9194 99.0696 13.8651 99.2947 14.8039 99.2947C17.8108 99.2947 20.2531 97.1182 20.2531 94.4436V93.2973H25.9948V94.4436C25.9948 97.1182 28.4371 99.2947 31.4441 99.2947C34.451 99.2947 36.8933 97.1182 36.8933 94.4436V93.2973H42.635V94.4436C42.635 97.1182 45.0773 99.2947 48.0842 99.2947C51.0911 99.2947 53.5334 97.1182 53.5334 94.4436V93.2973H59.2752V94.4436C59.2752 97.1182 61.7175 99.2947 64.7244 99.2947C67.7245 99.2947 70.1736 97.1182 70.1736 94.4436V93.2973H75.9153V94.4436C75.9153 97.1182 78.0855 99.2947 80.7523 99.2947C81.6639 99.2947 82.5551 99.0355 83.3374 98.5374L83.5347 98.4146L83.7184 98.551C83.9633 98.7353 84.2014 98.8922 84.4055 99.0286C85.4804 99.7246 86.0927 100.298 86.0927 103.989C86.0927 104.084 86.1063 104.173 86.1199 104.228C86.3852 106.084 87.9431 107.435 89.7595 107.435C91.1949 107.435 92.5079 106.589 93.0998 105.272L93.1474 105.197C93.3242 104.978 93.4263 104.705 93.4263 104.432V103.764C93.4263 103.716 93.4263 103.675 93.4195 103.621C93.2698 98.6329 91.848 96.9272 89.4942 94.0956C89.1676 93.7067 88.8207 93.2905 88.4601 92.847L88.188 92.5127L88.5826 92.3285C91.9705 90.7114 94.1678 87.2522 94.1678 83.5063V77.352H94.508C99.4129 77.3315 103.4 73.3128 103.4 68.4002C103.406 63.4877 99.4129 59.4757 94.5012 59.4621ZM94.1746 19.1246H98.6782V44.8814H94.1746V19.1246ZM2.47002 83.4995V16.0133C2.47002 12.2675 5.26606 9.11523 8.9737 8.67173L9.35467 8.62397V90.4726L9.13017 90.5545C9.03493 90.5886 8.93968 90.6432 8.84444 90.7114L8.72879 90.7933L8.59273 90.7728C5.04156 90.1656 2.47002 87.1089 2.47002 83.4995ZM9.83088 97.0431C8.26619 98.0598 7.15049 99.1378 7.10287 103.689V103.757C7.10287 104.467 6.52462 105.04 5.82391 105.04C5.17082 105.04 4.61977 104.542 4.54494 103.887C4.62658 99.5677 5.65383 98.3327 7.91243 95.6308C8.20496 95.2896 8.48388 94.9485 8.76961 94.5869L9.30705 93.8977L9.37508 94.7643C9.4295 95.4125 9.61999 96.0197 9.93973 96.5792L10.103 96.8589L9.83088 97.0431ZM17.872 94.4299C17.872 95.7673 16.4638 96.8999 14.7971 96.8999C13.1303 96.8999 11.7221 95.7673 11.7221 94.4299V5.08284C11.7221 3.74553 13.1303 2.61291 14.7971 2.61291C16.4638 2.61291 17.872 3.74553 17.872 5.08284V94.4299ZM20.2463 8.62397H25.988V13.0384H20.2463V8.62397ZM20.2463 15.4197H25.988V84.0931H20.2463V15.4197ZM25.9948 90.9025H20.2463V86.488H25.988V90.9025H25.9948ZM34.5122 94.4299C34.5122 95.7673 33.104 96.8999 31.4372 96.8999C29.7705 96.8999 28.3623 95.7673 28.3623 94.4299V5.08284C28.3623 3.74553 29.7705 2.61291 31.4372 2.61291C33.104 2.61291 34.5122 3.74553 34.5122 5.08284V94.4299ZM36.8865 8.62397H42.6282V13.0384H36.8865V8.62397ZM36.8865 15.4197H42.6282V84.0931H36.8865V15.4197ZM42.6282 90.9025H36.8865V86.488H42.6282V90.9025ZM51.1524 94.4299C51.1524 95.7673 49.7442 96.8999 48.0774 96.8999C46.4107 96.8999 45.0025 95.7673 45.0025 94.4299V5.08284C45.0025 3.74553 46.4107 2.61291 48.0774 2.61291C49.7442 2.61291 51.1524 3.74553 51.1524 5.08284V94.4299ZM53.5266 15.4197H59.2684V84.0931H53.5266V15.4197ZM59.2684 90.9025H53.5266V86.488H59.2684V90.9025ZM59.282 13.0384H53.5402V8.62397H59.282V13.0384ZM67.7925 94.4299C67.7925 95.7673 66.3843 96.8999 64.7176 96.8999C63.0508 96.8999 61.6426 95.7673 61.6426 94.4299V5.08284C61.6426 3.74553 63.0508 2.61291 64.7176 2.61291C66.3843 2.61291 67.7925 3.74553 67.7925 5.08284V94.4299ZM70.1736 8.62397H75.9153V13.0384H70.1736V8.62397ZM70.1736 15.4197H75.9153V84.0931H70.1736V15.4197ZM75.9221 90.9025H70.1804V86.488H75.9221V90.9025ZM83.2218 94.4163C83.2218 95.7877 82.1197 96.8999 80.7591 96.8999C79.3985 96.8999 78.2964 95.7945 78.2964 94.4299V5.08284C78.2964 3.71824 79.3985 2.61291 80.7591 2.61291C82.1197 2.61291 83.2218 3.71824 83.2218 5.08284V94.4163ZM91.052 103.852V103.893C90.9908 104.542 90.4262 105.053 89.7731 105.053C89.0656 105.053 88.4941 104.473 88.4941 103.771V103.702C88.4533 99.131 87.3104 98.0461 85.7117 97.0227C85.5824 96.9408 85.4532 96.8589 85.3307 96.7771L85.0994 96.6201L85.2151 96.3608C85.4804 95.7604 85.6096 95.1122 85.6096 94.4504V93.079L86.2151 93.8432C86.6505 94.3958 87.0587 94.8871 87.4464 95.3511L87.6846 95.6376C89.9363 98.3259 90.9704 99.554 91.052 103.852ZM86.6233 90.5613L86.5212 90.5954L86.4192 90.5613C86.2763 90.5204 86.1131 90.4999 85.9566 90.5067L85.596 90.5272V8.70585L86.011 8.80137C89.3581 9.54508 91.7868 12.5813 91.7868 16.0201V83.4995C91.7868 86.7404 89.7119 89.5788 86.6233 90.5613ZM94.5148 74.9503H94.1746V61.8433H94.5148C98.1068 61.857 101.032 64.7977 101.032 68.4002C101.032 72.0164 98.1068 74.9503 94.5148 74.9503Z" fill="#6D6D6D"/>
</svg>
