<svg width="82" height="83" viewBox="0 0 82 83" fill="none" xmlns="http://www.w3.org/2000/svg">
<path d="M64.8 68.647V57.9809C63.8387 57.6427 62.9553 57.1224 62.1759 56.4199C61.4224 57.1224 60.5131 57.6427 59.5517 57.9809V68.6731C59.5517 73.0176 57.5512 76.9979 54.3554 79.6254H69.9963C66.8006 76.9979 64.8 72.9916 64.8 68.647ZM72.5685 51.5551L72.7764 50.4885H75.2966C77.4531 50.4885 79.2198 48.7195 79.2198 46.5082C79.2198 45.4416 78.8041 44.427 78.0506 43.6986C76.9334 44.6091 75.5304 45.1814 73.9715 45.1814V42.5279C76.128 42.5279 77.8947 40.7588 77.8947 38.5476C77.8947 36.3623 76.128 34.5672 73.9715 34.5672C73.0102 34.5672 72.0749 34.9315 71.3734 35.5558L69.6326 33.5787C70.7498 32.5641 72.2048 32.0178 73.7117 31.9397C73.8676 31.4975 73.9715 31.0552 73.9715 30.5869C73.9715 28.7138 72.6724 27.1009 70.8537 26.7107L69.4767 26.4245L69.8664 25.0717C69.9704 24.6555 70.0483 24.3173 70.0483 23.9791C70.0483 22.106 68.7492 20.4931 66.9305 20.1028L65.5535 19.8167L65.9432 18.4639C66.0471 18.0476 66.1251 17.7095 66.1251 17.3713C66.1251 15.186 64.3583 13.417 62.2019 13.417C60.0454 13.417 58.2786 15.186 58.2786 17.3713C58.2786 17.6834 58.3306 18.0476 58.4605 18.4639L58.8502 19.8167L57.4732 20.1028C55.6545 20.4931 54.3554 22.106 54.3554 23.9791C54.3554 24.2913 54.4074 24.6555 54.5373 25.0717L54.927 26.4245L53.55 26.7107C51.7313 27.1009 50.4322 28.7399 50.4322 30.5869C50.4322 32.408 51.6533 33.9949 53.4201 34.4372L52.7965 37.0127C51.3675 36.6485 50.1724 35.842 49.289 34.7494C47.6781 35.2436 46.509 36.7525 46.509 38.5215C46.509 40.7068 48.2757 42.5019 50.4322 42.5019C51.3675 42.5019 52.2769 42.1637 53.0044 41.5393L54.7192 43.5425C53.524 44.5831 52.0171 45.1294 50.4582 45.1294C48.8993 45.1294 47.4963 44.5571 46.3791 43.6465C45.6516 44.3749 45.2099 45.3895 45.2099 46.4562C45.2099 48.6414 46.9766 50.4365 49.1331 50.4365H51.6533L51.8612 51.5031C52.3548 53.9485 54.5113 55.7435 57.0055 55.7435C58.6684 55.7435 60.2013 54.9631 61.1886 53.5843L62.2278 52.1535L63.2671 53.5843C64.2804 54.9631 65.8133 55.7435 67.4501 55.7435C69.9184 55.7956 72.0749 54.0266 72.5685 51.5551ZM39.1822 29.3902L37.3894 29.1821L38.1429 27.5171C38.4547 26.8147 38.6106 26.0863 38.6106 25.3319C38.6106 22.4182 36.2722 20.0508 33.3623 20.0508C30.4783 20.0508 28.114 22.4182 28.114 25.3319H25.4899C25.4899 20.9613 29.0234 17.3973 33.3623 17.3973C33.726 17.3973 34.1157 17.4233 34.4535 17.4753C34.5834 17.007 34.6614 16.5648 34.6614 16.0705C34.6614 13.1568 32.323 10.7894 29.4131 10.7894C28.2699 10.7894 27.1787 11.1536 26.2693 11.8561L24.7104 9.74883C26.0874 8.70822 27.6983 8.1619 29.4391 8.1619C29.4391 5.24821 27.1007 2.88084 24.1908 2.88084C21.3068 2.88084 18.9425 5.24821 18.9425 8.1619C18.9425 8.52612 18.9945 8.89033 19.0724 9.30657L19.3842 10.6594L18.0331 10.9195C15.5389 11.3618 13.6942 13.547 13.6942 16.1225C13.6942 19.0362 16.0326 21.4036 18.9425 21.4036V24.0571C16.2924 24.0571 13.98 22.7304 12.551 20.7272C10.8622 21.6117 9.77099 23.3807 9.77099 25.3579C9.77099 26.0863 9.92688 26.8147 10.2387 27.5432L10.9921 29.2081L9.1994 29.4163C6.54927 29.7024 4.52271 31.9657 4.52271 34.6453C4.52271 35.79 4.88645 36.8826 5.58795 37.8191L6.39338 38.8858L5.32814 39.6922C3.9771 40.7068 3.19765 42.2417 3.19765 43.9067C3.19765 46.8204 5.53599 49.1877 8.44593 49.1877C8.47191 49.1877 8.52387 49.1877 8.54986 49.1877C9.1994 44.7131 13.0187 41.2531 17.6174 41.2531V43.9067C14.006 43.9067 11.0701 46.8724 11.0701 50.5145C11.0701 54.1566 14.006 57.1224 17.6174 57.1224C21.2289 57.1224 24.1648 54.1566 24.1648 50.5145H26.7889C26.7889 52.0754 26.3992 53.5323 25.7497 54.807C26.9968 56.2639 28.8155 57.1224 30.7381 57.1224C34.3496 57.1224 37.2855 54.1566 37.2855 50.5405V48.7455L38.8704 49.0577C40.2214 49.3438 41.6504 49.0316 42.8196 48.2772C42.6637 47.7049 42.5598 47.1325 42.5598 46.5082C42.5598 44.6351 43.3392 42.8921 44.6643 41.6694C44.5603 41.4613 44.4304 41.2271 44.3265 40.993C43.3392 39.4841 41.7024 38.5736 39.9356 38.5736V35.92C41.1568 35.92 42.3519 36.2062 43.3912 36.7525C43.677 36.0761 43.8588 35.3477 43.8588 34.5933C43.8329 31.9397 41.8323 29.7024 39.1822 29.3902ZM56.9536 68.647V58.4231C53.6019 58.4231 50.64 56.2639 49.5488 53.142H49.1071C47.0546 53.142 45.2359 52.1535 44.0147 50.6446C42.7676 51.399 41.3127 51.7893 39.8317 51.8153C39.1822 56.2899 35.3629 59.7499 30.7381 59.7499C30.2965 59.7499 29.8548 59.7239 29.4391 59.6458V68.647C29.4391 73.668 32.7647 78.1686 37.5193 79.5994H48.8993C53.6279 78.1686 56.9536 73.694 56.9536 68.647ZM16.3703 79.5994H32.0112C28.8155 76.9719 26.8149 72.9656 26.8149 68.647V58.8394C25.8536 58.3711 24.9702 57.7467 24.1908 56.9402C23.4373 57.7207 22.5539 58.3711 21.5666 58.8394V68.647C21.5666 72.9916 19.5661 76.9979 16.3703 79.5994ZM18.9425 68.647V59.6458C18.5008 59.6978 18.0851 59.7499 17.6434 59.7499C13.0187 59.7499 9.1994 56.2899 8.57584 51.8153C8.54986 51.8153 8.49789 51.8153 8.47191 51.8153C4.13298 51.8153 0.599487 48.2772 0.599487 43.8807C0.599487 41.7734 1.40492 39.8223 2.85989 38.3394C2.23633 37.1948 1.92455 35.92 1.92455 34.6193C1.92455 31.1333 4.18495 28.1415 7.3547 27.1009C7.22479 26.5286 7.17283 25.9562 7.17283 25.3579C7.17283 22.3401 8.83565 19.6606 11.4078 18.3078C11.2 17.6054 11.0961 16.877 11.0961 16.0965C11.0961 12.6885 13.2525 9.72281 16.3443 8.63018C16.3443 8.47409 16.3184 8.318 16.3184 8.1619C16.3184 3.79137 19.8519 0.227295 24.1908 0.227295C28.5297 0.227295 32.0632 3.79137 32.0632 8.1619C32.0632 8.318 32.0372 8.47409 32.0372 8.63018C35.1031 9.72281 37.3115 12.6625 37.3115 16.1225C37.3115 16.877 37.2076 17.6314 36.9997 18.3338C39.5199 19.6606 41.2607 22.3141 41.2607 25.3839C41.2607 25.9562 41.1827 26.5546 41.0528 27.1269C43.8588 28.0375 45.9374 30.4829 46.405 33.4486C46.9247 33.0584 47.4703 32.7202 48.0679 32.46C47.912 31.8877 47.8081 31.2893 47.8081 30.665C47.8081 28.0114 49.4189 25.618 51.7573 24.6035C51.7313 24.4214 51.7313 24.2392 51.7313 24.0571C51.7313 21.4036 53.3421 19.0102 55.6805 17.9956C55.6545 17.8135 55.6545 17.6314 55.6545 17.4493C55.6545 13.8072 58.5904 10.8415 62.2019 10.8415C65.8133 10.8415 68.7492 13.8072 68.7492 17.4493C68.7492 17.6314 68.7492 17.8135 68.7232 17.9956C71.0876 19.0362 72.6724 21.4036 72.6724 24.0571C72.6724 24.2392 72.6724 24.4214 72.6465 24.6035C75.0108 25.6441 76.5957 28.0114 76.5957 30.665C76.5957 31.2633 76.5177 31.8877 76.3618 32.46C78.8041 33.4226 80.5449 35.816 80.5449 38.5996C80.5449 39.7182 80.2331 40.7588 79.7394 41.6954C81.0645 42.9441 81.8439 44.6611 81.8439 46.5342C81.8439 50.1763 78.908 53.142 75.2966 53.142H74.8549C73.7637 56.2639 70.8018 58.4231 67.4501 58.4231V68.647C67.4501 73.668 70.7498 78.1686 75.5304 79.5994H76.6216V82.253H5.84777V79.5994H10.8882C15.6428 78.1686 18.9425 73.694 18.9425 68.647Z" fill="#6D6D6D"/>
<path d="M3.22361 79.5995H0.599472V82.253H3.22361V79.5995Z" fill="#6D6D6D"/>
<path d="M81.8439 79.5995H79.2198V82.253H81.8439V79.5995Z" fill="#6D6D6D"/>
<path d="M37.2855 46.5342C37.2855 45.0773 36.1163 43.8806 34.6614 43.8806C33.2064 43.8806 32.0372 45.0773 32.0372 46.5342H29.4391C29.4391 43.6205 31.7774 41.2531 34.6873 41.2531C37.5713 41.2531 39.9356 43.6205 39.9356 46.5342H37.2855Z" fill="#6D6D6D"/>
<path d="M29.439 30.6649C27.9841 30.6649 26.8149 31.8616 26.8149 33.3185H24.1908C24.1908 30.4048 26.5291 28.0374 29.439 28.0374C32.323 28.0374 34.6873 30.4048 34.6873 33.3185H32.0632C32.0632 31.8356 30.868 30.6649 29.439 30.6649Z" fill="#6D6D6D"/>
<path d="M64.8 42.554C63.345 42.554 62.1758 43.7507 62.1758 45.2075H59.5777C59.5777 42.2938 61.916 39.9265 64.826 39.9265C67.7099 39.9265 70.0742 42.2938 70.0742 45.2075H67.4501C67.4241 43.7507 66.2549 42.554 64.8 42.554Z" fill="#6D6D6D"/>
<path d="M59.5777 29.3383C58.1227 29.3383 56.9535 30.535 56.9535 31.9918H54.3294C54.3294 29.0781 56.6677 26.7108 59.5777 26.7108C62.4616 26.7108 64.826 29.0781 64.826 31.9918H62.2018C62.2018 30.509 61.0067 29.3383 59.5777 29.3383Z" fill="#6D6D6D"/>
<path d="M15.0192 35.9461C13.5643 35.9461 12.3951 37.1428 12.3951 38.5996H9.77095C9.77095 35.6859 12.1093 33.3185 15.0192 33.3185C17.9032 33.3185 20.2675 35.6859 20.2675 38.5996H17.6434C17.6434 37.1428 16.4482 35.9461 15.0192 35.9461Z" fill="#6D6D6D"/>
</svg>
