<svg width="98" height="86" viewBox="0 0 98 86" fill="none" xmlns="http://www.w3.org/2000/svg">
<path d="M71.4117 5.6994C70.6323 5.6994 69.9829 5.04861 69.9829 4.26765V1.5343C69.9829 0.753337 70.6323 0.102539 71.4117 0.102539C72.191 0.102539 72.8404 0.753337 72.8404 1.5343V4.26765C72.8404 5.04861 72.191 5.6994 71.4117 5.6994Z" fill="#6D6D6D"/>
<path d="M72.8404 26.603V29.3363C72.8404 30.1433 72.191 30.7681 71.4117 30.7681C70.6323 30.7681 69.9829 30.1173 69.9829 29.3363V26.603C69.9829 25.822 70.6323 25.1712 71.4117 25.1712C72.191 25.1712 72.8404 25.822 72.8404 26.603Z" fill="#6D6D6D"/>
<path d="M80.296 8.53677C79.7245 9.10947 78.8413 9.10947 78.2698 8.53677C77.6982 7.9901 77.6982 7.07898 78.2698 6.50628L80.1921 4.57992C80.7636 4.00721 81.6468 4.00721 82.2183 4.57992C82.7898 5.15262 82.7898 6.03771 82.2183 6.61041L80.296 8.53677Z" fill="#6D6D6D"/>
<path d="M62.5273 22.3338C63.0728 21.7871 63.982 21.7871 64.5535 22.3338C65.1251 22.9065 65.1251 23.7916 64.5535 24.3643L62.6312 26.2906C62.0597 26.8633 61.1765 26.8633 60.605 26.2906C60.0335 25.7179 60.0335 24.8328 60.605 24.2601L62.5273 22.3338Z" fill="#6D6D6D"/>
<path d="M85.2837 16.8672H82.556C81.7507 16.8672 81.1273 16.2164 81.1273 15.4354C81.1273 14.6545 81.7767 14.0037 82.556 14.0037H85.2837C86.063 14.0037 86.7124 14.6545 86.7124 15.4354C86.7124 16.2164 86.063 16.8672 85.2837 16.8672Z" fill="#6D6D6D"/>
<path d="M61.6961 15.4354C61.6961 16.2164 61.0466 16.8672 60.2673 16.8672H57.5397C56.7603 16.8672 56.1109 16.2164 56.1109 15.4354C56.1109 14.6545 56.7603 14.0037 57.5397 14.0037H60.2673C61.0466 14.0037 61.6961 14.6545 61.6961 15.4354Z" fill="#6D6D6D"/>
<path d="M80.296 22.3339L82.2183 24.2602C83.1276 25.1714 82.4781 26.7072 81.2052 26.7072C80.8415 26.7072 80.4778 26.5771 80.1921 26.2907L78.2698 24.3644C77.6982 23.7917 77.6982 22.9066 78.2698 22.3339C78.8413 21.7612 79.7505 21.7612 80.296 22.3339Z" fill="#6D6D6D"/>
<path d="M62.5273 8.53677L60.579 6.61041C60.0075 6.03771 60.0075 5.15262 60.579 4.57992C61.1505 4.00721 62.0338 4.00721 62.6053 4.57992L64.5276 6.50628C65.0991 7.07898 65.0991 7.96407 64.5276 8.53677C63.9821 9.10947 63.0729 9.10947 62.5273 8.53677Z" fill="#6D6D6D"/>
<path d="M11.0138 72.8097C11.4814 72.8097 11.949 72.8878 12.3906 72.992C13.7155 70.8574 16.0794 69.5297 18.5992 69.5297C21.9503 69.5297 24.8598 71.8466 25.6911 75.0225C26.6263 74.9964 27.5875 75.2307 28.4188 75.7514C29.0942 75.5952 29.7696 75.5691 30.445 75.6993C31.4841 74.2155 33.1986 73.3304 35.0171 73.3304C37.4589 73.3304 39.5891 74.9183 40.3165 77.2091C42.3687 77.3393 44.0572 79.0314 44.0832 81.166C44.0832 81.5565 44.0313 81.999 43.9274 82.3635H57.4357L41.9011 51.2553L41.6154 51.5156C40.2645 52.7652 38.1344 52.609 36.9654 51.1772L35.3288 49.1467C35.2249 48.9905 34.9911 48.9905 34.8612 49.0947L31.7958 51.7239C30.5229 52.8172 28.6006 52.7391 27.4316 51.5417L23.0934 47.0902L10.2605 72.8097C10.4943 72.8097 10.754 72.8097 11.0138 72.8097ZM60.6049 82.3895H67.6189L77.2306 63.1259L65.5147 39.6451C65.3329 39.3067 64.8653 39.3067 64.7094 39.6451C63.3586 42.3264 59.5658 42.3264 58.215 39.6451L51.5648 26.3167C51.4089 25.9783 50.9153 25.9783 50.7595 26.3167L41.6933 44.487C42.5246 46.101 59.0463 79.2657 60.6049 82.3895ZM91.804 82.3895L87.6216 74.0072C85.5694 74.5279 84.6601 72.8878 83.5691 71.5602L81.2831 73.5386C80.166 74.5018 78.5035 74.4237 77.4644 73.3824L76.0356 71.8986L70.8141 82.3895H91.804ZM81.309 61.3817L77.4124 69.2173L79.4906 71.352L81.7766 69.3735C82.7898 68.4884 84.2445 68.5145 85.2317 69.2173L81.309 61.3817ZM32.1595 31.7574C31.8738 31.1847 31.0425 31.1847 30.7567 31.7574C30.2112 32.8507 26.0288 41.207 24.4442 44.4349L29.4838 49.5893C29.6137 49.7194 29.7956 49.7194 29.9255 49.6153L32.9648 46.96C34.3157 45.7886 36.3939 45.9708 37.5369 47.3766L39.1735 49.407C39.3034 49.5632 39.5112 49.5632 39.667 49.4331L40.5763 48.6C34.8872 37.2501 35.043 37.5365 32.1595 31.7574ZM0.0512802 80.4892C0.15519 77.8599 2.59708 75.7253 5.3507 76.1679C6.44176 74.0593 1.63591 83.6911 21.4048 44.0445L28.185 30.4558C29.5358 27.7485 33.3805 27.7745 34.7053 30.4558C35.3028 31.6793 39.2774 39.619 40.1087 41.259L48.2137 25.0151C49.4346 22.5681 52.9156 22.5681 54.1365 25.0151L60.7868 38.3435C61.0725 38.9162 61.8778 38.9162 62.1636 38.3435C63.3845 35.8965 66.8655 35.8965 68.0865 38.3435L78.8412 59.8979L79.1269 59.3252C80.0361 57.529 82.5819 57.529 83.4911 59.3252L94.9992 82.3895H96.2721C97.0774 82.3895 97.7009 83.0403 97.7009 83.8213C97.7009 84.6022 97.0514 85.253 96.2721 85.253H24.2364C23.457 85.253 22.8076 84.6022 22.8076 83.8213C22.8076 83.0403 23.457 82.3895 24.2364 82.3895H40.0827C40.7321 82.3895 41.2257 81.8689 41.2257 81.2181C41.2257 80.5933 40.6282 80.0206 39.9528 80.0987C38.8617 80.2288 37.8746 79.5 37.6668 78.4326C37.433 77.1571 36.29 76.2199 34.9911 76.2199C34.0299 76.2199 33.1207 76.7406 32.6271 77.5996C32.1595 78.4326 31.1984 78.8492 30.2891 78.6409C30.0813 78.5888 29.6137 78.3806 28.9383 78.5888C27.2757 79.1355 26.938 77.6257 25.3274 77.938C24.2364 78.1984 23.1713 77.4174 23.0154 76.298C22.7297 74.0853 20.8333 72.4193 18.5992 72.4193C16.9886 72.4193 15.5079 73.3044 14.7026 74.7101C14.235 75.5171 13.3778 75.9856 12.4685 75.9596C12.2607 75.9596 12.0529 75.9075 11.8451 75.8555C10.1565 75.3088 8.39007 76.2199 7.74063 77.7818C7.29902 78.8231 6.156 79.3698 5.06495 79.0574C3.99987 78.745 2.93479 79.552 2.88283 80.6193C2.85686 81.6085 3.6102 82.3895 4.59735 82.3895H17.5342C18.3135 82.3895 18.9629 83.0403 18.9629 83.8213C18.9629 84.6022 18.3135 85.253 17.5342 85.253H4.62333C2.02557 85.253 -0.05263 83.0924 0.0512802 80.4892Z" fill="#6D6D6D"/>
<path d="M71.4116 23.9999C68.2424 23.9999 65.3329 22.2558 63.8522 19.4443C63.4885 18.7415 63.7483 17.8824 64.4497 17.518C65.1511 17.1535 66.0083 17.4138 66.372 18.1167C67.3591 19.991 69.2815 21.1624 71.4116 21.1624C74.5549 21.1624 77.1007 18.6113 77.1007 15.4614C77.1007 12.3116 74.5549 9.76045 71.4116 9.76045C69.3075 9.76045 67.3591 10.9319 66.372 12.8062C66.0083 13.5091 65.1251 13.7694 64.4497 13.4049C63.7483 13.0405 63.4885 12.1554 63.8522 11.4786C65.3329 8.66711 68.2424 6.92297 71.4116 6.92297C76.1396 6.92297 79.9583 10.7757 79.9583 15.4875C79.9583 20.1732 76.1396 23.9999 71.4116 23.9999Z" fill="#6D6D6D"/>
</svg>
