<svg width="101" height="102" viewBox="0 0 101 102" fill="none" xmlns="http://www.w3.org/2000/svg">
<path d="M14.1587 82.3164C14.4586 82.3164 14.7027 82.0703 14.7027 81.768V36.9719C14.7027 36.6696 14.4586 36.4235 14.1587 36.4235C13.8587 36.4235 13.6146 36.6696 13.6146 36.9719V81.775C13.6216 82.0774 13.8657 82.3164 14.1587 82.3164Z" fill="#6D6D6D"/>
<path d="M54.2649 79.0399C54.5649 79.0399 54.809 78.7938 54.809 78.4915V11.8423C54.809 11.5399 54.5649 11.2938 54.2649 11.2938C53.965 11.2938 53.7209 11.5399 53.7209 11.8423V78.4915C53.7279 78.7938 53.972 79.0399 54.2649 79.0399Z" fill="#6D6D6D"/>
<path d="M7.65794 65.9266C7.95787 65.9266 8.20199 65.6805 8.20199 65.3781V14.0289C8.20199 13.7266 7.95787 13.4805 7.65794 13.4805C7.35802 13.4805 7.11389 13.7266 7.11389 14.0289V65.3851C7.11389 65.6805 7.35802 65.9266 7.65794 65.9266Z" fill="#6D6D6D"/>
<path d="M14.1587 34.2437C14.4586 34.2437 14.7027 33.9976 14.7027 33.6953V5.28904C14.7027 4.98669 14.4586 4.7406 14.1587 4.7406C13.8587 4.7406 13.6146 4.98669 13.6146 5.28904V33.6953C13.6216 33.9976 13.8657 34.2437 14.1587 34.2437Z" fill="#6D6D6D"/>
<path d="M67.2733 24.4071C66.9734 24.4071 66.7292 24.6532 66.7292 24.9555V39.1587C66.7292 39.461 66.9734 39.7071 67.2733 39.7071C67.5732 39.7071 67.8173 39.461 67.8173 39.1587V24.9555C67.8173 24.6532 67.5732 24.4071 67.2733 24.4071Z" fill="#6D6D6D"/>
<path d="M28.2552 64.8368C27.9552 64.8368 27.7111 65.0829 27.7111 65.3852V88.3282C27.7111 88.6305 27.9552 88.8766 28.2552 88.8766C28.5551 88.8766 28.7992 88.6305 28.7992 88.3282V65.3852C28.7922 65.0829 28.5551 64.8368 28.2552 64.8368Z" fill="#6D6D6D"/>
<path d="M45.595 38.6102C45.2951 38.6102 45.051 38.8563 45.051 39.1587V79.5883C45.051 79.8907 45.2951 80.1368 45.595 80.1368C45.8949 80.1368 46.1391 79.8907 46.1391 79.5883V39.1587C46.1391 38.8563 45.8949 38.6102 45.595 38.6102Z" fill="#6D6D6D"/>
<path d="M72.6929 53.9103C72.3929 53.9103 72.1488 54.1564 72.1488 54.4587V91.6118C72.1488 91.9142 72.3929 92.1603 72.6929 92.1603C72.9928 92.1603 73.2369 91.9142 73.2369 91.6118V54.4587C73.2369 54.1564 72.9928 53.9103 72.6929 53.9103Z" fill="#6D6D6D"/>
<path d="M30.4244 16.7572C30.1244 16.7572 29.8803 17.0033 29.8803 17.3056V39.1588C29.8803 39.4611 30.1244 39.7072 30.4244 39.7072C30.7243 39.7072 30.9684 39.4611 30.9684 39.1588V17.3056C30.9614 17.0033 30.7173 16.7572 30.4244 16.7572Z" fill="#6D6D6D"/>
<path d="M68.3614 59.3734C68.0614 59.3734 67.8173 59.6195 67.8173 59.9218V77.4015C67.8173 77.7039 68.0614 77.95 68.3614 77.95C68.6613 77.95 68.9054 77.7039 68.9054 77.4015V59.9218C68.8984 59.6195 68.6613 59.3734 68.3614 59.3734Z" fill="#6D6D6D"/>
<path d="M0.613159 101.442H100.335V0.915771H0.613159V101.442ZM80.8256 3.10249H85.1641V33.6954C85.1641 33.9978 85.4082 34.2439 85.7081 34.2439C86.0081 34.2439 86.2522 33.9978 86.2522 33.6954V3.10249H98.1725V99.2548H80.8256V3.10249ZM61.3096 3.10249H78.6494V47.8986H61.3096V3.10249ZM61.3096 50.0853H78.6494V99.2548H61.3096V50.0853ZM41.8005 3.10249H59.1404V99.2548H50.4774V70.8486C50.4774 70.5462 50.2333 70.3001 49.9334 70.3001C49.6334 70.3001 49.3893 70.5462 49.3893 70.8486V99.2548H41.8005V3.10249ZM22.2915 3.10249H39.6313V47.8986H22.2915V3.10249ZM22.2915 50.0853H39.6313V99.2548H22.2915V50.0853ZM20.1222 3.10249V99.2548H8.20196V76.3119C8.20196 76.0095 7.95783 75.7634 7.65791 75.7634C7.35798 75.7634 7.11386 76.0095 7.11386 76.3119V99.2548H2.77541V3.10249H20.1222Z" fill="#6D6D6D"/>
<path d="M91.1208 58.2836C90.8208 58.2836 90.5767 58.5297 90.5767 58.832V93.7984C90.5767 94.1008 90.8208 94.3469 91.1208 94.3469C91.4207 94.3469 91.6648 94.1008 91.6648 93.7984V58.825C91.6648 58.5226 91.4207 58.2836 91.1208 58.2836Z" fill="#6D6D6D"/>
<path d="M27.167 6.92749C26.8671 6.92749 26.623 7.17358 26.623 7.47593V24.9556C26.623 25.258 26.8671 25.5041 27.167 25.5041C27.467 25.5041 27.7111 25.258 27.7111 24.9556V7.47593C27.7111 7.17358 27.467 6.92749 27.167 6.92749Z" fill="#6D6D6D"/>
<path d="M91.1208 24.4071C90.8208 24.4071 90.5767 24.6532 90.5767 24.9555V54.4587C90.5767 54.761 90.8208 55.0071 91.1208 55.0071C91.4207 55.0071 91.6648 54.761 91.6648 54.4587V24.9555C91.6648 24.6532 91.4207 24.4071 91.1208 24.4071Z" fill="#6D6D6D"/>
</svg>
