<svg width="135" height="102" viewBox="0 0 135 102" fill="none" xmlns="http://www.w3.org/2000/svg">
<path d="M125.197 43.3473H120.724V9.84149C120.724 4.69786 116.501 0.515137 111.312 0.515137H24.1903C19.0012 0.515137 14.7782 4.69786 14.7782 9.84149V43.3473H10.3056C5.03326 43.3473 0.746265 47.4672 0.746265 52.5354V99.9083C0.739867 100.279 0.912626 100.662 1.21975 100.963C1.83401 101.573 2.7042 101.573 3.31206 100.963C3.61919 100.662 3.78555 100.285 3.78555 99.9334V87.6301H131.723V99.9083C131.717 100.279 131.89 100.662 132.197 100.963C132.811 101.573 133.681 101.573 134.289 100.963C134.596 100.662 134.763 100.285 134.763 99.9334V52.5354C134.756 47.4672 130.469 43.3473 125.197 43.3473ZM17.811 9.84149C17.811 6.22399 20.5496 3.49203 24.1839 3.49203H111.312C114.947 3.49203 117.685 6.22399 117.685 9.84149V43.3473H102.271L102.975 41.281C103.365 40.1254 103.576 38.8945 103.576 37.7138V27.3888C103.576 25.1719 102.969 23.1559 101.823 21.5544C100.601 19.8461 98.7968 18.8287 96.9924 18.8287H82.1799C80.3755 18.8287 78.5711 19.8461 77.349 21.5544C76.2037 23.1559 75.5958 25.1782 75.5958 27.3888V37.7138C75.5958 38.8945 75.8006 40.1254 76.1973 41.281L76.9011 43.3473H58.6142L59.3181 41.281C59.7084 40.1254 59.9195 38.8945 59.9195 37.7138V27.3888C59.9195 25.1719 59.3117 23.1559 58.1663 21.5544C56.9442 19.8461 55.1399 18.8287 53.3355 18.8287H38.5166C36.7122 18.8287 34.9078 19.8461 33.6857 21.5544C32.5404 23.1559 31.9325 25.1782 31.9325 27.3888V37.7138C31.9325 38.8945 32.1373 40.1254 32.534 41.281L33.2378 43.3473H17.811V9.84149ZM100.537 27.3888V37.7138C100.537 39.2462 100.083 40.8037 99.3214 41.8651C99.0655 42.2231 98.2913 43.297 96.986 43.297H82.1735C80.8618 43.297 80.094 42.2168 79.838 41.8651C79.0766 40.8037 78.6223 39.2462 78.6223 37.7138V27.3888C78.6223 25.8501 79.0766 24.2989 79.838 23.2375C80.094 22.8858 80.8618 21.8056 82.1671 21.8056H96.9796C98.2849 21.8056 99.0591 22.8858 99.3151 23.2375C100.083 24.2989 100.537 25.8501 100.537 27.3888ZM56.8802 27.3888V37.7138C56.8802 39.2462 56.426 40.8037 55.6645 41.8651C55.4086 42.2231 54.6344 43.297 53.3291 43.297H38.5166C37.2049 43.297 36.4371 42.2168 36.1811 41.8651C35.4197 40.8037 34.9654 39.2525 34.9654 37.7138V27.3888C34.9654 25.8501 35.4197 24.2989 36.1811 23.2375C36.4371 22.8858 37.2049 21.8056 38.5102 21.8056H53.3227C54.628 21.8056 55.4022 22.8858 55.6581 23.2375C56.4259 24.2989 56.8802 25.8501 56.8802 27.3888ZM131.717 84.6533H3.78555V68.1296L131.723 67.7402V84.6533H131.717ZM131.723 64.7633L3.78555 65.1527V52.5354C3.78555 49.0561 6.65207 46.3304 10.3056 46.3304H10.7023C38.1711 46.3681 63.2979 46.3556 87.6058 46.343H89.1542C101.235 46.3367 113.174 46.3304 125.203 46.3304C128.863 46.3304 131.723 49.0561 131.723 52.5354V64.7633Z" fill="#6D6D6D"/>
</svg>
