<svg width="146" height="111" viewBox="0 0 146 111" fill="none" xmlns="http://www.w3.org/2000/svg">
<path d="M12.1953 10.516H9.82643V29.6457H12.1953V10.516Z" fill="#6D6D6D"/>
<path d="M12.1953 48.3087H9.82643V67.4384H12.1953V48.3087Z" fill="#6D6D6D"/>
<path d="M143.843 68.6946H143.071H88.4786V54.9665C88.4786 53.7342 89.4836 52.7293 90.7159 52.7293H95.1486V50.3605H90.7159C88.1735 50.3605 86.1097 52.4242 86.1097 54.9665V68.6946H73.8525V54.9665C73.8525 52.4302 71.7886 50.3605 69.2463 50.3605H64.8136V52.7293H69.2463C70.4786 52.7293 71.4836 53.7342 71.4836 54.9665V68.6946H59.8784V1.18439C59.8784 0.532377 59.3519 0 58.6999 0H2.15747C1.50543 0 0.973022 0.532377 0.973022 1.18439V109.257C0.973022 109.909 1.50543 110.441 2.15747 110.441H143.843C144.495 110.441 145.027 109.909 145.027 109.257V69.879C145.027 69.227 144.495 68.6946 143.843 68.6946ZM57.5095 108.073H3.8145H3.33594V40.1616H57.5035V108.073H57.5095ZM57.5095 37.7928H3.34192V2.3628H57.5095V37.7928ZM100.084 108.073H59.8784V90.7494H100.084V108.073ZM100.084 88.3866H59.8784V71.0634H100.084V88.3866ZM142.658 108.073H102.453V71.0634H142.658V108.073Z" fill="#6D6D6D"/>
<path d="M91.9362 78.5406H68.0259V80.9094H91.9362V78.5406Z" fill="#6D6D6D"/>
<path d="M91.9362 98.2267H68.0259V100.595H91.9362V98.2267Z" fill="#6D6D6D"/>
<path d="M109.099 102.48H136.012C136.664 102.48 137.196 101.947 137.196 101.295V92.1431C137.196 91.4911 136.664 90.9587 136.012 90.9587H109.099C108.447 90.9587 107.914 91.4911 107.914 92.1431V101.295C107.914 101.947 108.447 102.48 109.099 102.48ZM110.283 93.3275H134.828V100.111H110.283V93.3275Z" fill="#6D6D6D"/>
<path d="M113.328 87.4834C116.313 87.4834 118.742 85.0548 118.742 82.0699C118.742 79.085 116.313 76.6564 113.328 76.6564C110.343 76.6564 107.914 79.085 107.914 82.0699C107.914 85.0548 110.343 87.4834 113.328 87.4834ZM113.328 79.0252C115.009 79.0252 116.373 80.389 116.373 82.0699C116.373 83.7507 115.003 85.1146 113.328 85.1146C111.647 85.1146 110.283 83.7448 110.283 82.0699C110.283 80.395 111.647 79.0252 113.328 79.0252Z" fill="#6D6D6D"/>
<path d="M131.783 87.4834C134.768 87.4834 137.196 85.0548 137.196 82.0699C137.196 79.085 134.768 76.6564 131.783 76.6564C128.798 76.6564 126.369 79.085 126.369 82.0699C126.369 83.5115 126.931 84.8753 127.954 85.8982C128.977 86.9211 130.335 87.4834 131.783 87.4834ZM131.783 79.0252C133.464 79.0252 134.828 80.389 134.828 82.0699C134.828 83.7507 133.458 85.1146 131.783 85.1146C130.102 85.1146 128.738 83.7448 128.738 82.0699C128.732 80.395 130.102 79.0252 131.783 79.0252Z" fill="#6D6D6D"/>
</svg>
