<svg width="135" height="108" viewBox="0 0 135 108" fill="none" xmlns="http://www.w3.org/2000/svg">
<path d="M126.553 57.1284H118.859V42.585C118.859 39.7793 117.761 37.1478 115.788 35.1636C113.807 33.1795 111.173 32.0865 108.379 32.0865H80.2195V8.43695C80.2195 6.24396 79.3647 4.17628 77.808 2.62378C76.2582 1.07128 74.1942 0.21497 72.0051 0.208008H8.37447C6.17839 0.208008 4.12131 1.06432 2.57155 2.62378C1.01484 4.17628 0.160034 6.237 0.160034 8.43695V99.5053C0.160034 101.705 1.01484 103.766 2.57155 105.318C4.12131 106.871 6.18534 107.727 8.37447 107.727H53.8319C55.4164 107.727 56.9105 107.108 58.0294 105.98C59.1483 104.859 59.7668 103.362 59.7738 101.775V100.898H111.521L111.534 101.768C111.562 103.432 112.285 105.033 113.522 106.147C114.759 107.261 116.427 107.811 118.081 107.658C119.735 107.505 121.271 106.655 122.279 105.332C123.293 104.01 123.71 102.311 123.425 100.668L123.321 100.062L123.856 99.756C126.379 98.3009 127.949 95.5928 127.963 92.6757V75.7723L128.624 75.5982C130.375 75.1387 131.952 74.1014 133.064 72.6673C134.176 71.2331 134.788 69.4439 134.788 67.6269V65.3503C134.788 63.1504 133.933 61.0897 132.376 59.5372C130.813 57.9847 128.749 57.1284 126.553 57.1284ZM41.5867 2.99972H72.012C73.4576 2.99972 74.8197 3.56363 75.8482 4.59399C76.8698 5.61739 77.4397 6.98192 77.4397 8.43695V22.9734H41.5867V2.99972ZM41.5867 25.772H77.4327V32.0865H62.9219C60.1213 32.0865 57.4943 33.1864 55.5137 35.1636C53.533 37.1478 52.4419 39.7863 52.4419 42.585V57.1632L51.5246 57.1214C48.5502 56.9822 45.541 57.0935 42.5735 57.4416L41.5936 57.56V25.772H41.5867ZM8.37447 104.943C6.92895 104.943 5.56683 104.379 4.53829 103.348C3.5167 102.325 2.94683 100.96 2.94683 99.5123V8.43695C2.94683 6.98888 3.50975 5.62435 4.53829 4.59399C5.55988 3.5706 6.922 2.99972 8.37447 2.99972H38.7999V58.5207C38.8068 58.6321 38.8346 58.7714 38.8833 58.9106L39.0709 59.4118L38.7165 59.8087C36.5065 62.2732 35.7837 66.3389 36.9304 69.9243C37.8825 72.9179 39.9743 74.9856 42.6569 75.5843L43.3449 75.7375V92.6688C43.3518 95.5788 44.9294 98.294 47.4521 99.749L47.9316 100.027L47.8899 100.584C47.8065 101.67 47.9316 102.75 48.2652 103.787L48.6405 104.936L8.37447 104.943ZM56.98 101.782C56.98 103.522 55.5623 104.936 53.8319 104.936C52.0945 104.936 50.6837 103.515 50.6837 101.782V100.905H56.987L56.98 101.782ZM61.5251 92.6757C61.5251 94.1238 60.9622 95.4883 59.9336 96.5187C58.912 97.5421 57.5499 98.113 56.1044 98.113H51.5593C50.1138 98.113 48.7517 97.549 47.7232 96.5187C46.7016 95.4953 46.1317 94.1308 46.1317 92.6827V74.4704C46.1317 74.0945 45.9857 73.7464 45.7217 73.4818C45.4576 73.2173 45.1101 73.0711 44.7348 73.0711C43.2893 73.0711 41.9272 72.5071 40.8986 71.4768C39.877 70.4534 39.3072 69.0889 39.3072 67.6408V65.3643C39.3072 63.9162 39.8701 62.5517 40.8986 61.5213C41.9202 60.4979 43.2824 59.927 44.7348 59.927H53.8249C55.882 59.927 57.814 60.7346 59.2665 62.1896C60.7189 63.6447 61.5181 65.5801 61.5251 67.6408V92.6757ZM62.1992 98.113L63.2208 96.7136C64.4648 95.0079 64.3814 91.2137 64.3258 88.4499C64.3049 87.4822 64.2841 86.5701 64.3188 85.8113L64.3536 84.9689H106.948L106.982 85.8113C107.017 86.5771 106.996 87.4961 106.976 88.4777C106.913 91.3808 106.837 95.001 108.08 96.7206L109.088 98.1199H62.1992V98.113ZM64.3119 82.1702V81.2861C64.3119 79.838 64.8748 78.4735 65.9033 77.4501C66.9249 76.4267 68.287 75.8558 69.7395 75.8558H101.562C103.007 75.8558 104.369 76.4197 105.398 77.4501C106.42 78.4735 106.989 79.838 106.989 81.293V82.1772H64.3119V82.1702ZM106.982 67.6338V74.9995L105.655 74.2058C104.418 73.4679 102.993 73.0711 101.555 73.0641H69.7395C68.3009 73.0711 66.8832 73.4679 65.6462 74.2058L64.3188 74.9995V67.6338C64.3119 65.2181 63.471 62.8649 61.949 60.9922C60.427 59.1264 58.2866 57.8245 55.9306 57.3372L55.2287 57.191V42.585C55.2287 40.5243 56.0349 38.5889 57.4874 37.1338C58.9398 35.6788 60.8718 34.8782 62.9289 34.8712H108.386C110.443 34.8712 112.375 35.6788 113.828 37.1338C115.28 38.5889 116.079 40.5243 116.086 42.585V57.191L115.385 57.3372C113.022 57.8245 110.888 59.1194 109.366 60.9922C107.823 62.8649 106.982 65.2181 106.982 67.6338ZM120.618 101.782C120.618 103.522 119.2 104.936 117.469 104.936C115.732 104.936 114.321 103.515 114.321 101.782V100.905H120.625L120.618 101.782ZM131.98 67.6338C131.98 69.0819 131.417 70.4464 130.389 71.4768C129.367 72.5002 128.005 73.0711 126.56 73.0711C126.191 73.0711 125.83 73.2173 125.573 73.4818C125.316 73.7394 125.163 74.1014 125.163 74.4704V92.6827C125.163 94.1308 124.6 95.4953 123.571 96.5256C122.55 97.549 121.187 98.1199 119.735 98.1199H115.19C113.744 98.1199 112.382 97.556 111.354 96.5256C110.332 95.5022 109.762 94.1377 109.762 92.6896V67.6338C109.762 65.5731 110.568 63.6377 112.021 62.1827C113.473 60.7276 115.405 59.927 117.462 59.9201H126.553C127.998 59.9201 129.36 60.484 130.389 61.5143C131.41 62.5377 131.98 63.9023 131.98 65.3573V67.6338Z" fill="#6D6D6D"/>
<path d="M94.7303 50.2988H91.4223L91.2138 49.714C90.6161 48.0292 89.3027 46.7134 87.6209 46.1147L87.0371 45.9058V42.592C87.0371 41.8192 86.4116 41.1926 85.6402 41.1926C84.8688 41.1926 84.2433 41.8192 84.2433 42.592V45.9058L83.6596 46.1147C81.9778 46.7134 80.6643 48.0292 80.0666 49.714L79.8581 50.2988H76.5501C75.7787 50.2988 75.1533 50.9253 75.1533 51.6981C75.1533 52.4709 75.7787 53.0974 76.5501 53.0974H79.8581L80.0666 53.6822C80.6643 55.367 81.9778 56.6828 83.6596 57.2815L84.2433 57.4904V60.8043C84.2433 61.577 84.8688 62.2036 85.6402 62.2036C86.4116 62.2036 87.0371 61.577 87.0371 60.8043V57.4904L87.6209 57.2815C89.3027 56.6828 90.6161 55.367 91.2138 53.6822L91.4223 53.0974H94.7303C95.4739 53.0905 96.0924 52.457 96.0924 51.6981C96.0994 50.9393 95.4878 50.3127 94.7303 50.2988ZM85.6611 54.8518H85.6472H85.6333C83.9237 54.824 82.5268 53.4107 82.5268 51.6981C82.5268 49.9855 83.9167 48.5653 85.6333 48.5444C87.3707 48.5722 88.7606 49.9855 88.7606 51.6981C88.7606 53.4107 87.3707 54.824 85.6611 54.8518Z" fill="#6D6D6D"/>
<path d="M31.0997 45.7457C30.7314 45.7457 30.37 45.8919 30.1128 46.1565C29.8488 46.421 29.7028 46.7691 29.7028 47.1451V56.2512C29.7028 57.024 30.3283 57.6505 31.0997 57.6505C31.8711 57.6505 32.4966 57.024 32.4966 56.2512V47.1381C32.4966 46.7622 32.3506 46.4141 32.0865 46.1495C31.8225 45.8919 31.475 45.7457 31.0997 45.7457Z" fill="#6D6D6D"/>
</svg>
