<svg width="34" height="26" viewBox="0 0 34 26" fill="none" xmlns="http://www.w3.org/2000/svg">
<path d="M33.8596 21.2942C33.8596 22.0363 33.6562 22.7241 33.3298 23.3289L22.9106 11.3724L33.2175 2.12372C33.6181 2.77592 33.8602 3.54252 33.8602 4.37119L33.8596 21.2942ZM17.3602 13.5431L31.7009 0.673544C31.1126 0.342911 30.4495 0.140625 29.7347 0.140625H4.98506C4.26959 0.140625 3.60649 0.342911 3.02024 0.673544L17.3602 13.5431ZM21.3579 12.7647L18.0383 15.7452C17.8445 15.9189 17.6023 16.0054 17.3596 16.0054C17.1168 16.0054 16.8753 15.9189 16.6808 15.7452L13.3605 12.764L2.81009 24.8739C3.44258 25.2806 4.1839 25.5247 4.98506 25.5247H29.7347C30.5359 25.5247 31.2779 25.2813 31.9097 24.8739L21.3579 12.7647ZM1.50293 2.12372C1.10167 2.77662 0.860229 3.54321 0.860229 4.37119V21.2935C0.860229 22.0356 1.0629 22.7234 1.39003 23.3282L11.8079 11.3696L1.50293 2.12372Z" fill="#ECEAEA"/>
</svg>
