<svg width="35" height="35" viewBox="0 0 35 35" fill="none" xmlns="http://www.w3.org/2000/svg">
<path d="M26.2105 23.0923C25.0996 21.9957 23.7128 21.9957 22.609 23.0923C21.7671 23.9272 20.9251 24.7621 20.0973 25.6111C19.8708 25.8446 19.6798 25.8942 19.4039 25.7385C18.859 25.4413 18.2789 25.2008 17.7553 24.8753C15.3142 23.34 13.2694 21.3659 11.4581 19.1443C10.5595 18.0405 9.75999 16.859 9.20103 15.5288C9.08782 15.2599 9.10905 15.0831 9.32839 14.8637C10.1704 14.0501 10.9911 13.2152 11.819 12.3803C12.9723 11.2199 12.9723 9.86148 11.8119 8.69405C11.1539 8.02897 10.4958 7.37804 9.83782 6.71296C9.15858 6.03373 8.48641 5.34742 7.80009 4.67527C6.68924 3.59274 5.30245 3.59274 4.19867 4.68234C3.34962 5.51723 2.53594 6.37335 1.67273 7.19408C0.8732 7.95114 0.469898 8.87801 0.384993 9.96053C0.250559 11.7223 0.682163 13.385 1.29065 15.0052C2.53594 18.3589 4.43216 21.3376 6.73169 24.0687C9.83782 27.762 13.5454 30.6841 17.8826 32.7926C19.8355 33.7407 21.859 34.4694 24.0595 34.5897C25.5737 34.6746 26.8897 34.2926 27.944 33.111C28.6657 32.3044 29.4793 31.5686 30.2435 30.7973C31.3756 29.6511 31.3826 28.2644 30.2576 27.1323C28.9133 25.7809 27.5619 24.4366 26.2105 23.0923Z" fill="#ECEAEA"/>
<path d="M24.8567 17.4654L27.4676 17.0197C27.0572 14.6211 25.9251 12.449 24.2058 10.7226C22.3874 8.90427 20.0878 7.75806 17.5548 7.4043L17.1869 10.0292C19.1468 10.3052 20.9298 11.1896 22.3378 12.5976C23.668 13.9277 24.5383 15.6117 24.8567 17.4654Z" fill="#ECEAEA"/>
<path d="M28.9407 6.10909C25.9266 3.09501 22.1129 1.19174 17.903 0.604492L17.535 3.22944C21.1718 3.73886 24.469 5.38741 27.0728 7.98406C29.5421 10.4533 31.1624 13.5736 31.7497 17.0051L34.3605 16.5593C33.6742 12.583 31.7992 8.9746 28.9407 6.10909Z" fill="#ECEAEA"/>
</svg>
