<svg width="29" height="39" viewBox="0 0 29 39" fill="none" xmlns="http://www.w3.org/2000/svg">
<path d="M14.846 0.76384C7.03622 0.502142 0.623535 6.71076 0.623535 14.4055C0.623535 23.1389 9.06372 29.4769 13.7941 38.5917C14.0344 39.0541 14.7052 39.0549 14.9463 38.5924C19.2259 30.3906 26.5401 24.8913 27.896 16.9898C29.2998 8.814 23.1933 1.04338 14.846 0.76384ZM14.3698 21.5554C10.3934 21.5554 7.16949 18.354 7.16949 14.4055C7.16949 10.457 10.3934 7.25571 14.3698 7.25571C18.3462 7.25571 21.5701 10.457 21.5701 14.4055C21.5701 18.354 18.3462 21.5554 14.3698 21.5554Z" fill="#ECEAEA"/>
</svg>
